<svg width="120" height="120" viewBox="0 0 120 120" fill="none" xmlns="http://www.w3.org/2000/svg">
<path d="M120 0H0V120L120 0Z" fill="#FFA800"/>
<path d="M12.6682 41.65L11.4039 42.7785C11.6075 42.9482 11.7772 43.1179 12.1506 43.5422C12.3288 43.7543 12.5324 44.0089 12.77 44.2974C12.0997 44.8659 11.353 45.392 10.6996 45.7229L11.616 46.7581C12.2609 46.4017 12.9652 45.9011 13.61 45.375C13.9494 45.7993 14.2973 46.249 14.6283 46.6818C14.0173 47.1739 13.3555 47.6491 12.6173 48.0139L13.5846 49.1001C14.1616 48.7776 14.8149 48.3109 15.4938 47.7509C15.8077 48.1327 16.0877 48.4637 16.2914 48.6673C17.7084 50.0844 19.2273 49.7195 20.5595 48.3873C22.4178 46.529 22.6553 44.4586 21.3741 43.1773C20.6528 42.4561 19.7873 42.1167 18.5145 41.9639L17.5727 43.4149C18.6588 43.381 19.5158 43.6101 20.0928 44.1871C20.7886 44.8829 20.6868 46.0708 19.4988 47.2588C18.6673 48.0903 17.8612 48.1497 17.1569 47.4454C17.0041 47.2927 16.809 47.0636 16.5714 46.7921C16.6817 46.6818 16.8005 46.563 16.9108 46.4527C17.4454 45.9181 17.9036 45.392 18.3363 44.8744L17.352 43.8392C16.8684 44.4586 16.2744 45.1205 15.7483 45.6466C15.7314 45.6635 15.7059 45.689 15.6889 45.7059C15.3495 45.2817 15.0016 44.832 14.6792 44.4077C15.358 43.7289 15.7908 43.2282 16.249 42.6682L15.2732 41.6245C14.9337 42.0827 14.4416 42.6767 13.8391 43.2961C13.5931 42.9822 13.3979 42.7191 13.2791 42.5494C13.0924 42.2949 12.8973 42.0318 12.6682 41.65ZM19.974 34.2763L20.7207 35.566C21.5523 35.0739 23.8433 33.5805 24.8106 32.8338L24.03 31.544C23.2069 32.1974 21.0347 33.7247 19.974 34.2763ZM21.7305 35.9309L20.4322 36.9067C21.425 38.0183 22.8929 39.8766 23.5548 40.8778L24.7767 40.1481C24.6833 39.902 24.6324 39.6814 24.5985 39.342C24.4882 38.1625 24.9973 36.9407 25.9561 35.9818C26.6943 35.2436 27.6277 35.1248 28.1793 35.6763C29.2569 36.754 28.5272 38.7226 25.6337 40.9202L27.0677 41.7094C30.8946 38.4765 30.9285 36.0667 29.3842 34.5223C28.3575 33.4956 26.5755 33.4447 25.0906 34.9296C24.1997 35.8206 23.6057 36.9067 23.3936 38.2389C22.9693 37.6958 22.0868 36.5079 21.7305 35.9309ZM28.595 27.1826L27.2713 28.4723C27.5853 28.6845 27.9671 29.0324 28.2047 29.27C28.7223 29.7876 29.7236 30.7719 30.5891 31.4676C33.1007 33.5041 34.7469 33.5381 35.6803 32.6047C36.3591 31.9259 36.376 30.8737 35.4596 28.8372L33.5759 28.6505C34.0935 29.4906 34.7469 30.8228 34.3481 31.2216C33.8135 31.7561 32.7189 31.1707 31.3782 30.0676C30.7164 29.5075 30.0715 28.8796 29.5284 28.3196C29.2908 28.082 28.8411 27.5474 28.595 27.1826ZM33.0328 23.1351L32.3031 24.5606C34.2802 24.6879 36.7918 26.3001 38.2937 27.5305L38.9725 25.9862C37.581 24.7812 34.8148 23.3048 33.0328 23.1351ZM46.2275 15.999L42.8758 19.3507L41.883 18.3579L44.734 15.5068L43.7667 14.5395L40.9157 17.3906L39.8041 16.279C40.6272 15.2353 41.3739 14.2001 41.9339 13.2498L40.3641 13.1394C39.3374 14.8959 37.2415 17.45 35.2814 19.5798C35.6039 19.6986 36.1385 19.9786 36.427 20.2162C37.2246 19.3507 38.0646 18.4088 38.8707 17.45L39.8635 18.4427L37.0888 21.2174L38.0561 22.1848L40.8308 19.4101L41.8236 20.4028L38.4719 23.7545L39.4562 24.7388L42.8079 21.3871L44.174 22.7533C44.3437 22.923 44.3268 23.0587 44.1401 23.2624C43.9534 23.4491 43.2406 24.1618 42.5873 24.7643C43.02 24.8746 43.6564 25.1207 44.0043 25.3498C44.8783 24.4927 45.4638 23.8564 45.7183 23.2963C45.9559 22.7363 45.8456 22.3205 45.2432 21.7181L43.8601 20.335L47.2118 16.9833L46.2275 15.999ZM30.0658 50.0193C29.1367 50.1084 27.5839 50.5921 26.5147 51.0757L26.8075 53.0231C27.953 52.5649 29.5313 52.1576 30.4349 52.1449L30.0658 50.0193ZM32.7514 54.105C31.8096 54.1813 30.2567 54.7414 29.1876 55.2505L29.5185 57.1851C30.664 56.7269 32.2296 56.2814 33.146 56.2305L32.7514 54.105ZM34.2024 56.676C34.9788 58.8779 35.6788 61.3853 36.0098 62.9891L38.2753 62.6072C37.7408 60.6471 37.0153 58.4452 36.3025 56.4596L34.2024 56.676ZM36.1625 48.0465L37.7408 46.4682L40.0445 48.772L38.4281 50.3884C38.0335 49.9429 37.6389 49.5229 37.2189 49.1029L36.1625 48.0465ZM43.9011 47.7665L42.4756 46.3409L41.521 47.2955L37.7917 43.5662L34.737 46.6209L32.8023 44.6863L31.3004 46.1882L33.2351 48.1228L31.1095 50.2484L32.535 51.6739L34.6606 49.5484L35.7043 50.5921C36.1243 51.0121 36.5316 51.4448 36.9262 51.8903L34.2151 54.6014L35.6407 56.0269L38.1226 53.5449C39.179 55.3396 39.6372 57.5033 38.7208 60.4562C39.3572 60.278 40.4645 60.2144 41.05 60.2653C41.9283 57.2488 41.4064 54.8686 40.2609 52.8831C42.8319 54.0031 45.3266 54.3341 47.7958 53.494C47.6049 52.8449 47.4776 51.7758 47.5285 51.1139C45.3393 52.0303 42.9719 51.8267 40.7955 50.8721L43.9011 47.7665ZM42.3737 40.537L50.2014 32.7093L51.9451 34.4531L53.5107 32.8875L50.3287 29.7055L45.6703 34.364L44.3975 33.0912L42.7937 34.6949L44.0665 35.9677L39.4463 40.5879L42.6283 43.7699L44.1175 42.2807L42.3737 40.537ZM52.6452 41.3643L56.1453 37.8641L54.7198 36.4386L51.2196 39.9388L49.6286 38.3478L52.3524 35.624L50.9142 34.1858L43.9138 41.1861L45.3521 42.6244L48.0631 39.9133L52.5561 44.4063C51.436 44.7881 50.2269 44.7754 48.8268 44.139C48.4322 43.5153 47.9867 42.8917 47.4904 42.2425L45.7594 43.6681C47.7067 46.0736 48.8395 48.4538 48.4831 50.8466C49.0686 50.7193 50.2396 50.6175 50.7614 50.6302C50.8633 49.2811 50.6087 47.9065 50.0487 46.5318C53.027 47.1682 55.1526 45.8064 57.4945 43.4644L60.6765 40.2824C60.3074 39.7606 59.8237 38.7933 59.671 38.2078C58.8564 39.0987 56.7563 41.1988 56.069 41.8862C55.5599 42.3953 55.0507 42.8535 54.5416 43.2608L52.6452 41.3643Z" fill="white"/>
</svg>
