<svg width="100" height="100" fill="none" xmlns="http://www.w3.org/2000/svg"><path d="M100 50c0-27.617-22.383-50-50-50S0 22.383 0 50c0 24.96 18.281 45.644 42.188 49.394v-34.94H29.492V50h12.695V38.984c0-12.529 7.461-19.453 18.887-19.453 5.469 0 11.192.977 11.192.977v12.305h-6.309c-6.21 0-8.144 3.857-8.144 7.812V50H71.68l-2.217 14.453h-11.65v34.941C81.719 95.644 100 74.962 100 50z" fill="#1877F2"/><path d="M69.463 64.453L71.68 50H57.812v-9.375c0-3.955 1.934-7.813 8.145-7.813h6.309V20.508s-5.723-.977-11.192-.977c-11.426 0-18.886 6.924-18.886 19.453V50H29.492v14.453h12.695v34.941A50.3 50.3 0 0050 100a50.3 50.3 0 007.813-.606v-34.94h11.65z" fill="#fff"/></svg>