<svg width="44" height="44" viewBox="0 0 44 44" fill="none" xmlns="http://www.w3.org/2000/svg">
<path d="M0 22C0 9.84974 9.84974 0 22 0V0C34.1503 0 44 9.84974 44 22V22C44 34.1503 34.1503 44 22 44V44C9.84974 44 0 34.1503 0 22V22Z" fill="#EEEEEE"/>
<path d="M27 26.08C26.24 26.08 25.56 26.38 25.04 26.85L17.91 22.7C17.96 22.47 18 22.24 18 22C18 21.76 17.96 21.53 17.91 21.3L24.96 17.19C25.5 17.69 26.21 18 27 18C28.66 18 30 16.66 30 15C30 13.34 28.66 12 27 12C25.34 12 24 13.34 24 15C24 15.24 24.04 15.47 24.09 15.7L17.04 19.81C16.5 19.31 15.79 19 15 19C13.34 19 12 20.34 12 22C12 23.66 13.34 25 15 25C15.79 25 16.5 24.69 17.04 24.19L24.16 28.35C24.11 28.56 24.08 28.78 24.08 29C24.08 30.61 25.39 31.92 27 31.92C28.61 31.92 29.92 30.61 29.92 29C29.92 27.39 28.61 26.08 27 26.08Z" fill="#666666"/>
</svg>
