<svg width="30" height="38" viewBox="0 0 30 38" fill="none" xmlns="http://www.w3.org/2000/svg">
<path d="M8 13H22V38L15 33L8 38V13Z" fill="#219653"/>
<mask id="mask0" style="mask-type:alpha" maskUnits="userSpaceOnUse" x="8" y="13" width="14" height="25">
<path d="M8 13H22V38L15 33L8 38V13Z" fill="#EB5757"/>
</mask>
<g mask="url(#mask0)">
<rect x="9" y="25" width="1" height="13" fill="white"/>
<rect x="14.5" y="25" width="1" height="13" fill="white"/>
<rect x="20" y="25" width="1" height="13" fill="white"/>
</g>
<circle cx="15" cy="15" r="15" fill="#989B97"/>
<path d="M9.75625 22C9.78125 21.025 9.99063 20.1344 10.3844 19.3281C10.7656 18.4219 11.6656 17.4625 13.0844 16.45C14.3156 15.5687 15.1125 14.9375 15.475 14.5562C16.0313 13.9625 16.3094 13.3125 16.3094 12.6062C16.3094 12.0312 16.15 11.5531 15.8313 11.1719C15.5125 10.7906 15.0563 10.6 14.4625 10.6C13.65 10.6 13.0969 10.9031 12.8031 11.5094C12.6344 11.8594 12.5344 12.4156 12.5031 13.1781H9.90625C9.95 12.0219 10.1594 11.0875 10.5344 10.375C11.2469 9.01875 12.5125 8.34062 14.3313 8.34062C15.7688 8.34062 16.9125 8.74062 17.7625 9.54062C18.6125 10.3344 19.0375 11.3875 19.0375 12.7C19.0375 13.7062 18.7375 14.6 18.1375 15.3812C17.7438 15.9 17.0969 16.4781 16.1969 17.1156L15.1281 17.875C14.4594 18.35 14 18.6937 13.75 18.9062C13.5063 19.1187 13.3 19.3656 13.1313 19.6469H19.0656V22H9.75625Z" fill="white"/>
</svg>
