<svg width="30" height="38" viewBox="0 0 30 38" fill="none" xmlns="http://www.w3.org/2000/svg">
<path d="M8 13H22V38L15 33L8 38V13Z" fill="#BB6BD9"/>
<mask id="mask0" style="mask-type:alpha" maskUnits="userSpaceOnUse" x="8" y="13" width="14" height="25">
<path d="M8 13H22V38L15 33L8 38V13Z" fill="#EB5757"/>
</mask>
<g mask="url(#mask0)">
<rect x="9" y="25" width="1" height="13" fill="white"/>
<rect x="14.5" y="25" width="1" height="13" fill="white"/>
<rect x="20" y="25" width="1" height="13" fill="white"/>
</g>
<circle cx="15" cy="15" r="15" fill="#D15800"/>
<path d="M12.2875 17.8281C12.2875 18.3719 12.375 18.8219 12.55 19.1781C12.875 19.8344 13.4656 20.1625 14.3219 20.1625C14.8469 20.1625 15.3031 19.9844 15.6906 19.6281C16.0844 19.2656 16.2813 18.7469 16.2813 18.0719C16.2813 17.1781 15.9188 16.5812 15.1938 16.2812C14.7813 16.1125 14.1313 16.0281 13.2438 16.0281V14.1156C14.1125 14.1031 14.7188 14.0187 15.0625 13.8625C15.6563 13.6 15.9531 13.0687 15.9531 12.2687C15.9531 11.75 15.8 11.3281 15.4938 11.0031C15.1938 10.6781 14.7688 10.5156 14.2188 10.5156C13.5875 10.5156 13.1219 10.7156 12.8219 11.1156C12.5281 11.5156 12.3875 12.05 12.4 12.7187H9.90625C9.93125 12.0437 10.0469 11.4031 10.2531 10.7969C10.4719 10.2656 10.8156 9.775 11.2844 9.325C11.6344 9.00625 12.05 8.7625 12.5313 8.59375C13.0125 8.425 13.6031 8.34062 14.3031 8.34062C15.6031 8.34062 16.65 8.67812 17.4438 9.35312C18.2438 10.0219 18.6438 10.9219 18.6438 12.0531C18.6438 12.8531 18.4063 13.5281 17.9313 14.0781C17.6313 14.4219 17.3188 14.6562 16.9938 14.7812C17.2375 14.7812 17.5875 14.9906 18.0438 15.4094C18.725 16.0406 19.0656 16.9031 19.0656 17.9969C19.0656 19.1469 18.6656 20.1594 17.8656 21.0344C17.0719 21.9031 15.8938 22.3375 14.3313 22.3375C12.4063 22.3375 11.0688 21.7094 10.3188 20.4531C9.925 19.7844 9.70625 18.9094 9.6625 17.8281H12.2875Z" fill="white"/>
</svg>
