<svg width="44" height="44" viewBox="0 0 44 44" fill="none" xmlns="http://www.w3.org/2000/svg">
<path d="M22 44C34.1503 44 44 34.1503 44 22C44 9.84974 34.1503 0 22 0C9.84974 0 0 9.84974 0 22C0 34.1503 9.84974 44 22 44Z" fill="#4CC764"/>
<path d="M36.6711 20.7185C36.6711 14.1474 30.0835 8.80005 21.9847 8.80005C13.886 8.80005 7.29834 14.1474 7.29834 20.7185C7.29834 26.6104 12.5233 31.5453 19.5812 32.4775C20.0597 32.5807 20.7101 32.7924 20.8751 33.2022C21.0222 33.5734 20.9713 34.155 20.9218 34.529C20.9218 34.529 20.75 35.5658 20.7128 35.7872C20.6482 36.1584 20.4172 37.2392 21.9847 36.5792C23.5522 35.9192 30.4423 31.5989 33.5237 28.0542C35.6522 25.7125 36.6711 23.3489 36.6711 20.7185Z" fill="white"/>
<path d="M31.7857 24.5134C31.8587 24.5134 31.9286 24.4844 31.9802 24.4328C32.0318 24.3812 32.0607 24.3113 32.0607 24.2384V23.1975C32.0607 23.1245 32.0318 23.0546 31.9802 23.003C31.9286 22.9515 31.8587 22.9225 31.7857 22.9225H28.9821V21.8404H31.7857C31.8587 21.8404 31.9286 21.8114 31.9802 21.7598C32.0318 21.7082 32.0607 21.6383 32.0607 21.5654V20.5231C32.0607 20.4502 32.0318 20.3802 31.9802 20.3286C31.9286 20.2771 31.8587 20.2481 31.7857 20.2481H28.9821V19.166H31.7857C31.8587 19.166 31.9286 19.137 31.9802 19.0854C32.0318 19.0339 32.0607 18.9639 32.0607 18.891V17.8487C32.0607 17.7758 32.0318 17.7059 31.9802 17.6543C31.9286 17.6027 31.8587 17.5737 31.7857 17.5737H27.6607C27.5878 17.5737 27.5179 17.6027 27.4663 17.6543C27.4147 17.7059 27.3857 17.7758 27.3857 17.8487V24.2274C27.3857 24.3003 27.4147 24.3702 27.4663 24.4218C27.5179 24.4734 27.5878 24.5024 27.6607 24.5024H31.7857V24.5134Z" fill="#4CC764"/>
<path d="M16.5233 24.5134C16.5962 24.5134 16.6662 24.4845 16.7178 24.4329C16.7693 24.3813 16.7983 24.3114 16.7983 24.2384V23.1976C16.7983 23.1246 16.7693 23.0547 16.7178 23.0031C16.6662 22.9515 16.5962 22.9226 16.5233 22.9226H13.7183V17.8351C13.7183 17.7621 13.6893 17.6922 13.6378 17.6406C13.5862 17.589 13.5163 17.5601 13.4433 17.5601H12.4024C12.3295 17.5601 12.2596 17.589 12.208 17.6406C12.1564 17.6922 12.1274 17.7621 12.1274 17.8351V24.2274C12.1274 24.3004 12.1564 24.3703 12.208 24.4219C12.2596 24.4735 12.3295 24.5024 12.4024 24.5024H16.5274L16.5233 24.5134Z" fill="#4CC764"/>
<path d="M19.0064 17.5422H17.9656C17.8106 17.5422 17.6851 17.6678 17.6851 17.8227V24.2316C17.6851 24.3865 17.8106 24.5121 17.9656 24.5121H19.0064C19.1613 24.5121 19.2869 24.3865 19.2869 24.2316V17.8227C19.2869 17.6678 19.1613 17.5422 19.0064 17.5422Z" fill="#4CC764"/>
<path d="M26.0972 17.5422H25.0563C24.9833 17.5422 24.9134 17.5712 24.8618 17.6228C24.8103 17.6744 24.7813 17.7443 24.7813 17.8172V21.6246L21.8484 17.6646C21.8417 17.6541 21.8339 17.6445 21.825 17.6357V17.6357L21.8085 17.6192L21.7934 17.6069H21.7852L21.7714 17.5959H21.7618L21.7467 17.5876H21.7384H21.7219H21.7123H21.6958H21.6848H21.6683H21.6573H21.6422H20.5807C20.5077 17.5876 20.4378 17.6166 20.3862 17.6682C20.3346 17.7197 20.3057 17.7897 20.3057 17.8626V24.2729C20.3057 24.3458 20.3346 24.4157 20.3862 24.4673C20.4378 24.5189 20.5077 24.5479 20.5807 24.5479H21.6229C21.6958 24.5479 21.7658 24.5189 21.8174 24.4673C21.8689 24.4157 21.8979 24.3458 21.8979 24.2729V20.427L24.8335 24.3925C24.8533 24.4202 24.878 24.4439 24.9064 24.4626L24.9243 24.4736H24.9325L24.9463 24.4805H24.96H24.9683H24.9889C25.0132 24.4866 25.0381 24.4898 25.0632 24.4901H26.0985C26.1715 24.4901 26.2414 24.4611 26.293 24.4096C26.3446 24.358 26.3735 24.288 26.3735 24.2151V17.8227C26.3743 17.786 26.3676 17.7496 26.3541 17.7155C26.3405 17.6814 26.3202 17.6504 26.2945 17.6242C26.2687 17.5981 26.238 17.5774 26.2041 17.5633C26.1702 17.5492 26.1338 17.542 26.0972 17.5422V17.5422Z" fill="#4CC764"/>
</svg>
