<svg width="64" height="64" viewBox="0 0 64 64" fill="none" xmlns="http://www.w3.org/2000/svg">
<path d="M64 0H0V64L64 0Z" fill="#FFA800"/>
<path d="M5.77878 24.1001L4.93591 24.8525C5.07167 24.9656 5.18481 25.0787 5.43371 25.3616C5.5525 25.503 5.68827 25.6727 5.84666 25.865C5.39977 26.244 4.90197 26.5948 4.46639 26.8154L5.07733 27.5055C5.50725 27.2679 5.97677 26.9342 6.40669 26.5834C6.63296 26.8663 6.86489 27.1661 7.08551 27.4546C6.67822 27.7827 6.23698 28.0995 5.74484 28.3427L6.38972 29.0668C6.77438 28.8518 7.20996 28.5407 7.66251 28.1674C7.87181 28.4219 8.05849 28.6425 8.19426 28.7783C9.13895 29.723 10.1515 29.4798 11.0397 28.5916C12.2785 27.3528 12.4369 25.9725 11.5827 25.1183C11.1019 24.6375 10.5249 24.4112 9.67635 24.3094L9.04844 25.2767C9.77252 25.2541 10.3439 25.4068 10.7285 25.7915C11.1924 26.2554 11.1245 27.0473 10.3325 27.8393C9.77817 28.3936 9.24077 28.4332 8.77125 27.9637C8.66943 27.8619 8.53932 27.7092 8.38093 27.5281C8.45447 27.4546 8.53367 27.3754 8.60721 27.3019C8.96359 26.9455 9.26906 26.5948 9.55756 26.2497L8.90136 25.5596C8.57892 25.9725 8.18294 26.4137 7.83222 26.7645C7.8209 26.7758 7.80393 26.7928 7.79262 26.8041C7.56634 26.5212 7.33441 26.2214 7.11945 25.9386C7.572 25.486 7.8605 25.1523 8.16597 24.7789L7.51543 24.0831C7.28916 24.3886 6.96106 24.7846 6.55942 25.1975C6.39538 24.9882 6.26527 24.8129 6.18607 24.6997C6.06162 24.53 5.93151 24.3546 5.77878 24.1001ZM10.6493 19.1843L11.1471 20.0441C11.7015 19.716 13.2289 18.7204 13.8737 18.2226L13.3533 17.3628C12.8046 17.7984 11.3564 18.8166 10.6493 19.1843ZM11.8203 20.2874L10.9548 20.9379C11.6167 21.679 12.5953 22.9178 13.0365 23.5853L13.8511 23.0988C13.7889 22.9348 13.7549 22.7877 13.7323 22.5614C13.6588 21.7751 13.9982 20.9605 14.6374 20.3213C15.1296 19.8292 15.7518 19.75 16.1195 20.1177C16.8379 20.8361 16.3514 22.1485 14.4225 23.6136L15.3785 24.1397C17.9297 21.9844 17.9523 20.3779 16.9228 19.3483C16.2383 18.6639 15.0504 18.6299 14.0604 19.6199C13.4664 20.2138 13.0705 20.9379 12.929 21.826C12.6462 21.464 12.0579 20.672 11.8203 20.2874ZM16.3967 14.4552L15.5142 15.315C15.7235 15.4564 15.9781 15.6883 16.1365 15.8467C16.4815 16.1918 17.1491 16.848 17.7261 17.3119C19.4005 18.6695 20.4979 18.6921 21.1202 18.0699C21.5727 17.6173 21.584 16.9159 20.9731 15.5582L19.7173 15.4338C20.0623 15.9938 20.4979 16.8819 20.232 17.1478C19.8757 17.5042 19.1459 17.1139 18.2521 16.3785C17.8109 16.0051 17.381 15.5865 17.0189 15.2132C16.8606 15.0548 16.5607 14.6984 16.3967 14.4552ZM19.3552 11.7568L18.8687 12.7072C20.1868 12.792 21.8612 13.8668 22.8625 14.6871L23.315 13.6575C22.3873 12.8543 20.5432 11.87 19.3552 11.7568ZM28.1516 6.99942L25.9172 9.23388L25.2553 8.57203L27.156 6.67132L26.5111 6.02644L24.6104 7.92714L23.8694 7.1861C24.4181 6.4903 24.9159 5.80017 25.2893 5.1666L24.2428 5.09306C23.5583 6.26403 22.161 7.96674 20.8543 9.38661C21.0693 9.46581 21.4256 9.65248 21.618 9.81088C22.1497 9.23388 22.7097 8.60597 23.2471 7.96674L23.909 8.62859L22.0592 10.4784L22.7041 11.1233L24.5539 9.27348L25.2157 9.93533L22.9813 12.1698L23.6375 12.826L25.8719 10.5915L26.7827 11.5023C26.8958 11.6154 26.8845 11.7059 26.7601 11.8417C26.6356 11.9661 26.1604 12.4413 25.7248 12.843C26.0133 12.9165 26.4376 13.0805 26.6695 13.2333C27.2522 12.6619 27.6425 12.2377 27.8122 11.8643C27.9706 11.491 27.8971 11.2138 27.4954 10.8121L26.5734 9.89007L28.8078 7.65562L28.1516 6.99942ZM17.4856 27.9043C16.9695 27.9538 16.1068 28.2225 15.5128 28.4912L15.6754 29.5731C16.3118 29.3185 17.1887 29.0923 17.6907 29.0852L17.4856 27.9043ZM18.9776 30.1741C18.4544 30.2166 17.5917 30.5277 16.9977 30.8105L17.1816 31.8853C17.818 31.6308 18.6877 31.3833 19.1968 31.355L18.9776 30.1741ZM19.7837 31.6025C20.2151 32.8258 20.604 34.2188 20.7878 35.1097L22.0465 34.8976C21.7495 33.8087 21.3464 32.5854 20.9505 31.4823L19.7837 31.6025ZM20.8727 26.8083L21.7495 25.9315L23.0294 27.2114L22.1313 28.1094C21.9121 27.8619 21.6929 27.6286 21.4596 27.3952L20.8727 26.8083ZM25.1719 26.6527L24.3799 25.8608L23.8496 26.3911L21.7778 24.3193L20.0807 26.0163L19.0059 24.9415L18.1715 25.7759L19.2463 26.8507L18.0655 28.0316L18.8574 28.8236L20.0383 27.6427L20.6181 28.2225C20.8515 28.4559 21.0777 28.6963 21.2969 28.9438L19.7908 30.4499L20.5828 31.2419L21.9616 29.863C22.5485 30.86 22.8031 32.0621 22.294 33.7026C22.6475 33.6036 23.2627 33.5683 23.588 33.5965C24.0759 31.9207 23.786 30.5984 23.1496 29.4953C24.5779 30.1176 25.9638 30.3014 27.3356 29.8347C27.2296 29.4741 27.1589 28.8801 27.1871 28.5124C25.9709 29.0216 24.6557 28.9084 23.4465 28.3781L25.1719 26.6527ZM24.3234 22.6364L28.6721 18.2877L29.6408 19.2564L30.5105 18.3867L28.7428 16.6189L26.1548 19.2069L25.4477 18.4998L24.5567 19.3908L25.2638 20.0979L22.697 22.6647L24.4648 24.4324L25.2921 23.6051L24.3234 22.6364ZM30.0297 23.096L31.9743 21.1515L31.1823 20.3595L29.2378 22.304L28.3539 21.4202L29.8671 19.9069L29.068 19.1079L25.179 22.997L25.978 23.796L27.4841 22.2899L29.9802 24.786C29.358 24.9981 28.6862 24.991 27.9084 24.6375C27.6892 24.291 27.4417 23.9445 27.1659 23.5839L26.2043 24.3759C27.2861 25.7123 27.9155 27.0346 27.7175 28.3639C28.0427 28.2932 28.6933 28.2367 28.9832 28.2437C29.0398 27.4942 28.8983 26.7305 28.5872 25.9669C30.2418 26.3204 31.4227 25.5638 32.7238 24.2627L34.4916 22.495C34.2865 22.205 34.0178 21.6676 33.9329 21.3424C33.4804 21.8373 32.3137 23.0041 31.9318 23.3859C31.649 23.6688 31.3661 23.9233 31.0833 24.1496L30.0297 23.096Z" fill="white"/>
</svg>
