<svg width="120" height="120" viewBox="0 0 120 120" fill="none" xmlns="http://www.w3.org/2000/svg">
<path d="M120 0H0V120L120 0Z" fill="#999999"/>
<path d="M14.9114 57.2699L11.6531 60.5282L12.7986 61.6737L16.0569 58.4154L14.9114 57.2699ZM21.8736 66.6249L23.3373 68.0886L22.3318 69.0941L20.8681 67.6304L21.8736 66.6249ZM21.899 64.232L18.5134 67.6177L22.8536 71.9579L24.0246 70.7869L23.5155 70.2778L25.7301 68.0631L21.899 64.232ZM17.9279 66.9558L21.3008 63.5829L20.168 62.4501L16.7951 65.823L17.9279 66.9558ZM16.2097 65.2375L19.5826 61.8646L18.4243 60.7064L15.0514 64.0793L16.2097 65.2375ZM24.7883 60.1973L26.1247 58.8609L26.5702 59.3063L25.2338 60.6428L24.7883 60.1973ZM23.3882 58.7972L24.7246 57.4608L25.1701 57.9063L23.8337 59.2427L23.3882 58.7972ZM29.9176 58.1736C29.854 58.6954 29.7013 59.4082 29.5231 60.07C29.0649 59.9936 28.6321 59.8664 28.1994 59.7136L30.8086 57.1044L29.7904 56.0862L27.9194 57.9572L27.4739 57.5117L28.7721 56.2135L27.8175 55.2589L26.5193 56.5571L26.0738 56.1116L27.6266 54.5588L26.672 53.6042L25.1192 55.157L24.3173 54.3552L22.9682 55.7043L23.77 56.5062L22.4336 57.8426L21.6318 57.0408L20.5117 58.1608C20.7026 57.2826 20.8172 56.3789 20.7281 55.6025L19.2389 56.4044L22.09 53.5533L21.7845 54.9534C23.0064 54.4952 24.7374 54.1133 25.7174 54.0497L26.0102 52.2805C25.0938 52.3823 23.6555 52.726 22.4718 53.1715L24.4955 51.1477L23.3882 50.0404L20.4099 53.0187L19.3916 52.0005L17.8643 53.5279L18.8825 54.5461L16.1715 57.2571L17.2788 58.3645L19.0734 56.5698C19.0734 57.4862 18.6789 58.6954 18.1316 59.8027L16.9606 58.6318L12.7604 62.832L13.9568 64.0284L18.0934 59.8918L18.017 60.0446C18.5134 59.9809 19.4553 59.9555 19.9262 59.9936C20.1171 59.5227 20.2826 59.0263 20.4226 58.5045L21.0972 59.1791L19.7353 60.5409L20.6899 61.4955L22.0518 60.1337L22.4973 60.5791L21.4027 61.6737L22.3572 62.6283L23.4518 61.5337L23.8973 61.9792L22.1154 63.7611L23.1337 64.7793L25.0428 62.8702C24.8137 63.8884 24.3301 64.983 23.77 66.0012C24.2155 66.014 25.1192 66.103 25.5265 66.1794C25.7556 65.6958 25.9593 65.1866 26.1502 64.6648L26.9393 65.4539C26.5829 65.9121 26.2774 66.3449 25.9847 66.714L27.4739 67.4904C28.3903 66.2176 29.574 64.5502 30.6813 62.9593L29.4849 61.9665C28.9885 62.6411 28.5048 63.3284 28.0339 63.9775L26.6593 62.6029C26.7357 62.1192 26.7738 61.6228 26.7611 61.1519L26.9011 61.0119C29.2176 62.1065 31.5341 62.361 33.7742 61.3683C33.6215 60.8337 33.4942 59.9682 33.5324 59.4463C32.705 59.8664 31.8396 60.0955 30.9741 60.1464C31.2032 59.51 31.3941 58.8099 31.4959 58.1481L29.9176 58.1736ZM28.3394 45.5984C27.4611 45.662 25.972 46.1075 24.941 46.553L25.2338 48.5512C26.3156 48.1058 27.843 47.7494 28.7085 47.7239L28.3394 45.5984ZM30.9995 49.6331C30.1086 49.7095 28.6576 50.1931 27.6393 50.6768L27.9575 52.6242C29.0394 52.2042 30.5158 51.7969 31.3813 51.7714L30.9995 49.6331ZM32.1196 52.7642C33.0614 54.8516 33.9142 57.2571 34.3597 58.7972L36.5998 58.2626C35.9379 56.4044 35.0852 54.2788 34.2197 52.3951L32.1196 52.7642ZM37.1853 43.3455L37.898 44.0583L36.2561 45.7002L35.5434 44.9874L37.1853 43.3455ZM34.2069 46.3239L36.0652 48.1821L40.4436 43.8037L38.5853 41.9455L39.769 40.7618L38.5853 39.5781L37.4017 40.7618L36.5871 39.9472L35.187 41.3472L36.0016 42.1618L34.3597 43.8037L33.5451 42.9891L32.2087 44.3256L33.0232 45.1402L32.005 46.1584L30.9741 45.1274L37.5035 38.598L36.2434 37.3379L33.1887 40.3926L32.0941 39.298L30.554 40.8381L31.6486 41.9327L28.2885 45.2929L31.7377 48.7422C33.6596 50.6641 36.2943 53.5279 36.9816 56.608C37.4907 56.3789 38.4708 56.0862 38.9672 56.048C38.229 52.7896 35.3015 49.4549 33.1887 47.3421L34.2069 46.3239ZM40.9655 46.6166C41.0673 47.3548 41.0418 48.1185 40.9146 48.9076C40.1509 49.0094 39.4254 48.9967 38.7381 48.844L40.9655 46.6166ZM40.8 44.3128L40.6091 44.6056L35.6961 49.5186L36.8798 50.7023L38.3308 49.2513L37.6562 50.4859C38.5599 50.7277 39.4636 50.8423 40.3673 50.8295C39.96 51.8987 39.3872 52.9551 38.6617 53.9861C39.209 54.0243 40.1 54.2534 40.5964 54.4952C41.4109 53.1969 42.0601 51.886 42.4674 50.5368C43.7783 50.2186 45.0893 49.6204 46.4003 48.7422C46.2094 48.1694 46.0312 47.2021 46.0439 46.5784C44.9875 47.3548 43.9311 47.953 42.9128 48.3603C43.0401 46.8584 42.8237 45.3184 42.1364 43.791L40.8 44.3128ZM40.8127 35.8742L48.5259 28.1611L50.1168 29.7521L51.7333 28.1357L48.7295 25.1319L44.0584 29.803L42.8365 28.5811L41.2328 30.1849L42.4546 31.4067L37.8599 36.0015L40.8636 39.0053L42.4037 37.4652L40.8127 35.8742ZM50.2696 31.0504L48.895 29.6757L42.3401 36.2306L43.7147 37.6052L50.2696 31.0504ZM55.1062 36.9307C54.648 37.3889 54.5207 37.4143 54.1134 37.007L51.5551 34.4487L55.0426 30.9613L53.617 29.5357L42.2764 40.8763L43.702 42.3018L46.7185 39.2853C48.1058 41.0545 48.7422 42.6073 46.6039 45.9166C47.2658 45.9166 48.284 46.1457 48.8313 46.3875C51.186 42.3527 50.3078 40.0744 48.3731 37.6307L50.0278 35.9761L52.6115 38.5598C53.9861 39.9344 54.7753 40.0108 56.2517 38.5344L57.8809 36.9052C59.09 35.696 58.9882 34.8305 57.3081 32.8195C56.8117 33.1123 55.9081 33.5323 55.3735 33.6087C56.6463 34.9833 56.7863 35.2506 56.3663 35.6706L55.1062 36.9307ZM59.5737 13.3967L59.3064 13.8677L50.626 22.5481L52.1151 24.0373L59.4973 16.6551C59.5482 17.9788 59.4719 19.4807 59.2428 20.8044L58.39 21.6571L64.1557 27.4229C64.3721 27.6393 64.3467 27.792 64.0667 28.072C63.7866 28.3775 62.7429 29.4212 61.8011 30.2612C62.4502 30.4521 63.4048 30.8467 63.9521 31.2158C65.174 29.9939 66.0522 29.0648 66.4595 28.1993C66.8541 27.3465 66.6631 26.7229 65.7849 25.8446L61.2665 21.3262C61.8393 18.8188 61.8902 15.5859 61.6356 13.0913L59.5737 13.3967Z" fill="white"/>
</svg>
