<svg width="64" height="64" viewBox="0 0 64 64" fill="none" xmlns="http://www.w3.org/2000/svg">
<path d="M64 0H0V64L64 0Z" fill="#999999"/>
<path d="M7.96985 30.5023L6.15965 32.3125L6.79605 32.9489L8.60624 31.1387L7.96985 30.5023ZM11.8377 35.6995L12.6509 36.5127L12.0923 37.0713L11.2791 36.2581L11.8377 35.6995ZM11.8519 34.3701L9.97096 36.251L12.3822 38.6623L13.0327 38.0117L12.7499 37.7289L13.9803 36.4985L11.8519 34.3701ZM9.64569 35.8834L11.5195 34.0095L10.8902 33.3802L9.01637 35.254L9.64569 35.8834ZM8.6911 34.9288L10.5649 33.0549L9.92146 32.4115L8.04763 34.2853L8.6911 34.9288ZM13.457 32.1286L14.1995 31.3862L14.4469 31.6336L13.7045 32.3761L13.457 32.1286ZM12.6792 31.3508L13.4216 30.6083L13.6691 30.8558L12.9267 31.5983L12.6792 31.3508ZM16.3066 31.0043C16.2713 31.2942 16.1864 31.6902 16.0874 32.0579C15.8329 32.0155 15.5925 31.9448 15.352 31.8599L16.8016 30.4103L16.2359 29.8447L15.1965 30.8841L14.949 30.6366L15.6702 29.9154L15.1399 29.385L14.4187 30.1063L14.1712 29.8588L15.0338 28.9961L14.5035 28.4658L13.6408 29.3285L13.1954 28.883L12.4458 29.6325L12.8913 30.078L12.1488 30.8205L11.7034 30.375L11.0811 30.9972C11.1872 30.5093 11.2508 30.0073 11.2013 29.576L10.374 30.0214L11.9579 28.4375L11.7882 29.2153C12.467 28.9608 13.4287 28.7486 13.9732 28.7133L14.1358 27.7304C13.6267 27.787 12.8277 27.9779 12.1701 28.2254L13.2944 27.1011L12.6792 26.4859L11.0245 28.1405L10.4589 27.5748L9.61034 28.4234L10.176 28.9891L8.66988 30.4952L9.28507 31.1104L10.2821 30.1134C10.2821 30.6225 10.0629 31.2942 9.75883 31.9094L9.10829 31.2589L6.77484 33.5923L7.43952 34.257L9.73762 31.9589L9.69519 32.0438C9.97096 32.0084 10.4942 31.9943 10.7558 32.0155C10.8619 31.7538 10.9538 31.4781 11.0316 31.1882L11.4064 31.5629L10.6498 32.3195L11.1801 32.8499L11.9367 32.0933L12.1842 32.3407L11.5761 32.9489L12.1064 33.4792L12.7145 32.8711L12.962 33.1186L11.9721 34.1085L12.5378 34.6742L13.5984 33.6135C13.4711 34.1792 13.2024 34.7873 12.8913 35.353C13.1388 35.3601 13.6408 35.4096 13.8671 35.452C13.9944 35.1833 14.1075 34.9005 14.2136 34.6106L14.652 35.049C14.454 35.3035 14.2843 35.5439 14.1217 35.749L14.949 36.1803C15.4581 35.4732 16.1157 34.5469 16.7309 33.663L16.0662 33.1115C15.7904 33.4863 15.5217 33.8681 15.2601 34.2287L14.4964 33.465C14.5389 33.1963 14.5601 32.9206 14.553 32.6589L14.6308 32.5812C15.9177 33.1893 17.2047 33.3307 18.4492 32.7792C18.3643 32.4822 18.2936 32.0013 18.3148 31.7114C17.8552 31.9448 17.3744 32.072 16.8935 32.1003C17.0208 31.7468 17.1269 31.3579 17.1835 30.9902L16.3066 31.0043ZM15.4298 24.0181C14.9419 24.0535 14.1146 24.3009 13.5418 24.5484L13.7045 25.6586C14.3055 25.4111 15.1541 25.2131 15.6349 25.199L15.4298 24.0181ZM16.9077 26.2596C16.4127 26.3021 15.6066 26.5708 15.0409 26.8395L15.2177 27.9213C15.8187 27.688 16.639 27.4617 17.1198 27.4476L16.9077 26.2596ZM17.5299 27.9991C18.0532 29.1588 18.527 30.4952 18.7744 31.3508L20.0189 31.0538C19.6513 30.0214 19.1775 28.8406 18.6967 27.7941L17.5299 27.9991ZM20.3442 22.7665L20.7402 23.1625L19.828 24.0747L19.432 23.6787L20.3442 22.7665ZM18.6896 24.4212L19.722 25.4535L22.1544 23.0211L21.122 21.9887L21.7796 21.3311L21.122 20.6735L20.4644 21.3311L20.0119 20.8785L19.2341 21.6564L19.6866 22.1089L18.7744 23.0211L18.3219 22.5685L17.5794 23.311L18.032 23.7635L17.4663 24.3292L16.8935 23.7565L20.521 20.129L19.821 19.429L18.1239 21.126L17.5158 20.5179L16.6602 21.3735L17.2683 21.9816L15.4015 23.8484L17.3178 25.7647C18.3855 26.8324 19.8492 28.4234 20.2311 30.1346C20.5139 30.0073 21.0584 29.8447 21.3342 29.8234C20.924 28.0133 19.2977 26.1606 18.1239 24.9868L18.6896 24.4212ZM22.4443 24.5838C22.5009 24.9939 22.4868 25.4182 22.416 25.8566C21.9918 25.9131 21.5887 25.9061 21.2069 25.8212L22.4443 24.5838ZM22.3524 23.3039L22.2463 23.4666L19.5169 26.196L20.1745 26.8536L20.9806 26.0475L20.6058 26.7334C21.1079 26.8677 21.6099 26.9314 22.112 26.9243C21.8857 27.5183 21.5675 28.1052 21.1645 28.6779C21.4685 28.6991 21.9635 28.8264 22.2393 28.9608C22.6918 28.2395 23.0524 27.5112 23.2787 26.7617C24.007 26.5849 24.7354 26.2526 25.4637 25.7647C25.3576 25.4465 25.2586 24.9091 25.2657 24.5626C24.6788 24.9939 24.0919 25.3262 23.5262 25.5525C23.5969 24.7181 23.4767 23.8625 23.0949 23.014L22.3524 23.3039ZM22.3595 18.6158L26.6445 14.3307L27.5284 15.2146L28.4264 14.3166L26.7577 12.6478L24.1626 15.2429L23.4838 14.5641L22.5928 15.455L23.2716 16.1339L20.719 18.6865L22.3878 20.3553L23.2434 19.4997L22.3595 18.6158ZM27.6133 15.9359L26.8496 15.1722L23.208 18.8138L23.9717 19.5775L27.6133 15.9359ZM30.3003 19.2027C30.0457 19.4573 29.975 19.4714 29.7487 19.2451L28.3275 17.8238L30.2649 15.8864L29.473 15.0944L23.1726 21.3947L23.9646 22.1867L25.6404 20.5109C26.4112 21.4937 26.7647 22.3564 25.5768 24.1949C25.9445 24.1949 26.5102 24.3222 26.8142 24.4565C28.1224 22.215 27.6345 20.9493 26.5597 19.5916L27.4789 18.6724L28.9144 20.1078C29.678 20.8715 30.1164 20.9139 30.9367 20.0937L31.8418 19.1886C32.5135 18.5168 32.457 18.036 31.5236 16.9187C31.2478 17.0814 30.7458 17.3147 30.4488 17.3572C31.1559 18.1208 31.2337 18.2693 31.0003 18.5027L30.3003 19.2027ZM32.7822 6.1283L32.6337 6.38993L27.8113 11.2124L28.6386 12.0397L32.7398 7.93849C32.7681 8.67388 32.7257 9.50827 32.5984 10.2437L32.1246 10.7174L35.3278 13.9206C35.448 14.0408 35.4339 14.1257 35.2783 14.2812C35.1227 14.4509 34.5429 15.0308 34.0197 15.4975C34.3803 15.6035 34.9106 15.8227 35.2147 16.0278C35.8935 15.349 36.3814 14.8328 36.6077 14.352C36.8269 13.8782 36.7208 13.5317 36.2329 13.0438L33.7227 10.5336C34.0409 9.14057 34.0692 7.34452 33.9277 5.95859L32.7822 6.1283Z" fill="white"/>
</svg>
