<svg width="351" height="351" viewBox="0 0 351 351" fill="none" xmlns="http://www.w3.org/2000/svg">
<path d="M174.449 136.948L174.441 137.001L174.42 137.152L172.214 152.984L158.705 157.941L158.493 157.839L150.93 154.248L147.019 139.242L146.751 138.212L146.833 138.181L163.564 131.895L174.439 136.942L174.449 136.948Z" fill="#00B0FF"/>
<path d="M158.493 157.839L150.93 154.247L146.751 138.212L146.833 138.18L157.733 142.779L158.493 157.839Z" fill="#00B0FF"/>
<path opacity="0.2" d="M158.682 157.656L152.929 146.631L153.668 143.506L150.188 139.408L149.892 139.66L153.245 143.608L150.74 154.203L151.119 154.292L152.793 147.21L158.338 157.836L158.682 157.656Z" fill="black"/>
<path d="M174.449 137.143L174.42 137.152L157.733 142.974L147.019 139.242L146.751 138.212L146.833 138.181L163.564 131.895L174.439 136.942L174.441 137.001L174.449 137.143Z" fill="#3F3D56"/>
<path d="M158.024 143.265L154.623 140.641L155.4 137.726L165.119 134.227L171.727 134.616L174.352 136.851L174.546 137.434L158.024 143.265Z" fill="#00B0FF"/>
<path d="M146.945 138.212L154.623 137.92L158.782 136.508L165.266 134.227L166.479 132.478L163.453 131.936L146.945 138.212Z" fill="#00B0FF"/>
<path d="M162.242 135.084L158.239 136.489L158.367 136.855L162.371 135.451L162.242 135.084Z" fill="#CCCCCC"/>
<path d="M109.512 112.352L107.635 121.736L116.393 128.305L120.46 116.106L109.512 112.352Z" fill="#9F616A"/>
<path d="M116.55 120.954C121.214 120.954 124.995 117.173 124.995 112.509C124.995 107.845 121.214 104.063 116.55 104.063C111.886 104.063 108.104 107.845 108.104 112.509C108.104 117.173 111.886 120.954 116.55 120.954Z" fill="#9F616A"/>
<path d="M98.2515 176.498C98.2902 179.222 110.157 209.547 108.509 213.495C105.912 216.15 100.325 230.282 97.9386 234.051C97.626 234.051 96.062 238.743 96.062 238.743C96.062 238.743 99.8155 244.686 103.882 242.184C108.995 230.158 121.8 223.451 122.026 207.778C122.644 212.729 124.468 244.51 124.468 244.51C124.468 244.51 124.118 244.658 131.996 245.413C133.219 226.968 138.217 195.587 127.028 175.872C123.588 174.308 98.2515 176.498 98.2515 176.498Z" fill="#2F2E41"/>
<path d="M124.468 243.891C124.102 244.595 121.479 251.086 123.866 251.737C126.618 252.487 129.286 251.435 129.286 251.435C129.286 251.435 134.104 252.941 137.052 251.028C138.428 249.651 138.115 248.401 137.459 247.494C137.125 247.047 136.698 246.678 136.207 246.414C135.716 246.149 135.173 245.995 134.617 245.962C133.12 245.855 132.645 245.578 132.474 244.892C132.224 243.891 124.468 243.891 124.468 243.891Z" fill="#2F2E41"/>
<path d="M98.7312 238.223C98.7312 238.223 92.0085 240.346 93.4238 242.823C94.343 244.358 95.6851 245.595 97.2895 246.387C97.2895 246.387 98.6916 252.168 102.584 252.168C104.53 252.168 105.193 251.062 105.37 249.956C105.45 249.404 105.409 248.842 105.249 248.307C105.089 247.773 104.814 247.28 104.444 246.863C103.461 245.73 103.321 245.198 103.685 244.592C104.216 243.707 98.7312 238.223 98.7312 238.223Z" fill="#2F2E41"/>
<path d="M128.593 177.413C128.593 177.413 127.341 179.916 122.336 178.976C117.332 178.04 97.6273 178.976 97.6273 178.976C97.6273 178.976 98.7203 156.613 96.2181 143.162C93.7158 129.711 103.568 122.048 103.568 122.048L106.697 118.92C109.825 118.61 116.432 128.317 116.432 128.317C118.606 128.682 120.635 137.923 122.367 146.667C122.469 147.167 122.565 147.661 122.662 148.155C123.46 152.232 124.571 156.769 125.236 160.843C125.284 161.132 125.329 161.418 125.372 161.704C126.163 166.995 127.238 172.239 128.593 177.413V177.413Z" fill="#E6E6E6"/>
<path d="M106.67 107.25C106.67 107.25 105.091 103.776 109.196 102.197C109.196 102.197 112.67 96.5131 119.618 100.303C119.618 100.303 124.355 102.197 124.355 107.25C124.355 112.303 125.934 113.25 125.934 113.25C125.934 113.25 123.582 110.838 122.951 108.943C122.319 107.049 117.407 106.619 115.512 108.513C113.618 110.408 108.881 110.092 108.881 110.092L109.197 117.04C109.197 117.04 107.618 112.935 106.986 112.935C106.354 112.935 105.723 107.25 106.67 107.25Z" fill="#2F2E41"/>
<path opacity="0.2" d="M125.236 160.843C117.775 156.787 105.688 147.893 101.789 143.081C96.6486 136.742 102.255 131.925 102.255 131.925C108.612 127.914 116.212 141.675 116.212 141.675L122.366 146.667C122.469 147.167 122.565 147.661 122.662 148.155C123.459 152.232 124.571 156.769 125.236 160.843Z" fill="black"/>
<path d="M147.51 156.169C147.51 156.169 158.603 160.672 160.429 155.61C162.255 150.548 151.671 150.635 151.671 150.635L147.516 151.224L147.51 156.169Z" fill="#9F616A"/>
<path d="M100.834 129.865C100.834 129.865 95.23 134.685 100.366 141.021C105.503 147.358 129.108 160.896 129.108 160.896L144.483 156.739L148.835 157.536L149.655 149.366L143.245 149.992L126.972 146.527L116.596 138.108C116.596 138.108 107.189 125.856 100.834 129.865Z" fill="#E6E6E6"/>
<path opacity="0.2" d="M121.249 187.937L122.229 210.845L119.743 187.937H121.249Z" fill="black"/>
<path d="M227.1 171.549L218.2 173.611C217.511 173.771 216.788 173.656 216.183 173.29C215.578 172.925 215.139 172.338 214.96 171.654V171.654C214.856 171.258 214.844 170.843 214.923 170.441C215.002 170.039 215.172 169.66 215.418 169.332C215.665 169.005 215.982 168.738 216.347 168.551C216.712 168.363 217.114 168.261 217.524 168.252L226.121 168.052L227.1 171.549Z" fill="#FFB9B9"/>
<path d="M226.155 172.855L224.178 166.925L236.029 162.878L232.883 135.18C238.546 136.209 241.241 140.662 240.989 146.412L242.522 165.312L226.155 172.855Z" fill="#3F3D56"/>
<path d="M234.343 129.073H253.704V119.445C253.711 116.844 252.692 114.346 250.868 112.493C249.977 111.579 248.913 110.854 247.737 110.359C246.561 109.864 245.298 109.61 244.023 109.612C241.475 109.617 239.032 110.624 237.221 112.416C235.41 114.208 234.377 116.64 234.346 119.188C234.344 119.276 234.343 119.36 234.343 119.445L234.343 129.073Z" fill="#2F2E41"/>
<path d="M261.799 242.217L255.61 241.507L248.203 191.489L232.883 241.71L226.187 241.913L233.796 180.125L232.68 166.023L251.653 160.037C265.09 169.417 264.812 202.55 261.799 242.217Z" fill="#2F2E41"/>
<path d="M242.319 127.165C246.353 127.165 249.624 123.894 249.624 119.86C249.624 115.825 246.353 112.555 242.319 112.555C238.284 112.555 235.014 115.825 235.014 119.86C235.014 123.894 238.284 127.165 242.319 127.165Z" fill="#FFB9B9"/>
<path d="M249.624 133.049L237.246 136.296C239.332 132.285 239.999 128.541 238.869 125.135L247.595 123.715C247.034 126.972 247.762 130.319 249.624 133.049V133.049Z" fill="#FFB9B9"/>
<path d="M253.783 162.776C246.841 167.191 238.754 172.263 232.782 167.342L229.941 153.543C227.683 151.532 228.684 145.327 231.737 136.481C231.93 135.92 232.25 135.41 232.67 134.99C233.09 134.57 233.6 134.252 234.162 134.058L238.869 132.44C240.955 134.195 244.375 133.148 248.406 130.817L253.073 132.034L255.102 147.253C252.173 151.642 252.685 157.485 253.783 162.776Z" fill="#3F3D56"/>
<path d="M248 168.708L239.1 170.771C238.411 170.93 237.688 170.815 237.083 170.449C236.478 170.084 236.039 169.497 235.86 168.813C235.756 168.417 235.743 168.002 235.823 167.6C235.902 167.198 236.071 166.819 236.318 166.492C236.565 166.164 236.882 165.897 237.247 165.71C237.612 165.523 238.014 165.421 238.424 165.411L247.021 165.211L248 168.708Z" fill="#FFB9B9"/>
<path d="M260.723 251.78C259.683 252.255 258.813 249.314 257.936 250.176C255.483 252.586 249.6 252.046 249.6 252.046C249.402 251.982 249.22 251.879 249.063 251.743C248.907 251.607 248.779 251.441 248.689 251.254C248.599 251.067 248.547 250.864 248.538 250.657C248.528 250.449 248.561 250.242 248.634 250.048V250.048C248.721 249.816 248.863 249.608 249.049 249.442C249.234 249.277 249.456 249.159 249.697 249.099L252.306 248.447L256.401 241.245L260.864 240.68L260.977 240.865C261.839 242.255 262.396 243.814 262.608 245.436C262.821 247.059 262.685 248.708 262.21 250.274C261.839 251.463 261.333 251.501 260.723 251.78Z" fill="#2F2E41"/>
<path d="M231.3 251.78C230.261 252.255 229.39 249.314 228.513 250.176C226.061 252.586 220.178 252.046 220.178 252.046C219.98 251.982 219.798 251.879 219.641 251.743C219.484 251.607 219.357 251.441 219.267 251.254C219.176 251.067 219.125 250.864 219.115 250.657C219.106 250.449 219.139 250.242 219.211 250.048V250.048C219.299 249.816 219.441 249.608 219.626 249.442C219.811 249.277 220.034 249.159 220.275 249.099L222.883 248.447L226.978 241.245L231.442 240.68L231.554 240.865C232.417 242.255 232.973 243.814 233.186 245.436C233.399 247.059 233.263 248.708 232.787 250.274C232.416 251.463 231.911 251.501 231.3 251.78Z" fill="#2F2E41"/>
<path d="M250.883 113.767L249.043 119.62L233.136 119.337C233.191 117.289 233.883 115.31 235.118 113.674C236.352 112.039 238.066 110.83 240.021 110.217C241.975 109.603 244.073 109.616 246.02 110.252C247.968 110.888 249.668 112.117 250.883 113.767H250.883Z" fill="#2F2E41"/>
<path d="M247.055 170.014L245.079 164.084L256.929 160.037L252.446 131.739C255.185 132.236 257.65 133.709 259.386 135.885C261.122 138.06 262.011 140.791 261.889 143.571L263.422 162.472L247.055 170.014Z" fill="#3F3D56"/>
<path d="M218.751 154.027L206.425 156.678L203.907 144.551L208.546 138.322L212.72 137.527L217.359 142.232L218.751 154.027Z" fill="#CCCCCC"/>
<path d="M213.052 154.556H205.63L204.618 149.561L203.51 144.087L205.166 141.702L208.349 142.695L211.794 147.468L212.658 152.331L212.718 152.677L213.052 154.556Z" fill="#E6E6E6"/>
<path d="M225.51 151.642L216.962 152.636L218.486 141.768L221.932 138.654L224.914 139.383L226.902 143.955L225.51 151.642Z" fill="#CCCCCC"/>
<path d="M226.636 145.213L225.841 149.588L223.257 164.496L213.318 167.678L212.974 167.492L207.618 164.562L204.604 149.555L204.619 149.561L212.589 152.767L212.658 152.331L212.706 152.015L213.318 148.13L216.034 145.213L225.112 143.026L226.636 145.213Z" fill="#E6E6E6"/>
<path d="M220.341 144.75C221.512 144.75 222.462 143.801 222.462 142.63C222.462 141.458 221.512 140.509 220.341 140.509C219.17 140.509 218.221 141.458 218.221 142.63C218.221 143.801 219.17 144.75 220.341 144.75Z" fill="#E6E6E6"/>
<path d="M215.128 143.724L210.291 144.586L210.314 144.716L215.151 143.855L215.128 143.724Z" fill="white"/>
<path d="M212.974 167.492L207.617 164.562L204.603 149.555L204.618 149.561L203.51 144.087L205.166 141.702L208.349 142.695L211.794 147.468L212.658 152.331L212.706 152.015L212.718 152.677L212.751 154.556L212.974 167.492Z" fill="#F2F2F2"/>
<path d="M207.682 164.581L207.554 164.546L210.196 154.638L207.171 150.649L207.277 150.569L210.341 154.609L207.682 164.581Z" fill="#CCCCCC"/>
<path d="M209.175 158.924L209.055 158.981L213.258 167.707L213.377 167.649L209.175 158.924Z" fill="#CCCCCC"/>
<path opacity="0.2" d="M226.114 148.68L225.616 151.429L225.591 151.432L223.363 164.285L213.423 167.465L213.364 167.494L213.324 167.411L207.725 164.351L207.66 164.334L207.695 164.204L204.709 149.342L204.725 149.348L204.394 147.716L204.641 147.36L205.405 146.26L208.586 147.254L212.032 152.025L212.082 152.309L212.444 154.345L212.589 155.162L212.896 156.89L213.187 155.034L213.292 154.366L213.556 152.688L216.273 149.772L217.481 149.482L218.322 149.279L219.479 149C219.12 148.782 218.834 148.463 218.657 148.082C218.48 147.701 218.42 147.276 218.485 146.861C218.55 146.446 218.736 146.06 219.021 145.751C219.305 145.443 219.675 145.225 220.083 145.127C220.492 145.028 220.92 145.054 221.314 145.199C221.708 145.344 222.05 145.603 222.296 145.943C222.543 146.283 222.683 146.688 222.699 147.108C222.715 147.528 222.606 147.942 222.386 148.3L225.351 147.586L226.082 148.635L226.114 148.68Z" fill="black"/>
<path d="M213.291 159.779H205.869L203.749 149.309L205.405 146.923L208.586 147.917L212.032 152.688L213.291 159.779Z" fill="#E6E6E6"/>
<path d="M223.496 169.719L213.556 172.899L207.857 169.785L204.842 154.776L212.827 157.989L213.556 153.351L216.273 150.435L225.351 148.249L226.875 150.435L226.08 154.809L223.496 169.719Z" fill="#E6E6E6"/>
<path d="M220.58 149.971C221.751 149.971 222.7 149.022 222.7 147.851C222.7 146.68 221.751 145.73 220.58 145.73C219.409 145.73 218.459 146.68 218.459 147.851C218.459 149.022 219.409 149.971 220.58 149.971Z" fill="#E6E6E6"/>
<path d="M213.218 172.611L207.861 169.681L204.847 154.674L204.862 154.68L203.754 149.205L205.41 146.821L208.593 147.814L212.037 152.587L212.902 157.45L212.95 157.134L212.962 157.796L212.995 159.675L213.218 172.611Z" fill="#F2F2F2"/>
<path d="M207.921 169.802L207.793 169.768L210.435 159.859L207.409 155.87L207.515 155.79L210.58 159.831L207.921 169.802Z" fill="#CCCCCC"/>
<path d="M209.413 164.145L209.293 164.203L213.496 172.928L213.616 172.87L209.413 164.145Z" fill="#CCCCCC"/>
<path d="M296.437 239.045L284.112 241.695L281.594 229.569L286.232 223.34L290.407 222.544L295.046 227.249L296.437 239.045Z" fill="#CCCCCC"/>
<path d="M290.739 239.574H283.317L282.305 234.578L281.197 229.104L282.853 226.719L286.036 227.713L289.48 232.485L290.345 237.348L290.405 237.695L290.739 239.574Z" fill="#E6E6E6"/>
<path d="M303.197 236.659L294.648 237.653L296.173 226.786L299.618 223.671L302.6 224.4L304.588 228.972L303.197 236.659Z" fill="#CCCCCC"/>
<path d="M304.322 230.23L303.527 234.605L300.944 249.513L291.004 252.696L290.661 252.509L285.304 249.579L282.29 234.572L282.305 234.578L290.275 237.785L290.345 237.348L290.393 237.032L291.004 233.148L293.72 230.23L302.799 228.044L304.322 230.23Z" fill="#E6E6E6"/>
<path d="M298.028 229.767C299.199 229.767 300.148 228.818 300.148 227.647C300.148 226.476 299.199 225.526 298.028 225.526C296.857 225.526 295.907 226.476 295.907 227.647C295.907 228.818 296.857 229.767 298.028 229.767Z" fill="#E6E6E6"/>
<path d="M292.814 228.741L287.977 229.603L288 229.733L292.838 228.872L292.814 228.741Z" fill="white"/>
<path d="M290.661 252.509L285.304 249.579L282.29 234.572L282.305 234.578L281.197 229.104L282.853 226.719L286.036 227.713L289.48 232.485L290.345 237.348L290.393 237.032L290.405 237.695L290.438 239.574L290.661 252.509Z" fill="#F2F2F2"/>
<path d="M285.369 249.598L285.241 249.564L287.883 239.655L284.857 235.667L284.963 235.587L288.028 239.627L285.369 249.598Z" fill="#CCCCCC"/>
<path d="M286.861 243.941L286.742 243.999L290.944 252.724L291.064 252.667L286.861 243.941Z" fill="#CCCCCC"/>
<path d="M320.793 251.54H312.663L311.458 235.882H321.997L320.793 251.54Z" fill="#E6E6E6"/>
<path d="M322.148 242.205H311.308V244.614H322.148V242.205Z" fill="#F2F2F2"/>
<path d="M324.933 237.006L323.2 236.495L323.177 235.861L315.475 233.592L315.112 234.113L313.379 233.603L312.291 235.165L325 238.909L324.933 237.006Z" fill="#CCCCCC"/>
<path d="M69.9639 231.777L69.9561 231.83L69.9347 231.982L67.7284 247.813L54.2194 252.77L54.0077 252.669L46.4444 249.077L42.5336 234.071L42.2656 233.041L42.3472 233.01L59.0787 226.724L69.9539 231.772L69.9639 231.777Z" fill="#00B0FF"/>
<path d="M54.0077 252.669L46.4444 249.077L42.2656 233.041L42.3472 233.01L53.2477 237.609L54.0077 252.669Z" fill="#00B0FF"/>
<path opacity="0.2" d="M54.1971 252.485L48.444 241.461L49.183 238.335L45.703 234.237L45.4067 234.489L48.7593 238.437L46.255 249.032L46.6335 249.121L48.3073 242.039L53.8523 252.665L54.1971 252.485Z" fill="black"/>
<path d="M69.9639 231.972L69.9347 231.982L53.2477 237.803L42.5336 234.071L42.2656 233.041L42.3472 233.01L59.0787 226.724L69.9539 231.772L69.9561 231.83L69.9639 231.972Z" fill="#3F3D56"/>
<path d="M53.5389 238.095L50.1372 235.471L50.9147 232.555L60.6333 229.056L67.2421 229.445L69.8663 231.68L70.0605 232.263L53.5389 238.095Z" fill="#00B0FF"/>
<path d="M42.4595 233.041L50.1372 232.749L54.2964 231.338L60.7811 229.056L61.994 227.307L58.9679 226.765L42.4595 233.041Z" fill="#00B0FF"/>
<path d="M57.7562 229.913L53.7529 231.318L53.8816 231.685L57.8849 230.28L57.7562 229.913Z" fill="#CCCCCC"/>
<path d="M35.8398 251.9H27.7098L26.5054 236.242H37.0442L35.8398 251.9Z" fill="#00B0FF"/>
<path d="M37.195 242.565H26.355V244.974H37.195V242.565Z" fill="#E6E6E6"/>
<path d="M37.6466 235.339H35.84L35.6391 234.736H27.6097L27.4089 235.339H25.6022L25 237.145H38.2489L37.6466 235.339Z" fill="#3F3D56"/>
<path d="M268.399 251.715H85.8975V252.317H268.399V251.715Z" fill="#3F3D56"/>
</svg>
