<svg width="351" height="351" viewBox="0 0 351 351" fill="none" xmlns="http://www.w3.org/2000/svg">
<g clip-path="url(#clip0)">
<path d="M122.557 214.818L129.989 234.411L171.621 221.799L177.895 212.405C177.992 212.26 178.201 212.212 178.345 212.324L182.222 215.059C182.351 215.139 182.399 215.3 182.335 215.445L181.08 218.389L199.113 213.241C199.274 213.193 199.435 213.273 199.499 213.434L203.376 223.553C203.457 223.746 203.425 223.971 203.296 224.148L196.041 230.905C195.976 230.937 195.912 230.953 195.848 230.953L177.332 232.899L126.144 254.439C121.205 256.515 115.511 254.166 113.468 249.211L102.384 222.202" fill="#FFDB6E"/>
<path d="M120.884 146.031C120.884 146.031 115.012 147.688 115.447 139.902H121.447L120.884 146.031Z" fill="white"/>
<path d="M106.181 227.832C106.181 227.832 116.75 227.977 126.45 225.194L125.742 222.652L106.181 227.832Z" fill="#FFC63B"/>
<path d="M138.305 232.32C138.305 232.32 133.672 239.961 131.227 241.168C128.637 242.455 120.884 243.42 120.884 243.42L119.838 254.97L139.737 252.01V231.886L138.305 232.32Z" fill="#FFC63B"/>
<path d="M128.592 116.105C129.378 109.927 126.821 104.512 122.881 104.011C118.941 103.511 115.111 108.113 114.326 114.291C113.54 120.469 116.097 125.884 120.037 126.385C123.977 126.885 127.807 122.283 128.592 116.105Z" fill="#223851"/>
<path d="M81.8899 170.965C81.0212 170.338 78.7047 167.523 78.0291 166.542C57.245 171.577 55.6524 197.01 55.6524 197.01C55.6524 197.01 51.9042 244.466 40 262.161C40 262.161 42.1074 275.047 50.4564 282.334C73.7017 302.619 109.656 290.956 109.656 290.956C131.373 246.074 115.447 189.932 115.447 189.932" fill="#6998FF"/>
<path d="M98.0409 244.466C98.0409 244.466 110.46 246.991 121.077 235.65C121.077 235.65 121.013 249.42 119.838 258.139C118.68 266.875 94.2927 258.139 94.2927 258.139L98.0409 244.466Z" fill="#4E88F1"/>
<path d="M102.979 170.467V157.436C88.662 151.162 83.2407 153.093 83.2407 153.093V166.799" fill="#FFDB6E"/>
<path d="M123.329 115.128L122.525 125.424C122.525 125.424 124.777 132.18 124.938 135.88C124.938 135.88 123.811 136.363 121.72 136.202V139.339C121.72 139.644 121.463 139.902 121.157 139.902H119.951H115.446C115.446 139.902 115.125 145.049 118.181 145.693C118.181 145.693 119.018 145.982 120.449 145.886C120.932 145.854 121.238 146.385 120.964 146.771C120.642 147.157 120.755 147.012 120.401 147.382C114.562 153.64 106.824 157.436 98.314 157.436C80.1681 157.436 65.4648 140.095 65.4648 118.699C65.4648 97.3039 80.1681 79.9624 98.314 79.9624C100.968 79.9624 103.542 81.5872 106.003 82.295C117.264 85.4802 126.273 94.2474 129.683 107.181" fill="#FFDB6E"/>
<path d="M102.979 165.19C95.2574 163.791 89.1123 155.908 89.1123 155.908C89.1123 155.908 96.9787 158.386 102.979 157.083" fill="#FFC63B"/>
<path d="M88.292 135.333C88.292 135.333 84.222 142.057 83.5142 151.774C83.4016 153.254 82.2273 146.851 82.2273 146.851L79.8625 134.175L88.292 135.333Z" fill="#FFC63B"/>
<path d="M115.64 99.8297C105.506 104.044 97.8645 113.857 96.658 125.713C96.658 125.713 91.4137 119.745 83.9977 120.163C76.5817 120.582 76.2439 130.941 83.2416 135.253L83.7082 153.415L77.4343 154.702C63.3102 148.991 53.3042 134.561 53.3042 117.67C53.3042 95.7598 70.147 78 90.9311 78C95.4515 78 102.144 79.4639 106.423 81.523L109.576 81.7C121.319 83.9521 129.684 96.0172 130.006 108.887C130.135 113.873 128.88 120.469 124.215 125.295C124.215 125.295 126.805 121.096 122.992 109.273C122.011 106.232 115.64 99.8297 115.64 99.8297Z" fill="#2D476D"/>
<path d="M95.8537 163.597C91.1564 161.796 86.6199 160.991 83.2578 161.168V165.705C79.1718 166.107 78.2387 166.445 78.0779 166.525C79.5418 169.678 84.5448 173.443 91.1081 175.952C99.7628 179.282 107.838 179.202 109.141 175.791C110.444 172.397 104.492 166.927 95.8537 163.597Z" fill="#FFDB6E"/>
<path d="M114.321 98.6394C114.321 98.6394 122.429 106.828 123.088 118.217L123.329 115.144L124.632 113.52C124.632 113.504 121.656 102.597 114.321 98.6394Z" fill="#FFC63B"/>
<path d="M120.353 223.698L129.635 221.237L117.924 179.926C116.315 174.858 113.741 170.467 102.995 166.365L103.011 167.909C106.679 171.175 108.497 174.376 107.467 176.435C105.73 179.877 96.7858 178.398 87.1016 173.974" fill="#6998FF"/>
<path d="M114.047 120.099C112.615 118.812 109.446 119.536 109.414 119.552L109.221 118.764C109.365 118.731 112.824 117.927 114.578 119.504L114.047 120.099Z" fill="#152338"/>
<path d="M113.902 127.628C113.87 127.628 113.854 127.628 113.821 127.628C113.371 127.596 113.049 127.193 113.098 126.759C113.258 124.989 113.194 123.638 113.13 122.753C113.098 122.303 113.435 121.933 113.87 121.901C114.32 121.869 114.69 122.206 114.722 122.641C114.787 123.574 114.851 125.022 114.674 126.904C114.658 127.322 114.304 127.628 113.902 127.628Z" fill="#152338"/>
<path d="M87.3755 266.794C96.2071 273.888 104.765 271.685 117.329 268.483L120.772 245.511L87.3755 266.794Z" fill="#4E88F1"/>
<path d="M115.977 191.202C115.977 191.202 119.42 199.197 121.961 208.817C123.2 213.499 124.696 222.571 124.696 222.571L120.69 223.714L115.977 191.202Z" fill="#4E88F1"/>
<path d="M84.9489 134.653C88.0051 134.419 90.2365 131.006 89.9329 127.028C89.6293 123.051 86.9055 120.015 83.8493 120.249C80.793 120.482 78.5616 123.895 78.8652 127.873C79.1689 131.851 81.8926 134.886 84.9489 134.653Z" fill="#FFDB6E"/>
<path d="M69.4224 236.841L70.7576 242.777L106.293 232.61L93.0216 187.245C93.0216 187.245 88.646 176.274 78.7527 178.446L69.4224 236.841Z" fill="#4E88F1"/>
<path d="M70.0824 239.688L60.0282 195.771C58.2426 186.698 63.9051 177.963 72.6724 176.242C81.4397 174.52 89.9817 180.472 91.7673 189.545L103.478 230.856L70.0824 239.688Z" fill="#6998FF"/>
<path d="M221.732 169.18C228.826 166.59 223.887 151.436 222.97 148.508C222.053 145.58 212.144 128.335 217.115 108.147C221.555 90.1454 235.888 75.3617 252.216 79.9947C252.28 80.0108 253.213 80.3647 253.213 80.3647L255.996 79.7856C277.746 72.82 294.009 97.2397 294.009 121.804C294.009 127.885 293.672 131.955 291.757 139.886C291.757 139.886 285.419 167.008 292.079 171.03" fill="#2D476D"/>
<path d="M226.317 144.358C226.317 144.358 230.484 161.78 237.401 169.485L251.525 169.936L250.109 159.656L226.317 144.358Z" fill="#223851"/>
<path d="M249.627 157.211L252.04 171.995L274.995 168.07L268.191 151.114L249.627 157.211Z" fill="#FFDB6E"/>
<path d="M283.377 168.198C276.524 181.052 265.52 188.484 256.496 185.411C250.27 183.288 246.329 176.628 245.283 167.973C245.283 167.973 253.182 163.791 283.377 168.198Z" fill="#FFDB6E"/>
<path d="M269.607 153.334L250.11 159.64L251.155 166.542L249.193 166.928L248.437 172.912C248.437 172.896 270.668 172.896 269.607 153.334Z" fill="#FFC63B"/>
<path d="M251.621 160.107C268.155 160.107 281.558 144.975 281.558 126.308C281.558 107.642 268.155 92.5101 251.621 92.5101C235.087 92.5101 221.684 107.642 221.684 126.308C221.684 144.975 235.087 160.107 251.621 160.107Z" fill="#FFDB6E"/>
<path d="M247.792 159.528C236.547 155.522 230.708 148.749 225.303 137.971C223.662 134.706 223.968 143.296 230.998 151.114C239.379 160.444 247.792 159.528 247.792 159.528Z" fill="#FFC63B"/>
<path d="M255.385 101.68C255.385 101.68 261.193 112.297 265.182 132.791C267.515 144.744 265.456 155.651 265.15 156.117C265.15 156.117 280.465 150.712 279.644 131.553C278.759 111.38 255.385 101.68 255.385 101.68Z" fill="#FFC63B"/>
<path d="M279.645 167.249C279.645 167.249 286.047 159.737 286.836 154.235C286.836 154.235 287.913 167.298 291.259 170.676L279.645 167.249Z" fill="#223851"/>
<path d="M232.703 197.01C232.703 197.01 231.496 220.143 236.226 246.284C236.226 246.284 234.376 262.692 233.169 277.942C233.169 277.942 255.948 303.182 308.761 280.854C308.761 280.854 307.796 266.135 306.493 256.338C305.833 251.383 304.514 233.672 303.565 219.467" fill="#6998FF"/>
<path d="M267.338 215.67C275.787 215.67 282.637 208.821 282.637 200.372C282.637 191.923 275.787 185.073 267.338 185.073C258.889 185.073 252.04 191.923 252.04 200.372C252.04 208.821 258.889 215.67 267.338 215.67Z" fill="#6998FF"/>
<path d="M275.478 190.672C275.478 190.672 268.946 203.798 265.456 213.804C261.482 225.178 260.614 229.28 260.614 229.28C260.614 229.28 262.383 229.746 265.568 230.921" fill="#4E88F1"/>
<path d="M233.058 219.419L219.143 234.202C219.143 234.202 191.296 219.756 195.881 211.777C209.925 187.39 226.961 177.127 226.961 177.127C232.414 172.558 241.181 168.649 250.85 166.542C250.85 166.542 248.839 168.842 248.71 171.046C248.34 177.432 250.994 183.384 256.496 185.315C262.979 187.583 270.315 183.368 272.953 175.92C274.047 172.831 278.31 166.976 278.31 166.976L279.629 167.265C287.576 168.922 293.962 171.673 300.493 174.842C309.212 178.703 311.513 189.047 309.068 199.986L297.067 242.567L262.352 229.779L275.462 190.688" fill="#6998FF"/>
<path d="M295.972 172.896C289.441 169.711 287.591 168.906 279.644 167.249L278.325 166.96C278.325 166.96 273.885 172.88 272.582 176.917C272.582 176.917 276.459 175.582 284.019 174.231C289.778 173.217 295.972 172.896 295.972 172.896Z" fill="#4E88F1"/>
<path d="M229.421 175.261C234.875 170.692 241.486 168.649 251.155 166.542C251.155 166.542 249.289 166.895 248.436 172.896C248.436 172.896 236.371 171.368 229.421 175.261Z" fill="#4E88F1"/>
<path d="M232.574 197.927C232.574 197.927 225.834 217.392 224.209 224.695C222.584 231.998 223.115 229.988 223.115 229.988L233.057 219.419L232.574 197.927Z" fill="#4E88F1"/>
<path d="M248.645 94.1349C233.282 96.9018 216.021 129.783 232.172 160.847C232.172 160.847 215.345 139.837 217.694 121.836C220.042 103.835 230.048 83.0833 249.626 88.7619C249.626 88.7619 275.397 83.2763 283.36 109.916C291.323 136.556 286.175 155.522 286.175 155.522C280.818 169.469 269.831 179.395 256.897 180.649L259.825 177.995C276.603 167.49 272.373 112.345 247.792 94.167" fill="#2D476D"/>
<path d="M237.401 142.074H242.934C242.934 142.074 244.012 147.817 240.634 147.817" fill="white"/>
<path d="M239.492 138.358C238.35 138.358 237.867 138.068 237.803 138.02L237.674 137.923L237.642 137.762C237.224 135.43 238.478 129.574 238.543 129.317L239.283 129.478C239.267 129.542 238.06 135.108 238.366 137.425C238.639 137.521 239.315 137.666 240.602 137.489L240.714 138.245C240.232 138.325 239.83 138.358 239.492 138.358Z" fill="#152338"/>
<path d="M232.815 130.218C232.477 130.218 232.172 130.008 232.059 129.671C231.4 127.772 231.174 125.906 231.158 125.826C231.11 125.392 231.416 124.989 231.866 124.925C232.3 124.877 232.703 125.182 232.767 125.633C232.767 125.649 232.992 127.418 233.587 129.14C233.732 129.558 233.507 130.025 233.089 130.169C232.992 130.202 232.896 130.218 232.815 130.218Z" fill="#152338"/>
<path d="M252.152 129.976C251.798 129.976 251.477 129.735 251.38 129.381C250.946 127.74 250.753 125.488 250.753 125.392C250.721 124.941 251.042 124.555 251.493 124.523C251.943 124.491 252.329 124.813 252.361 125.263C252.361 125.279 252.538 127.467 252.94 128.963C253.053 129.397 252.796 129.832 252.377 129.944C252.297 129.96 252.233 129.976 252.152 129.976Z" fill="#152338"/>
<path d="M229.02 122.946L228.328 122.625C228.36 122.56 229.036 121.161 230.5 120.662C231.433 120.356 232.462 120.485 233.54 121.064L233.186 121.74C232.302 121.257 231.481 121.145 230.741 121.386C229.599 121.772 229.036 122.93 229.02 122.946Z" fill="#152338"/>
<path d="M255.063 122.544C252.634 118.7 248.983 120.582 248.822 120.662L248.468 119.986C248.516 119.97 252.892 117.686 255.707 122.126L255.063 122.544Z" fill="#152338"/>
<path d="M183.623 169.179L143.551 252.01L213.271 193.969L183.623 169.179Z" fill="#ACC5E9"/>
<path d="M184.845 196.784L188.094 178.204L196.283 179.765L196.653 180.07L195.237 197.026L184.845 196.784Z" fill="#9CBDE5"/>
<path d="M185.537 145.965L180.874 146.092L183.212 231.639L187.875 231.512L185.537 145.965Z" fill="#96ABC0"/>
<path d="M199.082 150.123L194.438 149.685L186.409 234.89L191.054 235.328L199.082 150.123Z" fill="#96ABC0"/>
<path d="M194.432 149.699L195.783 149.811L192.743 197.139H191.649L194.432 149.699Z" fill="#7D95AA"/>
<path d="M195.015 139.953L190.358 139.679L185.335 225.115L189.992 225.389L195.015 139.953Z" fill="#96ABC0"/>
<path d="M182.352 231.291L150.565 236.31L138.306 165.415L140.816 162.182L159.509 159.656L161.809 164.997L163.434 159.045L165.187 160.557L166.651 158.53L170.142 157.983L182.352 231.291Z" fill="#FFDB6E"/>
<path d="M212.289 197.01H139.738V262.483H212.289V197.01Z" fill="#CDAD61"/>
<path d="M212.29 255.212L208.831 255.694L191.473 253.635L186.1 247.056L189.092 238.079L212.29 252.3V255.212Z" fill="#B69651"/>
<path d="M139.738 260.407C140.864 260.407 147.813 257.898 147.813 257.898H166.651L175.531 251.013L173.118 244.16L139.738 253.249V260.407Z" fill="#B69651"/>
<path d="M183.125 262.483H168.904V219.853L170.384 221.027L171.622 219.853L173.038 221.027L174.438 219.853L175.869 221.027L177.237 219.853L178.733 221.027L180.181 219.853L181.645 221.027L183.125 219.853V262.483Z" fill="#FFDB6E"/>
<path d="M168.904 256.176L175.548 251.029L173.135 244.176L168.904 245.334" fill="#FFC63B"/>
<path d="M94.9038 233.125L100.486 253.33L143.116 244.643L150.242 235.875C150.355 235.731 150.564 235.715 150.709 235.827L154.312 238.916C154.425 239.012 154.457 239.173 154.393 239.318L152.88 242.133L171.316 238.691C171.477 238.658 171.638 238.755 171.686 238.916L174.598 249.356C174.662 249.565 174.614 249.791 174.469 249.951L166.602 255.984C166.538 256 166.474 256.016 166.409 256.016L147.797 256.241L94.8234 272.939C89.7078 274.548 84.2544 271.685 82.6939 266.553L74.168 238.642" fill="#FFDB6E"/>
<path d="M75.3418 238.305C75.3418 238.305 85.9108 238.449 95.6111 235.666L94.9033 233.125L75.3418 238.305Z" fill="#FFC63B"/>
<path d="M265.552 230.937L256.898 244.932L215.716 239.205L207.544 231.661C207.286 231.435 206.9 231.435 206.659 231.677L203.811 234.411C203.586 234.621 203.554 234.974 203.731 235.232L205.275 237.532L190.717 234.894C190.395 234.83 190.089 235.023 189.993 235.328L186.695 245.399C186.631 245.608 186.663 245.849 186.808 246.01L191.698 251.849C191.795 251.978 191.939 252.059 192.1 252.075L208.911 254.472L215.716 253.329L261.885 262.032C265.263 262.676 268.721 261.469 270.974 258.863L288.009 239.205" fill="#FFDB6E"/>
<path d="M287.993 239.205L286.175 241.811C286.175 241.811 267.836 236.149 264.49 232.626L265.536 230.921L287.993 239.205Z" fill="#FFC63B"/>
</g>
<path d="M58.92 26.76L59.016 28.808C59.528 28.744 60.056 28.696 60.456 28.664C61.112 28.6 63.08 28.504 63.736 28.456C62.744 29.336 60.664 31.16 59.24 32.088C58.392 32.184 57.272 32.328 56.424 32.408L56.616 34.344C58.216 34.072 60.008 33.832 61.48 33.704C60.872 34.264 60.312 35.256 60.312 36.232C60.312 38.904 62.696 40.136 66.792 39.96L67.224 37.864C66.616 37.912 65.672 37.912 64.776 37.816C63.352 37.656 62.36 37.16 62.36 35.896C62.36 34.584 63.576 33.544 65.048 33.352C66.024 33.208 67.624 33.224 69.16 33.304V31.416C67.208 31.416 64.552 31.592 62.408 31.8C63.512 30.952 65.08 29.624 66.216 28.712C66.552 28.44 67.144 28.056 67.48 27.832L66.216 26.36C65.992 26.44 65.624 26.504 65.112 26.568C64.136 26.664 61.128 26.808 60.44 26.808C59.896 26.808 59.432 26.792 58.92 26.76ZM85.832 33.368C85.832 29.88 83.336 27.128 79.368 27.128C75.224 27.128 72.024 30.28 72.024 33.976C72.024 36.68 73.496 38.632 75.272 38.632C77.016 38.632 78.392 36.648 79.352 33.416C79.816 31.912 80.088 30.44 80.312 29.08C82.472 29.448 83.672 31.096 83.672 33.304C83.672 35.64 82.072 37.112 80.024 37.592C79.592 37.688 79.144 37.784 78.536 37.848L79.736 39.752C83.768 39.128 85.832 36.744 85.832 33.368ZM74.072 33.768C74.072 32.008 75.496 29.672 78.136 29.128C77.96 30.456 77.656 31.816 77.288 33C76.632 35.16 76.008 36.168 75.336 36.168C74.712 36.168 74.072 35.384 74.072 33.768ZM96.04 31.608V29.944C96.376 29.464 96.696 28.968 96.968 28.472H101.944V26.52H88.072V28.472H94.456C92.968 30.92 90.472 33.4 87.56 34.76C87.976 35.192 88.568 35.976 88.872 36.488C90.792 35.496 92.504 34.104 93.96 32.552V40.36H96.04V32.072C97.768 33.4 99.944 35.224 100.936 36.408L102.552 34.952C101.4 33.688 98.936 31.848 97.224 30.616L96.04 31.608ZM112.12 33.928V31.96H115.496V33.928H112.12ZM107.144 33.928C107.176 33.336 107.192 32.76 107.192 32.248V31.96H110.2V33.928H107.144ZM110.2 28.328V30.184H107.192V28.328H110.2ZM115.496 30.184H112.12V28.328H115.496V30.184ZM117.384 26.52H105.304V32.232C105.304 34.472 105.16 37.32 103.416 39.24C103.848 39.464 104.616 40.12 104.92 40.472C106.072 39.224 106.648 37.464 106.936 35.72H110.2V40.184H112.12V35.72H115.496V38.12C115.496 38.408 115.384 38.504 115.08 38.504C114.792 38.504 113.736 38.52 112.84 38.472C113.08 38.968 113.384 39.784 113.448 40.296C114.888 40.312 115.864 40.28 116.52 39.96C117.16 39.672 117.384 39.16 117.384 38.136V26.52ZM129.8 30.056H124.2V27.896H129.8V30.056ZM131.736 26.072H122.36V31.864H131.736V26.072ZM124.344 35.016V37.768H121.96V35.016H124.344ZM120.168 40.392H121.96V39.592H124.344V40.312H126.248V33.192H120.168V40.392ZM129.432 37.768V35.016H131.976V37.768H129.432ZM127.608 33.192V40.392H129.432V39.592H131.976V40.328H133.896V33.192H127.608ZM139.08 40.104L140.792 38.632C139.992 37.64 138.44 36.056 137.304 35.128L135.64 36.568C136.744 37.528 138.104 38.904 139.08 40.104ZM153.896 29.656H164.104V31.864H165.976V27.976H163.848C164.28 27.416 164.76 26.776 165.192 26.168L163.128 25.544C162.824 26.296 162.28 27.224 161.752 27.976H159.336L160.104 27.672C159.896 27.032 159.368 26.056 158.856 25.368L157.176 25.976C157.56 26.584 157.96 27.352 158.184 27.976H155.672L156.248 27.704C155.992 27.08 155.352 26.232 154.792 25.608L153.176 26.328C153.56 26.824 153.992 27.448 154.28 27.976H152.104V31.864H153.896V29.656ZM166.136 34.472H160.088C161.4 33.72 162.648 32.696 163.56 31.72L162.36 30.792L161.944 30.888H154.76V32.536H160.184C159.8 32.856 159.368 33.16 158.952 33.416H158.04V34.472H151.896V36.216H158.04V38.296C158.04 38.52 157.96 38.584 157.624 38.584C157.304 38.6 156.12 38.6 155.096 38.552C155.384 39.064 155.752 39.864 155.88 40.408C157.24 40.408 158.232 40.376 158.984 40.104C159.768 39.832 159.976 39.336 159.976 38.344V36.216H166.136V34.472ZM179.704 29.96V35.736C178.824 34.632 177.112 33 175.752 31.768C175.88 31.144 175.944 30.552 175.976 29.96H179.704ZM170.36 29.96H174.008C173.928 31.928 173.384 34.296 170.36 35.864V29.96ZM181.592 28.104H175.992V25.448H174.024V28.104H168.456V40.424H170.36V35.912C170.824 36.264 171.416 36.936 171.688 37.32C173.432 36.296 174.504 34.984 175.128 33.64C176.296 34.808 177.496 36.104 178.136 36.984L179.704 35.768V38.168C179.704 38.456 179.608 38.536 179.304 38.552C179 38.552 177.928 38.568 176.984 38.52C177.256 39.016 177.544 39.864 177.608 40.408C179.032 40.408 180.056 40.376 180.712 40.072C181.384 39.768 181.592 39.24 181.592 38.216V28.104ZM184.104 28.024L184.312 30.216C186.168 29.816 189.432 29.464 190.936 29.304C189.848 30.12 188.552 31.944 188.552 34.248C188.552 37.72 191.72 39.512 195.08 39.736L195.832 37.544C193.112 37.4 190.648 36.456 190.648 33.816C190.648 31.912 192.104 29.848 194.04 29.336C194.888 29.128 196.264 29.128 197.128 29.112L197.112 27.064C195.976 27.112 194.232 27.208 192.584 27.352C189.656 27.592 187.016 27.832 185.672 27.944C185.368 27.976 184.744 28.008 184.104 28.024ZM194.84 30.68L193.656 31.176C194.168 31.896 194.504 32.52 194.904 33.4L196.12 32.856C195.816 32.232 195.24 31.256 194.84 30.68ZM196.632 29.944L195.464 30.488C195.976 31.192 196.344 31.784 196.776 32.648L197.976 32.072C197.64 31.448 197.032 30.504 196.632 29.944ZM204.376 25.944H200.28V27.384H204.376V25.944ZM202.872 36.2V38.04H201.608V36.2H202.872ZM204.392 34.712H200.136V40.168H201.608V39.528H204.392V34.712ZM200.184 33.928H204.424V32.504H200.184V33.928ZM200.184 31.768H204.424V30.312H200.184V31.768ZM208.744 33.992H210.424V34.552H208.744V33.992ZM208.744 32.232H210.424V32.792H208.744V32.232ZM213.24 35.944C212.872 36.232 212.328 36.584 211.8 36.888C211.56 36.552 211.368 36.2 211.192 35.832H214.472V34.552H212.12V33.992H213.752V32.792H212.12V32.232H214.072V31.032H212.12V30.024H210.424V31.032H208.744V30.024H207.336C208.008 29.592 208.648 29.096 209.08 28.552L207.64 28.12H211.224L210.152 28.808C211.208 29.288 212.536 30.136 213.192 30.712L214.488 29.784C213.848 29.272 212.728 28.584 211.704 28.12H214.248V26.728H210.504V25.448H208.584V26.728H205.176V28.12H207.432C206.856 28.696 205.848 29.208 204.808 29.56V28.088H199.528V29.592H204.728L204.584 29.64C204.936 29.912 205.544 30.488 205.816 30.808C206.232 30.632 206.648 30.424 207.064 30.184V31.032H205.352V32.232H207.064V32.792H205.688V33.992H207.064V34.552H204.824V35.832H207.224C206.44 36.328 205.448 36.712 204.456 37C204.728 37.288 205.24 37.912 205.448 38.216C205.896 38.056 206.344 37.864 206.792 37.656V38.648C206.28 38.712 205.816 38.792 205.4 38.84L205.848 40.264C207.224 40.04 209.016 39.736 210.712 39.432L210.584 38.056C209.848 38.168 209.112 38.296 208.408 38.408V36.68C208.76 36.424 209.096 36.136 209.384 35.832H209.56C210.328 37.976 211.624 39.592 213.656 40.376C213.896 39.944 214.36 39.32 214.712 39.016C213.928 38.76 213.24 38.36 212.664 37.848C213.208 37.592 213.768 37.272 214.248 36.92L213.24 35.944ZM220.152 27.048C219.56 26.536 218.344 25.88 217.416 25.512L216.344 26.952C217.304 27.352 218.488 28.088 219.048 28.616L220.152 27.048ZM219.288 31.256C218.68 30.744 217.464 30.136 216.52 29.8L215.496 31.224C216.44 31.64 217.624 32.312 218.184 32.84L219.288 31.256ZM218.024 33.928C217.304 35.832 216.328 37.88 215.64 39.128L217.384 40.2C218.136 38.616 218.936 36.744 219.576 35.016L218.024 33.928ZM227.128 31.192V32.088H225.064V31.192H227.128ZM223.384 31.192V33.528H228.888V31.192H230.376V29.704H228.888V28.68H227.128V29.704H225.064V28.68H223.384V29.704H222.104V28.408H230.312V26.824H226.472V25.448H224.536V26.824H220.312V31.16C220.312 33.576 220.168 37.032 218.664 39.4C219.128 39.576 219.928 40.008 220.264 40.296C221.848 37.784 222.104 33.848 222.104 31.192H223.384ZM227.448 35.624C227.048 36.152 226.552 36.616 225.976 37.032C225.432 36.616 224.984 36.152 224.648 35.624H227.448ZM228.792 34.072L228.488 34.136H222.312V35.624H224.136L222.936 35.976C223.352 36.696 223.848 37.336 224.424 37.896C223.496 38.312 222.472 38.616 221.368 38.808C221.688 39.176 222.104 39.88 222.264 40.344C223.592 40.04 224.824 39.624 225.928 39.032C226.952 39.656 228.152 40.104 229.528 40.376C229.768 39.896 230.264 39.176 230.664 38.792C229.512 38.616 228.472 38.328 227.576 37.944C228.6 37.08 229.432 35.976 229.96 34.584L228.792 34.072ZM236.936 26.312L234.36 26.28C234.504 26.92 234.568 27.688 234.568 28.44C234.568 29.816 234.408 34.024 234.408 36.168C234.408 38.904 236.104 40.056 238.728 40.056C242.376 40.056 244.648 37.912 245.672 36.376L244.216 34.616C243.064 36.36 241.384 37.88 238.744 37.88C237.496 37.88 236.536 37.352 236.536 35.736C236.536 33.752 236.664 30.168 236.728 28.44C236.76 27.8 236.84 26.984 236.936 26.312ZM254.552 26.12L252.344 25.896C252.312 26.728 252.136 27.688 251.912 28.568C251.416 28.616 250.936 28.632 250.456 28.632C249.864 28.632 249.016 28.6 248.328 28.52L248.472 30.376C249.16 30.424 249.816 30.44 250.472 30.44C250.744 30.44 251.016 30.44 251.304 30.424C250.6 32.152 249.304 34.504 248.04 36.072L249.976 37.064C251.272 35.256 252.632 32.456 253.4 30.216C254.472 30.056 255.464 29.848 256.2 29.656L256.136 27.8C255.512 27.992 254.76 28.168 253.976 28.312C254.216 27.448 254.424 26.632 254.552 26.12ZM253.72 37.192C253.72 36.632 254.312 36.216 255.24 36.216C255.688 36.216 256.12 36.28 256.536 36.376C256.536 36.504 256.536 36.6 256.536 36.696C256.536 37.576 256.2 38.184 255.096 38.184C254.216 38.184 253.72 37.784 253.72 37.192ZM258.296 31.096H256.296C256.328 32.072 256.408 33.496 256.472 34.68C256.104 34.648 255.752 34.616 255.368 34.616C253.144 34.616 251.832 35.816 251.832 37.384C251.832 39.144 253.4 40.024 255.384 40.024C257.656 40.024 258.472 38.872 258.472 37.384C258.472 37.336 258.472 37.272 258.472 37.224C259.352 37.752 260.072 38.424 260.632 38.936L261.704 37.224C260.888 36.488 259.768 35.688 258.392 35.176C258.36 34.376 258.312 33.608 258.296 33.144C258.28 32.44 258.248 31.768 258.296 31.096ZM261.048 31.944L262.184 30.264C261.368 29.672 259.384 28.584 258.232 28.088L257.208 29.672C258.296 30.168 260.12 31.208 261.048 31.944ZM267.16 27.56L264.696 27.528C264.792 28.024 264.824 28.712 264.824 29.16C264.824 30.136 264.84 32.008 265 33.48C265.448 37.768 266.968 39.352 268.728 39.352C270.008 39.352 271.016 38.376 272.072 35.592L270.472 33.64C270.168 34.92 269.528 36.792 268.776 36.792C267.768 36.792 267.288 35.208 267.064 32.904C266.968 31.752 266.952 30.552 266.968 29.512C266.968 29.064 267.048 28.136 267.16 27.56ZM275.16 27.928L273.128 28.584C274.872 30.568 275.72 34.456 275.976 37.032L278.072 36.216C277.896 33.768 276.68 29.768 275.16 27.928ZM285.784 34.888H287.848C287.608 32.664 291.096 32.392 291.096 30.04C291.096 27.912 289.4 26.84 287.08 26.84C285.368 26.84 283.96 27.608 282.952 28.792L284.264 30.008C285.048 29.176 285.832 28.744 286.824 28.744C288.072 28.744 288.84 29.288 288.84 30.248C288.84 31.8 285.448 32.376 285.784 34.888ZM286.824 39.144C287.64 39.144 288.232 38.568 288.232 37.736C288.232 36.888 287.64 36.312 286.824 36.312C286.024 36.312 285.416 36.888 285.416 37.736C285.416 38.568 286.008 39.144 286.824 39.144Z" fill="black"/>
<defs>
<clipPath id="clip0">
<rect width="270" height="216.302" fill="white" transform="translate(40 78)"/>
</clipPath>
</defs>
</svg>
