<svg width="351" height="351" viewBox="0 0 351 351" fill="none" xmlns="http://www.w3.org/2000/svg">
<path d="M174.449 136.948L174.441 137.001L174.42 137.152L172.214 152.984L158.705 157.941L158.493 157.839L150.93 154.247L147.019 139.242L146.751 138.212L146.832 138.181L163.564 131.895L174.439 136.942L174.449 136.948Z" fill="#00B0FF"/>
<path d="M158.493 157.839L150.93 154.247L146.751 138.212L146.832 138.18L157.733 142.779L158.493 157.839Z" fill="#00B0FF"/>
<path opacity="0.2" d="M158.683 157.656L152.93 146.631L153.669 143.506L150.189 139.408L149.892 139.66L153.245 143.608L150.741 154.203L151.119 154.292L152.793 147.21L158.338 157.836L158.683 157.656Z" fill="black"/>
<path d="M174.449 137.143L174.42 137.152L157.733 142.974L147.019 139.242L146.751 138.212L146.832 138.181L163.564 131.895L174.439 136.942L174.441 137.001L174.449 137.143Z" fill="#3F3D56"/>
<path d="M158.024 143.265L154.623 140.641L155.4 137.726L165.119 134.227L171.728 134.616L174.352 136.851L174.546 137.434L158.024 143.265Z" fill="#00B0FF"/>
<path d="M146.945 138.212L154.623 137.92L158.782 136.508L165.267 134.227L166.48 132.478L163.453 131.936L146.945 138.212Z" fill="#00B0FF"/>
<path d="M162.242 135.084L158.239 136.489L158.367 136.855L162.37 135.451L162.242 135.084Z" fill="#CCCCCC"/>
<path d="M109.512 112.352L107.635 121.736L116.393 128.305L120.46 116.106L109.512 112.352Z" fill="#9F616A"/>
<path d="M116.55 120.954C121.214 120.954 124.995 117.173 124.995 112.509C124.995 107.845 121.214 104.063 116.55 104.063C111.886 104.063 108.104 107.845 108.104 112.509C108.104 117.173 111.886 120.954 116.55 120.954Z" fill="#9F616A"/>
<path d="M98.2518 176.498C98.2904 179.222 110.157 209.547 108.51 213.495C105.912 216.15 100.326 230.282 97.9388 234.051C97.6262 234.051 96.0623 238.743 96.0623 238.743C96.0623 238.743 99.8157 244.686 103.882 242.184C108.995 230.158 121.8 223.451 122.026 207.778C122.644 212.729 124.469 244.51 124.469 244.51C124.469 244.51 124.119 244.658 131.996 245.413C133.219 226.968 138.217 195.587 127.028 175.872C123.588 174.308 98.2518 176.498 98.2518 176.498Z" fill="#2F2E41"/>
<path d="M124.468 243.891C124.102 244.595 121.48 251.086 123.866 251.737C126.618 252.487 129.286 251.435 129.286 251.435C129.286 251.435 134.104 252.941 137.052 251.028C138.428 249.651 138.116 248.401 137.459 247.494C137.125 247.047 136.698 246.678 136.207 246.414C135.716 246.149 135.174 245.995 134.617 245.962C133.121 245.855 132.645 245.578 132.474 244.892C132.224 243.891 124.468 243.891 124.468 243.891Z" fill="#2F2E41"/>
<path d="M98.731 238.223C98.731 238.223 92.0082 240.346 93.4236 242.823C94.3427 244.358 95.6849 245.595 97.2892 246.387C97.2892 246.387 98.6913 252.168 102.583 252.168C104.53 252.168 105.193 251.062 105.37 249.956C105.45 249.404 105.408 248.842 105.248 248.307C105.088 247.773 104.814 247.28 104.443 246.863C103.461 245.73 103.321 245.198 103.685 244.592C104.215 243.707 98.731 238.223 98.731 238.223Z" fill="#2F2E41"/>
<path d="M128.593 177.413C128.593 177.413 127.341 179.916 122.336 178.976C117.332 178.04 97.6273 178.976 97.6273 178.976C97.6273 178.976 98.7203 156.613 96.2181 143.162C93.7158 129.712 103.568 122.048 103.568 122.048L106.697 118.92C109.825 118.61 116.432 128.317 116.432 128.317C118.606 128.682 120.635 137.923 122.367 146.667C122.469 147.167 122.565 147.661 122.662 148.155C123.46 152.232 124.571 156.769 125.236 160.843C125.284 161.132 125.329 161.418 125.372 161.705C126.163 166.995 127.238 172.239 128.593 177.413Z" fill="#E6E6E6"/>
<path d="M106.67 107.25C106.67 107.25 105.091 103.776 109.196 102.197C109.196 102.197 112.67 96.5131 119.618 100.303C119.618 100.303 124.355 102.197 124.355 107.25C124.355 112.303 125.934 113.25 125.934 113.25C125.934 113.25 123.582 110.838 122.951 108.943C122.319 107.049 117.407 106.619 115.512 108.513C113.617 110.408 108.88 110.092 108.88 110.092L109.196 117.04C109.196 117.04 107.617 112.935 106.986 112.935C106.354 112.935 105.722 107.25 106.67 107.25Z" fill="#2F2E41"/>
<path opacity="0.2" d="M125.236 160.843C117.775 156.787 105.688 147.893 101.789 143.081C96.6488 136.742 102.256 131.925 102.256 131.925C108.612 127.914 116.212 141.675 116.212 141.675L122.367 146.667C122.469 147.167 122.565 147.661 122.662 148.155C123.46 152.232 124.571 156.769 125.236 160.843Z" fill="black"/>
<path d="M147.51 156.169C147.51 156.169 158.603 160.672 160.429 155.61C162.255 150.548 151.671 150.635 151.671 150.635L147.516 151.223L147.51 156.169Z" fill="#9F616A"/>
<path d="M100.834 129.865C100.834 129.865 95.2297 134.685 100.366 141.021C105.502 147.358 129.107 160.896 129.107 160.896L144.483 156.739L148.834 157.536L149.655 149.366L143.245 149.992L126.972 146.527L116.596 138.108C116.596 138.108 107.188 125.856 100.834 129.865Z" fill="#E6E6E6"/>
<path opacity="0.2" d="M121.249 187.937L122.229 210.845L119.743 187.937H121.249Z" fill="black"/>
<path d="M227.1 171.549L218.2 173.611C217.511 173.771 216.788 173.656 216.183 173.29C215.578 172.925 215.139 172.338 214.96 171.654C214.856 171.258 214.844 170.843 214.923 170.441C215.002 170.039 215.172 169.66 215.418 169.332C215.665 169.005 215.982 168.738 216.347 168.551C216.712 168.363 217.114 168.261 217.524 168.252L226.121 168.052L227.1 171.549Z" fill="#FFB9B9"/>
<path d="M226.155 172.855L224.178 166.925L236.029 162.878L232.883 135.18C238.546 136.209 241.241 140.662 240.989 146.412L242.522 165.313L226.155 172.855Z" fill="#3F3D56"/>
<path d="M234.343 129.073H253.704V119.445C253.711 116.844 252.692 114.346 250.868 112.493C249.977 111.579 248.913 110.854 247.737 110.359C246.561 109.864 245.298 109.61 244.023 109.612C241.475 109.617 239.032 110.624 237.221 112.416C235.41 114.208 234.377 116.64 234.346 119.188C234.344 119.276 234.343 119.36 234.343 119.445L234.343 129.073Z" fill="#2F2E41"/>
<path d="M261.799 242.217L255.61 241.507L248.204 191.489L232.883 241.71L226.187 241.913L233.797 180.125L232.681 166.023L251.653 160.037C265.091 169.417 264.813 202.55 261.799 242.217Z" fill="#2F2E41"/>
<path d="M242.319 127.165C246.353 127.165 249.624 123.894 249.624 119.86C249.624 115.825 246.353 112.555 242.319 112.555C238.284 112.555 235.014 115.825 235.014 119.86C235.014 123.894 238.284 127.165 242.319 127.165Z" fill="#FFB9B9"/>
<path d="M249.624 133.049L237.246 136.296C239.331 132.285 239.999 128.541 238.869 125.135L247.595 123.715C247.034 126.972 247.761 130.319 249.624 133.049Z" fill="#FFB9B9"/>
<path d="M253.784 162.776C246.841 167.191 238.754 172.263 232.782 167.342L229.941 153.543C227.683 151.532 228.684 145.327 231.737 136.481C231.931 135.92 232.25 135.41 232.67 134.99C233.09 134.57 233.601 134.252 234.162 134.058L238.869 132.44C240.955 134.195 244.375 133.148 248.406 130.817L253.073 132.034L255.103 147.253C252.173 151.642 252.685 157.485 253.784 162.776Z" fill="#3F3D56"/>
<path d="M248 168.708L239.1 170.771C238.411 170.93 237.688 170.815 237.083 170.449C236.478 170.084 236.039 169.497 235.86 168.813C235.756 168.417 235.744 168.002 235.823 167.6C235.902 167.198 236.072 166.819 236.318 166.492C236.565 166.164 236.883 165.897 237.247 165.71C237.612 165.523 238.014 165.421 238.424 165.411L247.021 165.211L248 168.708Z" fill="#FFB9B9"/>
<path d="M260.723 251.78C259.684 252.255 258.813 249.314 257.936 250.176C255.484 252.586 249.6 252.046 249.6 252.046C249.403 251.982 249.22 251.879 249.064 251.743C248.907 251.607 248.78 251.441 248.689 251.254C248.599 251.067 248.548 250.864 248.538 250.657C248.528 250.449 248.561 250.242 248.634 250.048C248.721 249.816 248.864 249.608 249.049 249.442C249.234 249.277 249.457 249.159 249.698 249.099L252.306 248.447L256.401 241.245L260.864 240.68L260.977 240.865C261.84 242.255 262.396 243.814 262.609 245.436C262.821 247.059 262.685 248.708 262.21 250.274C261.839 251.463 261.334 251.501 260.723 251.78Z" fill="#2F2E41"/>
<path d="M231.3 251.78C230.261 252.255 229.39 249.314 228.513 250.176C226.061 252.586 220.178 252.046 220.178 252.046C219.98 251.982 219.798 251.879 219.641 251.743C219.484 251.607 219.357 251.441 219.267 251.254C219.176 251.067 219.125 250.864 219.115 250.657C219.106 250.449 219.139 250.242 219.211 250.048C219.299 249.816 219.441 249.608 219.626 249.442C219.811 249.277 220.034 249.159 220.275 249.099L222.883 248.447L226.978 241.245L231.442 240.68L231.554 240.865C232.417 242.255 232.973 243.814 233.186 245.436C233.399 247.059 233.263 248.708 232.787 250.274C232.416 251.463 231.911 251.501 231.3 251.78Z" fill="#2F2E41"/>
<path d="M250.883 113.767L249.043 119.62L233.136 119.337C233.191 117.289 233.883 115.31 235.118 113.674C236.352 112.039 238.066 110.83 240.021 110.217C241.975 109.603 244.073 109.616 246.02 110.252C247.968 110.888 249.668 112.117 250.883 113.767H250.883Z" fill="#2F2E41"/>
<path d="M247.055 170.015L245.078 164.084L256.929 160.037L252.446 131.739C255.184 132.237 257.65 133.709 259.386 135.885C261.122 138.06 262.011 140.791 261.889 143.571L263.422 162.472L247.055 170.015Z" fill="#3F3D56"/>
<path d="M218.751 154.027L206.426 156.678L203.907 144.551L208.546 138.322L212.721 137.527L217.359 142.232L218.751 154.027Z" fill="#CCCCCC"/>
<path d="M213.052 154.556H205.63L204.618 149.561L203.51 144.086L205.166 141.702L208.349 142.695L211.794 147.468L212.658 152.331L212.718 152.677L213.052 154.556Z" fill="#E6E6E6"/>
<path d="M225.51 151.642L216.962 152.636L218.486 141.768L221.932 138.654L224.913 139.383L226.902 143.955L225.51 151.642Z" fill="#CCCCCC"/>
<path d="M226.636 145.213L225.841 149.588L223.257 164.496L213.317 167.678L212.974 167.492L207.617 164.562L204.603 149.555L204.618 149.561L212.589 152.767L212.658 152.331L212.706 152.015L213.317 148.13L216.033 145.213L225.112 143.026L226.636 145.213Z" fill="#E6E6E6"/>
<path d="M220.341 144.75C221.513 144.75 222.462 143.801 222.462 142.63C222.462 141.458 221.513 140.509 220.341 140.509C219.17 140.509 218.221 141.458 218.221 142.63C218.221 143.801 219.17 144.75 220.341 144.75Z" fill="#E6E6E6"/>
<path d="M215.128 143.724L210.291 144.585L210.314 144.716L215.151 143.854L215.128 143.724Z" fill="white"/>
<path d="M212.974 167.492L207.617 164.562L204.603 149.555L204.618 149.561L203.51 144.086L205.166 141.702L208.349 142.695L211.794 147.468L212.658 152.331L212.706 152.015L212.718 152.677L212.751 154.556L212.974 167.492Z" fill="#F2F2F2"/>
<path d="M207.682 164.581L207.554 164.546L210.196 154.638L207.171 150.649L207.277 150.569L210.341 154.609L207.682 164.581Z" fill="#CCCCCC"/>
<path d="M209.174 158.924L209.055 158.981L213.258 167.707L213.377 167.649L209.174 158.924Z" fill="#CCCCCC"/>
<path opacity="0.2" d="M226.114 148.68L225.616 151.429L225.591 151.432L223.363 164.285L213.423 167.465L213.364 167.494L213.324 167.411L207.725 164.351L207.66 164.334L207.695 164.204L204.709 149.342L204.725 149.348L204.394 147.716L204.641 147.36L205.405 146.26L208.586 147.254L212.032 152.026L212.082 152.309L212.444 154.345L212.589 155.163L212.896 156.89L213.187 155.034L213.292 154.366L213.556 152.688L216.273 149.773L217.481 149.482L218.322 149.279L219.479 149.001C219.12 148.782 218.834 148.463 218.657 148.082C218.48 147.701 218.42 147.276 218.485 146.861C218.55 146.446 218.736 146.06 219.021 145.751C219.305 145.443 219.675 145.225 220.083 145.127C220.492 145.029 220.92 145.054 221.314 145.199C221.708 145.344 222.05 145.603 222.296 145.943C222.543 146.283 222.683 146.688 222.699 147.108C222.715 147.528 222.606 147.942 222.386 148.3L225.351 147.586L226.082 148.635L226.114 148.68Z" fill="black"/>
<path d="M213.291 159.778H205.869L203.749 149.309L205.405 146.923L208.586 147.917L212.032 152.688L213.291 159.778Z" fill="#E6E6E6"/>
<path d="M223.496 169.719L213.556 172.899L207.857 169.785L204.842 154.776L212.827 157.989L213.556 153.351L216.273 150.435L225.351 148.249L226.875 150.435L226.08 154.809L223.496 169.719Z" fill="#E6E6E6"/>
<path d="M220.58 149.971C221.751 149.971 222.7 149.022 222.7 147.851C222.7 146.68 221.751 145.73 220.58 145.73C219.409 145.73 218.459 146.68 218.459 147.851C218.459 149.022 219.409 149.971 220.58 149.971Z" fill="#E6E6E6"/>
<path d="M213.218 172.611L207.861 169.681L204.847 154.674L204.862 154.68L203.754 149.205L205.41 146.821L208.593 147.814L212.037 152.587L212.902 157.45L212.95 157.134L212.962 157.796L212.995 159.675L213.218 172.611Z" fill="#F2F2F2"/>
<path d="M207.921 169.802L207.793 169.768L210.435 159.859L207.409 155.87L207.515 155.79L210.58 159.831L207.921 169.802Z" fill="#CCCCCC"/>
<path d="M209.413 164.145L209.294 164.203L213.496 172.928L213.616 172.87L209.413 164.145Z" fill="#CCCCCC"/>
<path d="M296.438 239.045L284.112 241.695L281.594 229.569L286.233 223.34L290.407 222.544L295.046 227.249L296.438 239.045Z" fill="#CCCCCC"/>
<path d="M290.739 239.574H283.317L282.305 234.578L281.197 229.104L282.853 226.719L286.036 227.713L289.48 232.485L290.345 237.348L290.405 237.695L290.739 239.574Z" fill="#E6E6E6"/>
<path d="M303.196 236.659L294.648 237.653L296.172 226.786L299.618 223.671L302.6 224.4L304.588 228.972L303.196 236.659Z" fill="#CCCCCC"/>
<path d="M304.322 230.23L303.527 234.605L300.944 249.513L291.004 252.696L290.661 252.509L285.304 249.579L282.29 234.572L282.305 234.578L290.275 237.785L290.345 237.348L290.393 237.032L291.004 233.148L293.72 230.23L302.798 228.044L304.322 230.23Z" fill="#E6E6E6"/>
<path d="M298.028 229.767C299.199 229.767 300.148 228.818 300.148 227.647C300.148 226.476 299.199 225.526 298.028 225.526C296.857 225.526 295.907 226.476 295.907 227.647C295.907 228.818 296.857 229.767 298.028 229.767Z" fill="#E6E6E6"/>
<path d="M292.814 228.741L287.977 229.603L288 229.733L292.838 228.872L292.814 228.741Z" fill="white"/>
<path d="M290.661 252.509L285.304 249.579L282.29 234.572L282.305 234.578L281.197 229.104L282.853 226.719L286.036 227.713L289.48 232.485L290.345 237.348L290.393 237.032L290.405 237.695L290.438 239.574L290.661 252.509Z" fill="#F2F2F2"/>
<path d="M285.369 249.598L285.241 249.564L287.883 239.655L284.857 235.667L284.963 235.587L288.028 239.627L285.369 249.598Z" fill="#CCCCCC"/>
<path d="M286.861 243.941L286.741 243.999L290.944 252.724L291.063 252.667L286.861 243.941Z" fill="#CCCCCC"/>
<path d="M320.793 251.54H312.663L311.458 235.882H321.997L320.793 251.54Z" fill="#E6E6E6"/>
<path d="M322.148 242.205H311.308V244.614H322.148V242.205Z" fill="#F2F2F2"/>
<path d="M324.933 237.006L323.2 236.495L323.177 235.861L315.475 233.592L315.112 234.113L313.379 233.603L312.291 235.165L325 238.909L324.933 237.006Z" fill="#CCCCCC"/>
<path d="M69.9639 231.777L69.9561 231.83L69.9347 231.982L67.7284 247.813L54.2194 252.77L54.0077 252.669L46.4444 249.077L42.5336 234.071L42.2656 233.041L42.3472 233.01L59.0787 226.724L69.9539 231.772L69.9639 231.777Z" fill="#00B0FF"/>
<path d="M54.0077 252.669L46.4444 249.077L42.2656 233.041L42.3472 233.01L53.2477 237.609L54.0077 252.669Z" fill="#00B0FF"/>
<path opacity="0.2" d="M54.1971 252.485L48.444 241.461L49.183 238.335L45.703 234.237L45.4067 234.489L48.7593 238.437L46.255 249.032L46.6335 249.121L48.3073 242.039L53.8523 252.665L54.1971 252.485Z" fill="black"/>
<path d="M69.9639 231.972L69.9347 231.982L53.2477 237.803L42.5336 234.071L42.2656 233.041L42.3472 233.01L59.0787 226.724L69.9539 231.772L69.9561 231.83L69.9639 231.972Z" fill="#3F3D56"/>
<path d="M53.5389 238.095L50.1372 235.471L50.9147 232.555L60.6333 229.056L67.2421 229.445L69.8663 231.68L70.0605 232.263L53.5389 238.095Z" fill="#00B0FF"/>
<path d="M42.4595 233.041L50.1372 232.749L54.2964 231.338L60.7811 229.056L61.994 227.307L58.9679 226.765L42.4595 233.041Z" fill="#00B0FF"/>
<path d="M57.7562 229.913L53.7529 231.318L53.8816 231.685L57.8849 230.28L57.7562 229.913Z" fill="#CCCCCC"/>
<path d="M35.8398 251.9H27.7098L26.5054 236.242H37.0442L35.8398 251.9Z" fill="#00B0FF"/>
<path d="M37.195 242.565H26.355V244.974H37.195V242.565Z" fill="#E6E6E6"/>
<path d="M37.6466 235.339H35.84L35.6391 234.736H27.6097L27.4089 235.339H25.6022L25 237.145H38.2489L37.6466 235.339Z" fill="#3F3D56"/>
<path d="M268.399 251.715H85.8975V252.317H268.399V251.715Z" fill="#3F3D56"/>
<path d="M58.92 26.76L59.016 28.808C59.528 28.744 60.056 28.696 60.456 28.664C61.112 28.6 63.08 28.504 63.736 28.456C62.744 29.336 60.664 31.16 59.24 32.088C58.392 32.184 57.272 32.328 56.424 32.408L56.616 34.344C58.216 34.072 60.008 33.832 61.48 33.704C60.872 34.264 60.312 35.256 60.312 36.232C60.312 38.904 62.696 40.136 66.792 39.96L67.224 37.864C66.616 37.912 65.672 37.912 64.776 37.816C63.352 37.656 62.36 37.16 62.36 35.896C62.36 34.584 63.576 33.544 65.048 33.352C66.024 33.208 67.624 33.224 69.16 33.304V31.416C67.208 31.416 64.552 31.592 62.408 31.8C63.512 30.952 65.08 29.624 66.216 28.712C66.552 28.44 67.144 28.056 67.48 27.832L66.216 26.36C65.992 26.44 65.624 26.504 65.112 26.568C64.136 26.664 61.128 26.808 60.44 26.808C59.896 26.808 59.432 26.792 58.92 26.76ZM85.832 33.368C85.832 29.88 83.336 27.128 79.368 27.128C75.224 27.128 72.024 30.28 72.024 33.976C72.024 36.68 73.496 38.632 75.272 38.632C77.016 38.632 78.392 36.648 79.352 33.416C79.816 31.912 80.088 30.44 80.312 29.08C82.472 29.448 83.672 31.096 83.672 33.304C83.672 35.64 82.072 37.112 80.024 37.592C79.592 37.688 79.144 37.784 78.536 37.848L79.736 39.752C83.768 39.128 85.832 36.744 85.832 33.368ZM74.072 33.768C74.072 32.008 75.496 29.672 78.136 29.128C77.96 30.456 77.656 31.816 77.288 33C76.632 35.16 76.008 36.168 75.336 36.168C74.712 36.168 74.072 35.384 74.072 33.768ZM96.04 31.608V29.944C96.376 29.464 96.696 28.968 96.968 28.472H101.944V26.52H88.072V28.472H94.456C92.968 30.92 90.472 33.4 87.56 34.76C87.976 35.192 88.568 35.976 88.872 36.488C90.792 35.496 92.504 34.104 93.96 32.552V40.36H96.04V32.072C97.768 33.4 99.944 35.224 100.936 36.408L102.552 34.952C101.4 33.688 98.936 31.848 97.224 30.616L96.04 31.608ZM112.12 33.928V31.96H115.496V33.928H112.12ZM107.144 33.928C107.176 33.336 107.192 32.76 107.192 32.248V31.96H110.2V33.928H107.144ZM110.2 28.328V30.184H107.192V28.328H110.2ZM115.496 30.184H112.12V28.328H115.496V30.184ZM117.384 26.52H105.304V32.232C105.304 34.472 105.16 37.32 103.416 39.24C103.848 39.464 104.616 40.12 104.92 40.472C106.072 39.224 106.648 37.464 106.936 35.72H110.2V40.184H112.12V35.72H115.496V38.12C115.496 38.408 115.384 38.504 115.08 38.504C114.792 38.504 113.736 38.52 112.84 38.472C113.08 38.968 113.384 39.784 113.448 40.296C114.888 40.312 115.864 40.28 116.52 39.96C117.16 39.672 117.384 39.16 117.384 38.136V26.52ZM129.8 30.056H124.2V27.896H129.8V30.056ZM131.736 26.072H122.36V31.864H131.736V26.072ZM124.344 35.016V37.768H121.96V35.016H124.344ZM120.168 40.392H121.96V39.592H124.344V40.312H126.248V33.192H120.168V40.392ZM129.432 37.768V35.016H131.976V37.768H129.432ZM127.608 33.192V40.392H129.432V39.592H131.976V40.328H133.896V33.192H127.608ZM139.08 40.104L140.792 38.632C139.992 37.64 138.44 36.056 137.304 35.128L135.64 36.568C136.744 37.528 138.104 38.904 139.08 40.104ZM153.896 29.656H164.104V31.864H165.976V27.976H163.848C164.28 27.416 164.76 26.776 165.192 26.168L163.128 25.544C162.824 26.296 162.28 27.224 161.752 27.976H159.336L160.104 27.672C159.896 27.032 159.368 26.056 158.856 25.368L157.176 25.976C157.56 26.584 157.96 27.352 158.184 27.976H155.672L156.248 27.704C155.992 27.08 155.352 26.232 154.792 25.608L153.176 26.328C153.56 26.824 153.992 27.448 154.28 27.976H152.104V31.864H153.896V29.656ZM166.136 34.472H160.088C161.4 33.72 162.648 32.696 163.56 31.72L162.36 30.792L161.944 30.888H154.76V32.536H160.184C159.8 32.856 159.368 33.16 158.952 33.416H158.04V34.472H151.896V36.216H158.04V38.296C158.04 38.52 157.96 38.584 157.624 38.584C157.304 38.6 156.12 38.6 155.096 38.552C155.384 39.064 155.752 39.864 155.88 40.408C157.24 40.408 158.232 40.376 158.984 40.104C159.768 39.832 159.976 39.336 159.976 38.344V36.216H166.136V34.472ZM179.704 29.96V35.736C178.824 34.632 177.112 33 175.752 31.768C175.88 31.144 175.944 30.552 175.976 29.96H179.704ZM170.36 29.96H174.008C173.928 31.928 173.384 34.296 170.36 35.864V29.96ZM181.592 28.104H175.992V25.448H174.024V28.104H168.456V40.424H170.36V35.912C170.824 36.264 171.416 36.936 171.688 37.32C173.432 36.296 174.504 34.984 175.128 33.64C176.296 34.808 177.496 36.104 178.136 36.984L179.704 35.768V38.168C179.704 38.456 179.608 38.536 179.304 38.552C179 38.552 177.928 38.568 176.984 38.52C177.256 39.016 177.544 39.864 177.608 40.408C179.032 40.408 180.056 40.376 180.712 40.072C181.384 39.768 181.592 39.24 181.592 38.216V28.104ZM184.104 28.024L184.312 30.216C186.168 29.816 189.432 29.464 190.936 29.304C189.848 30.12 188.552 31.944 188.552 34.248C188.552 37.72 191.72 39.512 195.08 39.736L195.832 37.544C193.112 37.4 190.648 36.456 190.648 33.816C190.648 31.912 192.104 29.848 194.04 29.336C194.888 29.128 196.264 29.128 197.128 29.112L197.112 27.064C195.976 27.112 194.232 27.208 192.584 27.352C189.656 27.592 187.016 27.832 185.672 27.944C185.368 27.976 184.744 28.008 184.104 28.024ZM194.84 30.68L193.656 31.176C194.168 31.896 194.504 32.52 194.904 33.4L196.12 32.856C195.816 32.232 195.24 31.256 194.84 30.68ZM196.632 29.944L195.464 30.488C195.976 31.192 196.344 31.784 196.776 32.648L197.976 32.072C197.64 31.448 197.032 30.504 196.632 29.944ZM204.376 25.944H200.28V27.384H204.376V25.944ZM202.872 36.2V38.04H201.608V36.2H202.872ZM204.392 34.712H200.136V40.168H201.608V39.528H204.392V34.712ZM200.184 33.928H204.424V32.504H200.184V33.928ZM200.184 31.768H204.424V30.312H200.184V31.768ZM208.744 33.992H210.424V34.552H208.744V33.992ZM208.744 32.232H210.424V32.792H208.744V32.232ZM213.24 35.944C212.872 36.232 212.328 36.584 211.8 36.888C211.56 36.552 211.368 36.2 211.192 35.832H214.472V34.552H212.12V33.992H213.752V32.792H212.12V32.232H214.072V31.032H212.12V30.024H210.424V31.032H208.744V30.024H207.336C208.008 29.592 208.648 29.096 209.08 28.552L207.64 28.12H211.224L210.152 28.808C211.208 29.288 212.536 30.136 213.192 30.712L214.488 29.784C213.848 29.272 212.728 28.584 211.704 28.12H214.248V26.728H210.504V25.448H208.584V26.728H205.176V28.12H207.432C206.856 28.696 205.848 29.208 204.808 29.56V28.088H199.528V29.592H204.728L204.584 29.64C204.936 29.912 205.544 30.488 205.816 30.808C206.232 30.632 206.648 30.424 207.064 30.184V31.032H205.352V32.232H207.064V32.792H205.688V33.992H207.064V34.552H204.824V35.832H207.224C206.44 36.328 205.448 36.712 204.456 37C204.728 37.288 205.24 37.912 205.448 38.216C205.896 38.056 206.344 37.864 206.792 37.656V38.648C206.28 38.712 205.816 38.792 205.4 38.84L205.848 40.264C207.224 40.04 209.016 39.736 210.712 39.432L210.584 38.056C209.848 38.168 209.112 38.296 208.408 38.408V36.68C208.76 36.424 209.096 36.136 209.384 35.832H209.56C210.328 37.976 211.624 39.592 213.656 40.376C213.896 39.944 214.36 39.32 214.712 39.016C213.928 38.76 213.24 38.36 212.664 37.848C213.208 37.592 213.768 37.272 214.248 36.92L213.24 35.944ZM220.152 27.048C219.56 26.536 218.344 25.88 217.416 25.512L216.344 26.952C217.304 27.352 218.488 28.088 219.048 28.616L220.152 27.048ZM219.288 31.256C218.68 30.744 217.464 30.136 216.52 29.8L215.496 31.224C216.44 31.64 217.624 32.312 218.184 32.84L219.288 31.256ZM218.024 33.928C217.304 35.832 216.328 37.88 215.64 39.128L217.384 40.2C218.136 38.616 218.936 36.744 219.576 35.016L218.024 33.928ZM227.128 31.192V32.088H225.064V31.192H227.128ZM223.384 31.192V33.528H228.888V31.192H230.376V29.704H228.888V28.68H227.128V29.704H225.064V28.68H223.384V29.704H222.104V28.408H230.312V26.824H226.472V25.448H224.536V26.824H220.312V31.16C220.312 33.576 220.168 37.032 218.664 39.4C219.128 39.576 219.928 40.008 220.264 40.296C221.848 37.784 222.104 33.848 222.104 31.192H223.384ZM227.448 35.624C227.048 36.152 226.552 36.616 225.976 37.032C225.432 36.616 224.984 36.152 224.648 35.624H227.448ZM228.792 34.072L228.488 34.136H222.312V35.624H224.136L222.936 35.976C223.352 36.696 223.848 37.336 224.424 37.896C223.496 38.312 222.472 38.616 221.368 38.808C221.688 39.176 222.104 39.88 222.264 40.344C223.592 40.04 224.824 39.624 225.928 39.032C226.952 39.656 228.152 40.104 229.528 40.376C229.768 39.896 230.264 39.176 230.664 38.792C229.512 38.616 228.472 38.328 227.576 37.944C228.6 37.08 229.432 35.976 229.96 34.584L228.792 34.072ZM236.936 26.312L234.36 26.28C234.504 26.92 234.568 27.688 234.568 28.44C234.568 29.816 234.408 34.024 234.408 36.168C234.408 38.904 236.104 40.056 238.728 40.056C242.376 40.056 244.648 37.912 245.672 36.376L244.216 34.616C243.064 36.36 241.384 37.88 238.744 37.88C237.496 37.88 236.536 37.352 236.536 35.736C236.536 33.752 236.664 30.168 236.728 28.44C236.76 27.8 236.84 26.984 236.936 26.312ZM254.552 26.12L252.344 25.896C252.312 26.728 252.136 27.688 251.912 28.568C251.416 28.616 250.936 28.632 250.456 28.632C249.864 28.632 249.016 28.6 248.328 28.52L248.472 30.376C249.16 30.424 249.816 30.44 250.472 30.44C250.744 30.44 251.016 30.44 251.304 30.424C250.6 32.152 249.304 34.504 248.04 36.072L249.976 37.064C251.272 35.256 252.632 32.456 253.4 30.216C254.472 30.056 255.464 29.848 256.2 29.656L256.136 27.8C255.512 27.992 254.76 28.168 253.976 28.312C254.216 27.448 254.424 26.632 254.552 26.12ZM253.72 37.192C253.72 36.632 254.312 36.216 255.24 36.216C255.688 36.216 256.12 36.28 256.536 36.376C256.536 36.504 256.536 36.6 256.536 36.696C256.536 37.576 256.2 38.184 255.096 38.184C254.216 38.184 253.72 37.784 253.72 37.192ZM258.296 31.096H256.296C256.328 32.072 256.408 33.496 256.472 34.68C256.104 34.648 255.752 34.616 255.368 34.616C253.144 34.616 251.832 35.816 251.832 37.384C251.832 39.144 253.4 40.024 255.384 40.024C257.656 40.024 258.472 38.872 258.472 37.384C258.472 37.336 258.472 37.272 258.472 37.224C259.352 37.752 260.072 38.424 260.632 38.936L261.704 37.224C260.888 36.488 259.768 35.688 258.392 35.176C258.36 34.376 258.312 33.608 258.296 33.144C258.28 32.44 258.248 31.768 258.296 31.096ZM261.048 31.944L262.184 30.264C261.368 29.672 259.384 28.584 258.232 28.088L257.208 29.672C258.296 30.168 260.12 31.208 261.048 31.944ZM267.16 27.56L264.696 27.528C264.792 28.024 264.824 28.712 264.824 29.16C264.824 30.136 264.84 32.008 265 33.48C265.448 37.768 266.968 39.352 268.728 39.352C270.008 39.352 271.016 38.376 272.072 35.592L270.472 33.64C270.168 34.92 269.528 36.792 268.776 36.792C267.768 36.792 267.288 35.208 267.064 32.904C266.968 31.752 266.952 30.552 266.968 29.512C266.968 29.064 267.048 28.136 267.16 27.56ZM275.16 27.928L273.128 28.584C274.872 30.568 275.72 34.456 275.976 37.032L278.072 36.216C277.896 33.768 276.68 29.768 275.16 27.928ZM285.784 34.888H287.848C287.608 32.664 291.096 32.392 291.096 30.04C291.096 27.912 289.4 26.84 287.08 26.84C285.368 26.84 283.96 27.608 282.952 28.792L284.264 30.008C285.048 29.176 285.832 28.744 286.824 28.744C288.072 28.744 288.84 29.288 288.84 30.248C288.84 31.8 285.448 32.376 285.784 34.888ZM286.824 39.144C287.64 39.144 288.232 38.568 288.232 37.736C288.232 36.888 287.64 36.312 286.824 36.312C286.024 36.312 285.416 36.888 285.416 37.736C285.416 38.568 286.008 39.144 286.824 39.144Z" fill="black"/>
</svg>
