<svg width="351" height="351" viewBox="0 0 351 351" fill="none" xmlns="http://www.w3.org/2000/svg">
<path d="M141.265 249.304L148.396 249.814L142.724 221.074L139.022 288.184C181 318 215.688 288.184 215.688 288.184L213.135 221.074L211.566 248.264L242.55 244.562L227.086 192.224C225.116 185.567 219.536 180.589 212.679 179.422L188.844 175.319L164.097 177.142L143.545 178.273C134.919 178.747 127.807 185.221 126.512 193.756L118.451 247.298L141.265 249.304Z" fill="#6998FF"/>
<path d="M141.32 246.386L140.991 252.167L139.496 283.059L148.104 274.689L146.499 264.477L143.49 246.386H141.32Z" fill="#4E88F1"/>
<path d="M174.565 241.079L139.168 249.833L118.433 170.96L120.931 167.058L141.812 162.389L144.931 168.188L146.189 161.313L148.304 162.845L149.781 160.42L153.666 159.453L174.565 241.079Z" fill="#CDAD61"/>
<path d="M163.586 165.216V181.61H188.351V164.687L163.586 165.216Z" fill="#FFDB6E"/>
<path d="M188.716 175.41L190.868 175.665C190.868 175.665 191.47 179.367 191.47 181.337C191.47 192.899 184.467 198.369 175.659 198.953C169.24 199.372 159.848 192.917 159.848 181.355C159.848 180.005 160.14 177.343 160.14 177.343L165.009 177.069L188.716 175.41Z" fill="#FFDB6E"/>
<path d="M164.097 166.219L188.352 164.687V169.374L182.407 173.149L174.93 174.316L168.766 173.149L164.097 172.091V166.219Z" fill="#FFC63B"/>
<path d="M200.387 167.295L198.035 164.815V162.462L200.606 158.541L206.168 159.617L214.229 167.751L213.226 171.744" fill="#FFDB6E"/>
<path d="M198.035 164.815V162.462L203.378 159.945L213.481 167.532L213.828 170.048L202.886 167.659L200.716 167.459L198.035 164.815Z" fill="#FFC63B"/>
<path d="M212.442 148.25L207.229 147.36L186.221 270.488L191.434 271.377L212.442 148.25Z" fill="#96ABC0"/>
<path d="M174.929 168.316C192.726 168.316 207.153 151.652 207.153 131.095C207.153 110.539 192.726 93.8749 174.929 93.8749C157.133 93.8749 142.706 110.539 142.706 131.095C142.706 151.652 157.133 168.316 174.929 168.316Z" fill="#FFDB6E"/>
<path d="M169.221 99.5099C170.844 104.999 174.564 126.281 206.989 130.731L204.928 109.048L169.221 99.5099Z" fill="#FFC63B"/>
<path d="M207.153 128.798C184.96 127.485 169.896 108.993 168.164 94.1302C168.164 94.1302 184.96 88.4405 198.053 100.021C211.147 111.601 207.153 128.798 207.153 128.798Z" fill="#2D476D"/>
<path d="M206.241 139.977C211.949 133.758 215.505 124.913 215.505 115.12C215.505 96.2821 202.339 81 186.072 81C181.549 81 177.282 82.1854 173.452 84.2826C170.662 83.1884 167.653 82.5866 164.553 82.5866C147.557 82.5866 136.815 102.191 136.815 115.485C136.815 124.33 139.223 135.18 143.891 141.198C143.891 141.198 143.891 119.132 169.203 99.51L207.135 128.798L206.241 139.977Z" fill="#2D476D"/>
<path d="M202.083 131.661C209.56 124.603 213.754 131.715 213.062 137.095C212.332 142.73 208.192 146.76 203.013 146.76" fill="#FFDB6E"/>
<path d="M168.602 144.9C167.945 144.9 167.27 144.754 167.052 144.189C166.796 143.514 167.653 137.423 168.182 133.831L169.076 133.958C168.438 138.299 167.817 143.186 167.909 143.861C168.109 144.043 169.295 143.952 169.751 143.824L170.006 144.7C170.006 144.736 169.313 144.9 168.602 144.9Z" fill="#152338"/>
<path d="M169.276 154.42C169.258 154.42 169.221 154.42 169.203 154.42C168.93 154.402 168.674 154.256 168.51 154.055L166.231 151.447L166.924 150.845L169.203 153.453C169.24 153.49 169.258 153.49 169.276 153.508C169.294 153.508 169.313 153.508 169.331 153.49L171.939 150.827L172.595 151.465L169.951 154.164C169.75 154.329 169.513 154.42 169.276 154.42Z" fill="#152338"/>
<path d="M133.715 210.023L136.651 209.439L146.499 228.04L140.098 239.383L137.016 242.064L133.715 210.023Z" fill="#B69651"/>
<path d="M159.83 135.053C159.374 135.053 158.972 134.706 158.918 134.232C158.662 131.697 158.863 129.217 158.863 129.108C158.899 128.597 159.337 128.232 159.848 128.269C160.358 128.305 160.723 128.743 160.687 129.254C160.687 129.272 160.486 131.679 160.741 134.032C160.796 134.524 160.431 134.98 159.921 135.035C159.902 135.053 159.866 135.053 159.83 135.053Z" fill="#152338"/>
<path d="M182.498 135.764C181.987 135.764 181.586 135.363 181.586 134.852V130.238C181.586 129.728 181.987 129.326 182.498 129.326C183.009 129.326 183.41 129.728 183.41 130.238V134.852C183.41 135.344 182.99 135.764 182.498 135.764Z" fill="#152338"/>
<path d="M155.253 127.612L154.377 127.357C154.395 127.302 155.854 122.378 162.036 123.071L161.927 123.983C156.529 123.381 155.307 127.448 155.253 127.612Z" fill="#152338"/>
<path d="M199.057 195.196L198.564 198.096L200.315 199.92L203.306 201.743L203.926 198.096L199.057 195.196Z" fill="#7D95AA"/>
<path d="M214.156 247.954L209.979 199.92L213.317 207.378L219.444 247.316C219.462 247.316 217.219 247.954 214.156 247.954Z" fill="#4E88F1"/>
<path d="M126.22 236.812C123.266 261.723 129.594 280.689 129.594 280.689L139.204 284.828L146.499 274.762L137.891 239.383L144.602 228.314L134.518 207.962L128.864 210.716L123.667 223.572C123.667 223.572 124.561 234.915 129.193 244.982" fill="#FFDB6E"/>
<path d="M204.546 201.452L196.358 194.248L194.498 189.379L192.273 184.692L197.343 166.948L204.564 162.462L213.172 168.334L215.543 173.896L215.725 194.449L245.304 250.617C245.833 251.62 246.982 254.811 246.654 255.905C245.523 259.735 240.508 266.556 236.551 268.926C232.831 271.133 226.849 266.811 224.041 264.787C223.257 264.221 222.673 263.401 222.399 262.471L204.546 201.452Z" fill="#FFDB6E"/>
<path d="M186.875 127.393C184.522 122.798 181.148 123.546 181.003 123.582L180.784 122.688C180.82 122.67 184.996 121.704 187.695 126.974L186.875 127.393Z" fill="#152338"/>
<path d="M126.348 243.286C126.512 240.824 126.348 237.56 126.348 237.56L129.193 244.982L127.424 244.745L126.348 243.286Z" fill="#FFC63B"/>
<path d="M137.891 239.383L143.088 279.449L146.499 274.762L137.891 239.383Z" fill="#FFC63B"/>
<path d="M206.132 200.23L210.983 198.333L213.828 195.196L212.223 200.23L207.737 201.014L206.132 200.23Z" fill="#FFC63B"/>
<path d="M102.774 33V31.416H104.742V32.792V33H102.774ZM108.614 31.416V33H106.63V32.808V31.416H108.614ZM110.438 34.536V29.864H106.63V28.744H110.87V27.016H106.63V25.56H104.742V27.016H100.838C100.982 26.664 101.126 26.328 101.27 25.992L99.5104 25.416C98.6464 27.688 97.1584 29.944 95.6384 31.384C95.9584 31.848 96.4704 32.872 96.6464 33.336C97.0944 32.888 97.5264 32.376 97.9584 31.832V40.424H99.7664V29.112C100.118 28.504 100.438 27.896 100.726 27.272V28.744H104.742V29.864H101.062V34.536H104.63C104.534 35.192 104.358 35.784 104.038 36.36C103.446 35.88 102.934 35.336 102.55 34.712L100.998 35.192C101.542 36.104 102.182 36.92 102.966 37.576C102.278 38.104 101.334 38.52 100.054 38.808C100.438 39.208 100.998 39.976 101.238 40.392C102.662 39.976 103.75 39.384 104.518 38.68C106.006 39.528 107.83 40.088 109.99 40.36C110.23 39.864 110.726 39.08 111.126 38.664C108.966 38.472 107.126 38.024 105.654 37.32C106.134 36.472 106.406 35.528 106.534 34.536H110.438ZM115.75 27.464C115.75 27.64 115.718 28.088 115.686 28.696C114.998 28.792 114.294 28.872 113.83 28.904C113.27 28.936 112.902 28.936 112.438 28.92L112.646 30.968C113.542 30.84 114.774 30.68 115.558 30.584C115.542 30.968 115.51 31.352 115.478 31.72C114.566 33.064 112.966 35.176 112.054 36.296L113.318 38.04C113.878 37.288 114.662 36.12 115.334 35.112C115.318 36.456 115.302 37.384 115.27 38.632C115.27 38.888 115.254 39.464 115.222 39.816H117.43C117.382 39.448 117.334 38.872 117.318 38.584C117.222 37.08 117.222 35.736 117.222 34.424C117.222 34.008 117.238 33.544 117.254 33.08C118.598 31.848 120.086 31.032 121.782 31.032C123.382 31.032 124.39 32.184 124.39 33.432C124.406 35.928 122.39 37.08 119.574 37.496L120.534 39.432C124.502 38.648 126.534 36.712 126.534 33.48C126.518 30.904 124.582 29.16 122.118 29.16C120.678 29.16 119.03 29.608 117.414 30.808C117.43 30.664 117.43 30.504 117.446 30.36C117.718 29.944 118.038 29.416 118.262 29.128L117.67 28.376C117.798 27.368 117.926 26.552 118.022 26.104L115.686 26.024C115.766 26.52 115.75 27 115.75 27.464ZM134.95 26.12L132.742 25.896C132.71 26.728 132.534 27.688 132.31 28.568C131.814 28.616 131.334 28.632 130.854 28.632C130.262 28.632 129.414 28.6 128.726 28.52L128.87 30.376C129.558 30.424 130.214 30.44 130.87 30.44C131.142 30.44 131.414 30.44 131.702 30.424C130.998 32.152 129.702 34.504 128.438 36.072L130.374 37.064C131.67 35.256 133.03 32.456 133.798 30.216C134.87 30.056 135.862 29.848 136.598 29.656L136.534 27.8C135.91 27.992 135.158 28.168 134.374 28.312C134.614 27.448 134.822 26.632 134.95 26.12ZM134.118 37.192C134.118 36.632 134.71 36.216 135.638 36.216C136.086 36.216 136.518 36.28 136.934 36.376C136.934 36.504 136.934 36.6 136.934 36.696C136.934 37.576 136.598 38.184 135.494 38.184C134.614 38.184 134.118 37.784 134.118 37.192ZM138.694 31.096H136.694C136.726 32.072 136.806 33.496 136.87 34.68C136.502 34.648 136.15 34.616 135.766 34.616C133.542 34.616 132.23 35.816 132.23 37.384C132.23 39.144 133.798 40.024 135.782 40.024C138.054 40.024 138.87 38.872 138.87 37.384C138.87 37.336 138.87 37.272 138.87 37.224C139.75 37.752 140.47 38.424 141.03 38.936L142.102 37.224C141.286 36.488 140.166 35.688 138.79 35.176C138.758 34.376 138.71 33.608 138.694 33.144C138.678 32.44 138.646 31.768 138.694 31.096ZM141.446 31.944L142.582 30.264C141.766 29.672 139.782 28.584 138.63 28.088L137.606 29.672C138.694 30.168 140.518 31.208 141.446 31.944ZM147.558 27.56L145.094 27.528C145.19 28.024 145.222 28.712 145.222 29.16C145.222 30.136 145.238 32.008 145.398 33.48C145.846 37.768 147.366 39.352 149.126 39.352C150.406 39.352 151.414 38.376 152.47 35.592L150.87 33.64C150.566 34.92 149.926 36.792 149.174 36.792C148.166 36.792 147.686 35.208 147.462 32.904C147.366 31.752 147.35 30.552 147.366 29.512C147.366 29.064 147.446 28.136 147.558 27.56ZM155.558 27.928L153.526 28.584C155.27 30.568 156.118 34.456 156.374 37.032L158.47 36.216C158.294 33.768 157.078 29.768 155.558 27.928ZM162.15 27.24V29.24C162.614 29.208 163.126 29.192 163.702 29.192H165.446V31.912H162.838C162.342 31.912 161.542 31.864 161.094 31.832V33.928C161.574 33.896 162.374 33.848 162.838 33.848H165.446V36.936C165.446 38.552 166.166 39.56 169.094 39.56C170.598 39.56 172.406 39.496 173.446 39.432L173.59 37.272C172.31 37.4 170.902 37.496 169.462 37.496C168.182 37.496 167.638 37.176 167.638 36.296V33.848H172.518C172.87 33.848 173.59 33.848 174.038 33.896L174.022 31.848C173.606 31.88 172.806 31.912 172.47 31.912H167.638V29.192H171.398C171.974 29.192 172.422 29.224 172.838 29.24V27.24C172.47 27.288 171.942 27.32 171.398 27.32H163.702C163.126 27.32 162.614 27.272 162.15 27.24ZM188.742 27.288L186.246 26.648C185.814 28.936 184.758 31.704 183.222 33.56C181.798 35.288 179.638 36.872 177.142 37.72L178.966 39.592C181.43 38.6 183.67 36.648 185.03 34.952C186.326 33.336 187.366 30.92 188.038 29.08C188.23 28.568 188.454 27.864 188.742 27.288ZM199.174 26.168L197.062 25.992C197.03 26.568 196.918 27.192 196.742 27.832C196.486 27.832 196.214 27.832 195.974 27.832C195.158 27.832 193.974 27.768 193.158 27.64V29.512C194.038 29.576 195.206 29.608 195.862 29.608C195.926 29.608 195.99 29.608 196.07 29.608C195.35 31.048 194.214 32.472 192.534 34.024L194.246 35.304C194.79 34.6 195.254 34.024 195.734 33.544C196.342 32.952 197.334 32.44 198.23 32.44C198.678 32.44 199.11 32.584 199.35 32.984C197.526 33.928 195.606 35.208 195.606 37.256C195.606 39.32 197.462 39.928 199.974 39.928C201.478 39.928 203.446 39.8 204.502 39.656L204.566 37.592C203.158 37.864 201.382 38.04 200.022 38.04C198.454 38.04 197.702 37.8 197.702 36.92C197.702 36.12 198.342 35.496 199.542 34.808C199.526 35.512 199.51 36.28 199.462 36.76H201.382C201.366 36.024 201.334 34.84 201.318 33.944C202.294 33.496 203.206 33.144 203.926 32.856C204.47 32.648 205.318 32.328 205.83 32.184L205.03 30.328C204.438 30.632 203.878 30.888 203.254 31.16C202.598 31.448 201.926 31.72 201.094 32.104C200.742 31.288 199.942 30.872 198.966 30.872C198.438 30.872 197.574 31 197.158 31.192C197.478 30.728 197.798 30.152 198.07 29.56C199.798 29.512 201.766 29.384 203.286 29.16L203.302 27.304C201.894 27.544 200.294 27.688 198.774 27.768C198.982 27.096 199.094 26.568 199.174 26.168ZM212.774 25.944H208.678V27.384H212.774V25.944ZM211.27 36.2V38.04H210.006V36.2H211.27ZM212.79 34.712H208.534V40.168H210.006V39.528H212.79V34.712ZM208.582 33.928H212.822V32.504H208.582V33.928ZM208.582 31.768H212.822V30.312H208.582V31.768ZM217.142 33.992H218.822V34.552H217.142V33.992ZM217.142 32.232H218.822V32.792H217.142V32.232ZM221.638 35.944C221.27 36.232 220.726 36.584 220.198 36.888C219.958 36.552 219.766 36.2 219.59 35.832H222.87V34.552H220.518V33.992H222.15V32.792H220.518V32.232H222.47V31.032H220.518V30.024H218.822V31.032H217.142V30.024H215.734C216.406 29.592 217.046 29.096 217.478 28.552L216.038 28.12H219.622L218.55 28.808C219.606 29.288 220.934 30.136 221.59 30.712L222.886 29.784C222.246 29.272 221.126 28.584 220.102 28.12H222.646V26.728H218.902V25.448H216.982V26.728H213.574V28.12H215.83C215.254 28.696 214.246 29.208 213.206 29.56V28.088H207.926V29.592H213.126L212.982 29.64C213.334 29.912 213.942 30.488 214.214 30.808C214.63 30.632 215.046 30.424 215.462 30.184V31.032H213.75V32.232H215.462V32.792H214.086V33.992H215.462V34.552H213.222V35.832H215.622C214.838 36.328 213.846 36.712 212.854 37C213.126 37.288 213.638 37.912 213.846 38.216C214.294 38.056 214.742 37.864 215.19 37.656V38.648C214.678 38.712 214.214 38.792 213.798 38.84L214.246 40.264C215.622 40.04 217.414 39.736 219.11 39.432L218.982 38.056C218.246 38.168 217.51 38.296 216.806 38.408V36.68C217.158 36.424 217.494 36.136 217.782 35.832H217.958C218.726 37.976 220.022 39.592 222.054 40.376C222.294 39.944 222.758 39.32 223.11 39.016C222.326 38.76 221.638 38.36 221.062 37.848C221.606 37.592 222.166 37.272 222.646 36.92L221.638 35.944ZM225.686 32.232L226.518 34.312C227.878 33.736 231.078 32.408 232.934 32.408C234.326 32.408 235.222 33.24 235.222 34.44C235.222 36.616 232.534 37.592 228.87 37.688L229.718 39.656C234.806 39.336 237.35 37.368 237.35 34.472C237.35 32.056 235.654 30.552 233.126 30.552C231.19 30.552 228.47 31.464 227.382 31.8C226.902 31.944 226.166 32.136 225.686 32.232ZM239.738 27.992L239.946 30.184C241.802 29.784 245.066 29.432 246.57 29.272C245.498 30.088 244.202 31.912 244.202 34.216C244.202 37.672 247.37 39.48 250.714 39.704L251.466 37.512C248.762 37.368 246.298 36.408 246.298 33.784C246.298 31.88 247.738 29.8 249.674 29.288C250.522 29.096 251.898 29.096 252.762 29.08L252.746 27.032C251.626 27.064 249.866 27.176 248.218 27.304C245.29 27.56 242.65 27.8 241.322 27.912C241.002 27.944 240.378 27.976 239.738 27.992ZM98.584 49.464C97.912 50.504 96.584 51.832 95.448 52.632C95.736 52.968 96.2 53.64 96.44 54.024C97.768 53.048 99.256 51.496 100.264 50.12L98.584 49.464ZM98.872 52.872C98.04 54.424 96.632 55.976 95.304 56.984C95.608 57.384 96.12 58.344 96.296 58.76C96.712 58.408 97.128 58.024 97.544 57.576V64.424H99.32V55.432C99.768 54.792 100.184 54.136 100.536 53.496L98.872 52.872ZM103.544 59.144H106.648C106.232 59.736 105.72 60.248 105.112 60.712C104.488 60.248 103.944 59.736 103.528 59.16L103.544 59.144ZM107.944 57.656L107.64 57.72H104.744C104.968 57.416 105.176 57.096 105.368 56.776C106.408 56.744 107.496 56.712 108.552 56.664C108.776 57.048 108.952 57.416 109.08 57.72L110.68 56.824C110.232 55.8 109.176 54.36 108.248 53.32L106.776 54.136C107.048 54.456 107.32 54.792 107.576 55.16L104.712 55.208C106.056 54.072 107.48 52.712 108.632 51.496L106.952 50.568C106.264 51.448 105.352 52.456 104.376 53.4C104.12 53.144 103.8 52.872 103.464 52.6C104.136 51.928 104.92 51.064 105.608 50.248L103.96 49.4C103.544 50.104 102.872 50.984 102.248 51.704C101.944 51.496 101.64 51.304 101.368 51.128L100.232 52.36C101.192 52.984 102.312 53.88 103.048 54.632C102.824 54.84 102.584 55.048 102.36 55.24C101.448 55.256 100.616 55.256 99.896 55.256L100.056 56.936L103.256 56.84C102.36 58.056 101.048 59.112 99.688 59.8C100.056 60.136 100.664 60.84 100.92 61.208C101.4 60.92 101.88 60.584 102.36 60.216C102.728 60.728 103.16 61.192 103.624 61.608C102.456 62.2 101.112 62.616 99.688 62.856C100.024 63.24 100.424 63.992 100.6 64.472C102.248 64.104 103.8 63.544 105.128 62.76C106.376 63.544 107.848 64.104 109.544 64.44C109.784 63.944 110.28 63.208 110.68 62.808C109.192 62.584 107.848 62.184 106.696 61.64C107.736 60.728 108.584 59.592 109.128 58.184L107.944 57.656ZM115.288 60.424V59.896H118.072V60.424H115.288ZM115.288 58.504H118.072V59.016H115.288V58.504ZM122.872 58.504V59.016H119.944V58.504H122.872ZM122.872 60.424H119.944V59.896H122.872V60.424ZM126.056 61.848H119.944V61.336H124.728V57.576H119.944V57.112H125.544V55.912H119.944V55.56H121.544V54.504H126.04V53.432H121.544V52.92H125.464V51.88H121.544V51.368H125.736V50.296H121.544V49.464H119.8V55.048H118.072V55.912H116.328C117.752 55.208 118.264 54.168 118.264 52.952V49.448H116.552V50.296H112.392V51.368H116.552V51.88H112.76V52.92H116.552V52.936C116.552 53.08 116.552 53.208 116.536 53.336C114.808 53.432 113.144 53.496 111.912 53.544L112.024 54.648C113.16 54.584 114.584 54.504 116.04 54.392C115.64 54.776 114.92 55.048 113.672 55.176C113.848 55.352 114.072 55.64 114.28 55.912H112.568V57.112H118.072V57.576H113.496V61.336H118.072V61.848H111.944V63.096H118.072V64.376H119.944V63.096H126.056V61.848ZM127.608 55.8L128.552 57.832C129.24 57.528 130.248 56.984 131.4 56.408C131.544 56.728 131.688 57.064 131.832 57.4C132.648 59.336 133.48 62.04 133.976 64.056L136.168 63.48C135.64 61.688 134.408 58.264 133.656 56.52C133.512 56.2 133.368 55.864 133.208 55.528C134.92 54.744 136.664 54.088 137.912 54.088C139.112 54.088 139.832 54.744 139.832 55.56C139.832 56.712 138.952 57.368 137.752 57.368C137.048 57.368 136.248 57.128 135.528 56.824L135.48 58.84C136.088 59.064 137.08 59.288 137.944 59.288C140.392 59.288 141.928 57.864 141.928 55.624C141.928 53.768 140.44 52.264 137.96 52.264C137.24 52.264 136.456 52.408 135.656 52.648L136.92 51.72C136.376 51.144 135.176 50.104 134.6 49.672L133.128 50.696C133.736 51.16 134.76 52.152 135.336 52.744C134.408 53.048 133.432 53.448 132.456 53.88C132.2 53.336 131.944 52.824 131.704 52.36C131.528 52.056 131.208 51.4 131.064 51.112L128.984 51.912C129.304 52.328 129.704 52.92 129.928 53.32C130.168 53.736 130.408 54.2 130.632 54.68C130.152 54.888 129.656 55.096 129.192 55.288C128.936 55.4 128.232 55.64 127.608 55.8ZM154.056 57.16C153.608 58.184 152.968 59.096 152.216 59.848C151.336 59.096 150.648 58.184 150.104 57.16H154.056ZM155.304 55.24L154.952 55.32H149.352C149.48 54.744 149.576 54.2 149.656 53.672H157.944V51.816H149.864C149.96 50.84 149.992 50.008 150.024 49.432H148.04C148.008 49.928 147.992 50.776 147.912 51.816H144.04V53.672H147.688C147.256 56.584 146.2 60.2 143.432 62.472C144.056 62.824 144.664 63.32 145.064 63.816C146.792 62.248 147.896 60.152 148.632 58.04C149.208 59.208 149.928 60.2 150.76 61.064C149.656 61.832 148.36 62.408 146.952 62.76C147.32 63.144 147.784 63.896 148.024 64.376C149.592 63.896 151.032 63.208 152.264 62.312C153.624 63.24 155.224 63.912 157.144 64.328C157.4 63.816 157.96 63 158.376 62.6C156.584 62.28 155.064 61.736 153.784 61C155.048 59.656 156.008 57.96 156.6 55.8L155.304 55.24ZM170.312 55.192H167.528L167.96 55.096C167.88 54.76 167.704 54.296 167.496 53.896H170.424C170.28 54.296 170.104 54.744 169.944 55.096L170.312 55.192ZM165.688 53.944C165.896 54.312 166.088 54.792 166.184 55.192H164.072V56.536H168.04V57.256H164.696V58.568H168.04V59.32H164.056V60.696H168.04V61.768H169.928V60.696H174.088V59.32H169.928V58.568H173.448V57.256H169.928V56.536H174.056V55.192H171.672C171.896 54.856 172.136 54.44 172.408 53.992L172.008 53.896H174.216V52.52H169.928V51.704H173.24V50.392H169.928V49.448H168.04V50.392H164.888V51.704H168.04V52.52H163.816V53.896H165.912L165.688 53.944ZM163.688 52.392C163.176 51.624 162.072 50.568 161.176 49.848L159.72 50.936C160.616 51.704 161.672 52.808 162.12 53.592L163.688 52.392ZM163.256 55.656H159.656V57.4H161.448V60.888C160.808 61.432 160.088 61.96 159.464 62.36L160.36 64.248C161.176 63.56 161.832 62.952 162.472 62.328C163.432 63.56 164.712 64.024 166.616 64.104C168.568 64.184 171.96 64.152 173.944 64.056C174.04 63.528 174.312 62.648 174.536 62.2C172.328 62.376 168.552 62.424 166.632 62.344C165 62.28 163.88 61.832 163.256 60.76V55.656ZM182.776 50.168L180.664 49.992C180.632 50.568 180.52 51.192 180.344 51.832C180.088 51.832 179.816 51.832 179.576 51.832C178.76 51.832 177.576 51.768 176.76 51.64V53.512C177.64 53.576 178.808 53.608 179.464 53.608C179.528 53.608 179.592 53.608 179.672 53.608C178.952 55.048 177.816 56.472 176.136 58.024L177.848 59.304C178.392 58.6 178.856 58.024 179.336 57.544C179.944 56.952 180.936 56.44 181.832 56.44C182.28 56.44 182.712 56.584 182.952 56.984C181.128 57.928 179.208 59.208 179.208 61.256C179.208 63.32 181.064 63.928 183.576 63.928C185.08 63.928 187.048 63.8 188.104 63.656L188.168 61.592C186.76 61.864 184.984 62.04 183.624 62.04C182.056 62.04 181.304 61.8 181.304 60.92C181.304 60.12 181.944 59.496 183.144 58.808C183.128 59.512 183.112 60.28 183.064 60.76H184.984C184.968 60.024 184.936 58.84 184.92 57.944C185.896 57.496 186.808 57.144 187.528 56.856C188.072 56.648 188.92 56.328 189.432 56.184L188.632 54.328C188.04 54.632 187.48 54.888 186.856 55.16C186.2 55.448 185.528 55.72 184.696 56.104C184.344 55.288 183.544 54.872 182.568 54.872C182.04 54.872 181.176 55 180.76 55.192C181.08 54.728 181.4 54.152 181.672 53.56C183.4 53.512 185.368 53.384 186.888 53.16L186.904 51.304C185.496 51.544 183.896 51.688 182.376 51.768C182.584 51.096 182.696 50.568 182.776 50.168ZM194.232 58.408H196.344V59.912C195.608 60.056 194.904 60.216 194.232 60.344V58.408ZM196.344 51.816V53.432H194.232V51.816H196.344ZM196.344 56.744H194.232V55.096H196.344V56.744ZM205.96 52.888H202.488C202.52 51.8 202.52 50.648 202.52 49.448H200.648C200.648 50.664 200.648 51.8 200.632 52.888H198.536V54.68H200.568C200.424 57.16 200.04 59.224 198.968 60.888L198.792 59.384L198.104 59.528V50.104H192.552V60.664C192.152 60.744 191.768 60.808 191.448 60.872L191.752 62.824C193.704 62.36 196.328 61.752 198.776 61.144C198.296 61.832 197.672 62.424 196.888 62.952C197.336 63.288 197.928 63.928 198.216 64.392C201.304 62.264 202.168 58.904 202.408 54.68H204.104C204.008 59.816 203.864 61.8 203.496 62.232C203.352 62.456 203.192 62.504 202.936 62.504C202.584 62.504 201.864 62.488 201.08 62.44C201.416 62.936 201.608 63.736 201.64 64.248C202.472 64.28 203.304 64.296 203.816 64.2C204.392 64.104 204.776 63.928 205.144 63.384C205.672 62.648 205.816 60.296 205.96 53.736V52.888ZM219.448 50.28H217.128C217.192 50.536 217.272 50.984 217.304 51.384C217.336 51.816 217.352 52.648 217.368 53.544C216.76 53.56 216.136 53.576 215.56 53.576C214.712 53.576 213.928 53.512 213.144 53.4V55.432C213.928 55.464 214.92 55.512 215.608 55.512C216.2 55.512 216.792 55.496 217.4 55.48C217.4 55.704 217.4 55.896 217.4 56.056C217.4 58.76 217.144 60.184 215.912 61.464C215.464 61.96 214.664 62.472 214.056 62.744L215.896 64.2C219.096 62.168 219.384 59.848 219.384 56.072C219.384 55.912 219.384 55.672 219.384 55.4C220.28 55.352 221.112 55.288 221.752 55.208L221.768 53.128C221.112 53.256 220.264 53.352 219.368 53.416C219.368 52.536 219.368 51.704 219.368 51.368C219.384 51.016 219.4 50.632 219.448 50.28ZM211.496 50.552L209.128 50.312C209.112 50.712 209.096 51.256 209.016 51.704C208.824 53 208.504 55.464 208.504 58.088C208.504 60.072 209.064 62.312 209.416 63.272L211.192 63.096C211.176 62.872 211.16 62.6 211.16 62.44C211.16 62.248 211.192 61.896 211.256 61.656C211.448 60.744 211.88 59.128 212.344 57.752L211.352 57.112C211.08 57.704 210.792 58.472 210.584 58.968C210.152 56.984 210.712 53.624 211.112 51.848C211.192 51.512 211.352 50.936 211.496 50.552ZM226.76 60.952C226.76 60.264 227.512 59.832 228.76 59.832C229.208 59.832 229.656 59.88 230.072 59.944C230.088 60.168 230.088 60.36 230.088 60.504C230.088 61.576 229.72 62.024 228.696 62.024C227.576 62.024 226.76 61.736 226.76 60.952ZM232.12 50.168H229.704C229.8 50.568 229.848 51.256 229.88 52.04C229.896 52.728 229.896 53.672 229.896 54.648C229.896 55.496 229.96 56.856 230.008 58.104C229.704 58.072 229.384 58.056 229.064 58.056C226.12 58.056 224.696 59.384 224.696 61.048C224.696 63.224 226.568 63.976 228.856 63.976C231.544 63.976 232.264 62.632 232.264 61.208C232.264 61.048 232.264 60.856 232.248 60.648C233.672 61.304 234.872 62.248 235.784 63.16L237.016 61.256C235.912 60.232 234.184 59.112 232.152 58.52C232.072 57.336 232.008 56.056 231.976 55.096C233.272 55.064 235.16 54.984 236.504 54.872L236.44 52.968C235.112 53.128 233.24 53.192 231.96 53.208C231.96 52.792 231.96 52.408 231.976 52.04C231.992 51.416 232.04 50.632 232.12 50.168ZM249.96 57.768C249.96 60.264 247.4 61.576 243.432 62.024L244.584 64.008C249.032 63.4 252.2 61.272 252.2 57.848C252.2 55.336 250.424 53.896 247.896 53.896C246.024 53.896 244.232 54.36 243.064 54.632C242.536 54.744 241.848 54.856 241.304 54.904L241.912 57.192C242.376 57.016 243 56.76 243.464 56.632C244.28 56.392 245.864 55.848 247.624 55.848C249.128 55.848 249.96 56.712 249.96 57.768ZM243.672 50.088L243.352 52.008C245.192 52.328 248.664 52.648 250.536 52.776L250.856 50.808C249.16 50.792 245.528 50.488 243.672 50.088Z" fill="black"/>
</svg>
