<svg width="351" height="351" viewBox="0 0 351 351" fill="none" xmlns="http://www.w3.org/2000/svg">
<path d="M92.8582 28.584C92.7302 29.128 92.4742 29.864 92.2662 30.344L93.3222 30.568H90.1862L90.9862 30.344C90.9222 29.864 90.7142 29.128 90.4422 28.584H92.8582ZM92.6502 34.968H95.2902V33.368H92.6502V32.136H95.4342V30.568H93.8182C94.0422 30.088 94.2982 29.448 94.5862 28.76L93.6582 28.584H95.3062V27.032H92.6502V25.576H90.8102V27.032H88.1222V28.584H89.9142L88.9382 28.808C89.1622 29.352 89.3542 30.04 89.4182 30.568H87.9462V32.136H90.8102V33.368H87.9942V34.968H90.4262C89.6902 36.168 88.5862 37.368 87.5462 38.056C87.9462 38.36 88.4902 38.984 88.7782 39.4C89.4662 38.84 90.1862 38.04 90.8102 37.144V40.36H92.6502V36.952C93.1142 37.4 93.5622 37.88 93.8182 38.2L94.9222 36.84C94.5542 36.552 93.2262 35.496 92.6502 35.096V34.968ZM102.698 30.712H97.7062V28.472C99.3862 28.12 101.21 27.624 102.618 27L101.098 25.608C100.122 26.136 98.5382 26.648 97.0182 27.016L95.9142 26.712V32.248C95.9142 34.456 95.7222 37.176 93.8822 39.128C94.3142 39.352 95.0022 40.008 95.2422 40.424C97.3542 38.232 97.6902 34.856 97.7062 32.472H99.3382V40.296H101.178V32.472H102.698V30.712ZM109.178 26.312L106.602 26.28C106.746 26.92 106.81 27.688 106.81 28.44C106.81 29.816 106.65 34.024 106.65 36.168C106.65 38.904 108.346 40.056 110.97 40.056C114.618 40.056 116.89 37.912 117.914 36.376L116.458 34.616C115.306 36.36 113.626 37.88 110.986 37.88C109.738 37.88 108.778 37.352 108.778 35.736C108.778 33.752 108.906 30.168 108.97 28.44C109.002 27.8 109.082 26.984 109.178 26.312ZM123.402 27.56L120.938 27.528C121.034 28.024 121.066 28.712 121.066 29.16C121.066 30.136 121.082 32.008 121.242 33.48C121.69 37.768 123.21 39.352 124.97 39.352C126.25 39.352 127.258 38.376 128.314 35.592L126.714 33.64C126.41 34.92 125.77 36.792 125.018 36.792C124.01 36.792 123.53 35.208 123.306 32.904C123.21 31.752 123.194 30.552 123.21 29.512C123.21 29.064 123.29 28.136 123.402 27.56ZM131.402 27.928L129.37 28.584C131.114 30.568 131.962 34.456 132.218 37.032L134.314 36.216C134.138 33.768 132.922 29.768 131.402 27.928ZM137.994 27.24V29.24C138.458 29.208 138.97 29.192 139.546 29.192H141.29V31.912H138.682C138.186 31.912 137.386 31.864 136.938 31.832V33.928C137.418 33.896 138.218 33.848 138.682 33.848H141.29V36.936C141.29 38.552 142.01 39.56 144.938 39.56C146.442 39.56 148.25 39.496 149.29 39.432L149.434 37.272C148.154 37.4 146.746 37.496 145.306 37.496C144.026 37.496 143.482 37.176 143.482 36.296V33.848H148.362C148.714 33.848 149.434 33.848 149.882 33.896L149.866 31.848C149.45 31.88 148.65 31.912 148.314 31.912H143.482V29.192H147.242C147.818 29.192 148.266 29.224 148.682 29.24V27.24C148.314 27.288 147.786 27.32 147.242 27.32H139.546C138.97 27.32 138.458 27.272 137.994 27.24ZM164.586 27.288L162.09 26.648C161.658 28.936 160.602 31.704 159.066 33.56C157.642 35.288 155.482 36.872 152.986 37.72L154.81 39.592C157.274 38.6 159.514 36.648 160.874 34.952C162.17 33.336 163.21 30.92 163.882 29.08C164.074 28.568 164.298 27.864 164.586 27.288ZM175.018 26.168L172.906 25.992C172.874 26.568 172.762 27.192 172.586 27.832C172.33 27.832 172.058 27.832 171.818 27.832C171.002 27.832 169.818 27.768 169.002 27.64V29.512C169.882 29.576 171.05 29.608 171.706 29.608C171.77 29.608 171.834 29.608 171.914 29.608C171.194 31.048 170.058 32.472 168.378 34.024L170.09 35.304C170.634 34.6 171.098 34.024 171.578 33.544C172.186 32.952 173.178 32.44 174.074 32.44C174.522 32.44 174.954 32.584 175.194 32.984C173.37 33.928 171.45 35.208 171.45 37.256C171.45 39.32 173.306 39.928 175.818 39.928C177.322 39.928 179.29 39.8 180.346 39.656L180.41 37.592C179.002 37.864 177.226 38.04 175.866 38.04C174.298 38.04 173.546 37.8 173.546 36.92C173.546 36.12 174.186 35.496 175.386 34.808C175.37 35.512 175.354 36.28 175.306 36.76H177.226C177.21 36.024 177.178 34.84 177.162 33.944C178.138 33.496 179.05 33.144 179.77 32.856C180.314 32.648 181.162 32.328 181.674 32.184L180.874 30.328C180.282 30.632 179.722 30.888 179.098 31.16C178.442 31.448 177.77 31.72 176.938 32.104C176.586 31.288 175.786 30.872 174.81 30.872C174.282 30.872 173.418 31 173.002 31.192C173.322 30.728 173.642 30.152 173.914 29.56C175.642 29.512 177.61 29.384 179.13 29.16L179.146 27.304C177.738 27.544 176.138 27.688 174.618 27.768C174.826 27.096 174.938 26.568 175.018 26.168ZM195.77 28.632H193.754V27.528H195.77V28.632ZM192.17 28.632H190.234V27.528H192.17V28.632ZM188.65 28.632H186.73V27.528H188.65V28.632ZM197.61 26.104H184.97V30.04H197.61V26.104ZM187.754 35.72H194.762V36.52H187.754V35.72ZM187.754 33.8H194.762V34.6H187.754V33.8ZM187.754 31.896H194.762V32.68H187.754V31.896ZM196.762 37.72V30.696H185.834V37.72H188.298C187.162 38.264 185.418 38.776 183.85 39.064C184.25 39.384 184.938 40.072 185.258 40.456C186.922 39.992 189.018 39.224 190.362 38.344L188.97 37.72H193.434L192.138 38.552C193.882 39.144 195.642 39.88 196.634 40.408L198.698 39.464C197.578 38.968 195.738 38.264 194.042 37.72H196.762ZM210.202 33.768C210.202 36.264 207.642 37.576 203.674 38.024L204.826 40.008C209.274 39.4 212.442 37.272 212.442 33.848C212.442 31.336 210.666 29.896 208.138 29.896C206.266 29.896 204.474 30.36 203.306 30.632C202.778 30.744 202.09 30.856 201.546 30.904L202.154 33.192C202.618 33.016 203.242 32.76 203.706 32.632C204.522 32.392 206.106 31.848 207.866 31.848C209.37 31.848 210.202 32.712 210.202 33.768ZM203.914 26.088L203.594 28.008C205.434 28.328 208.906 28.648 210.778 28.776L211.098 26.808C209.402 26.792 205.77 26.488 203.914 26.088ZM218.682 35.672V34.632H221.354V35.672H218.682ZM221.354 32.232V33.224H218.682V32.232H221.354ZM223.194 30.632H216.874V40.296H218.682V37.064H221.354V38.488C221.354 38.68 221.29 38.744 221.098 38.744C220.89 38.76 220.25 38.76 219.658 38.728C219.898 39.16 220.17 39.864 220.266 40.344C221.242 40.344 221.978 40.312 222.49 40.04C223.034 39.768 223.194 39.32 223.194 38.504V30.632ZM227.754 38.264C227.754 38.488 227.674 38.552 227.418 38.552C227.146 38.568 226.314 38.568 225.498 38.536C225.786 39.032 226.09 39.816 226.186 40.328C227.338 40.344 228.202 40.296 228.81 40.008C229.45 39.704 229.626 39.24 229.626 38.296V30.344H227.754V38.264ZM226.314 30.792H224.57V37.32H226.314V30.792ZM227.226 27.816C227.626 27.256 228.058 26.632 228.442 26.008L226.378 25.4C226.058 26.136 225.546 27.08 225.066 27.816H220.618L221.498 27.512C221.226 26.904 220.586 26.04 220.01 25.432L218.202 26.056C218.65 26.584 219.114 27.272 219.402 27.816H215.994V29.528H230.474V27.816H227.226ZM238.41 27.816V29.864C240.426 30.056 243.322 30.04 245.29 29.864V27.8C243.562 28.008 240.378 28.088 238.41 27.816ZM239.69 34.648L237.85 34.472C237.674 35.288 237.578 35.928 237.578 36.552C237.578 38.2 238.906 39.176 241.658 39.176C243.466 39.176 244.746 39.064 245.786 38.872L245.754 36.712C244.346 37 243.162 37.128 241.738 37.128C240.106 37.128 239.498 36.696 239.498 35.992C239.498 35.56 239.562 35.176 239.69 34.648ZM235.946 26.744L233.706 26.552C233.69 27.064 233.594 27.672 233.546 28.12C233.37 29.352 232.874 32.056 232.874 34.456C232.874 36.632 233.178 38.584 233.498 39.688L235.354 39.56C235.338 39.336 235.322 39.08 235.322 38.904C235.322 38.744 235.354 38.392 235.402 38.152C235.578 37.304 236.106 35.56 236.554 34.232L235.562 33.448C235.338 33.976 235.082 34.536 234.842 35.08C234.794 34.76 234.778 34.344 234.778 34.04C234.778 32.44 235.338 29.24 235.546 28.168C235.61 27.88 235.818 27.08 235.946 26.744ZM250.838 40.104L252.55 38.632C251.75 37.64 250.198 36.056 249.062 35.128L247.398 36.568C248.502 37.528 249.862 38.904 250.838 40.104ZM84.3462 57.24H89.8982V57.528C89.7062 57.688 89.5142 57.864 89.3062 58.024C87.6102 58.12 85.9142 58.216 84.3462 58.296V57.24ZM89.8982 52.6V53.528H84.3462V52.6H89.8982ZM89.8982 55.848H84.3462V54.888H89.8982V55.848ZM92.6822 54.232C92.4262 54.632 92.1542 55.032 91.8662 55.4V50.968H87.8822C88.1222 50.552 88.3782 50.104 88.6022 49.64L86.2662 49.416C86.1542 49.864 85.9622 50.424 85.7542 50.968H82.4422V58.392C81.5622 58.424 80.7782 58.456 80.0902 58.488L80.3462 60.376C82.0742 60.264 84.2662 60.088 86.5702 59.896C84.5702 61.032 82.2982 61.912 79.8662 62.52C80.2342 62.952 80.8742 63.8 81.1462 64.264C84.3622 63.304 87.3542 61.912 89.8982 60.008V62.056C89.8982 62.328 89.7862 62.424 89.4662 62.424C89.1462 62.44 88.0102 62.456 87.0182 62.392C87.2902 62.936 87.6102 63.832 87.6902 64.392C89.2262 64.408 90.2502 64.36 90.9542 64.04C91.6582 63.736 91.8662 63.16 91.8662 62.072V58.344C92.8582 57.368 93.7542 56.312 94.5222 55.128L92.6822 54.232ZM105.962 55.672V61.64H107.85V55.672H110.522V53.912H103.546V52.312C105.722 52.024 108.106 51.576 109.962 50.92L108.394 49.464C107.162 49.96 105.226 50.408 103.338 50.728L101.706 50.424V54.072C101.706 55.928 101.514 58.328 99.8822 60.072C100.33 60.312 101.002 60.968 101.258 61.384C102.794 59.8 103.322 57.56 103.482 55.672H105.962ZM100.09 52.232C99.5462 51.48 98.3782 50.488 97.4182 49.816L96.0102 50.968C96.9542 51.672 98.0902 52.728 98.5862 53.496L100.09 52.232ZM99.6902 55.656H95.9942V57.4H97.8342V60.776C97.1302 61.32 96.3302 61.848 95.6422 62.248L96.5702 64.232C97.4502 63.56 98.1542 62.936 98.8582 62.312C99.8982 63.56 101.21 64.008 103.178 64.088C105.082 64.168 108.298 64.136 110.218 64.04C110.314 63.496 110.602 62.568 110.81 62.12C108.682 62.28 105.082 62.328 103.21 62.248C101.546 62.184 100.346 61.752 99.6902 60.68V55.656ZM118.41 51.816V53.864C120.426 54.056 123.322 54.04 125.29 53.864V51.8C123.562 52.008 120.378 52.088 118.41 51.816ZM119.69 58.648L117.85 58.472C117.674 59.288 117.578 59.928 117.578 60.552C117.578 62.2 118.906 63.176 121.658 63.176C123.466 63.176 124.746 63.064 125.786 62.872L125.754 60.712C124.346 61 123.162 61.128 121.738 61.128C120.106 61.128 119.498 60.696 119.498 59.992C119.498 59.56 119.562 59.176 119.69 58.648ZM115.946 50.744L113.706 50.552C113.69 51.064 113.594 51.672 113.546 52.12C113.37 53.352 112.874 56.056 112.874 58.456C112.874 60.632 113.178 62.584 113.498 63.688L115.354 63.56C115.338 63.336 115.322 63.08 115.322 62.904C115.322 62.744 115.354 62.392 115.402 62.152C115.578 61.304 116.106 59.56 116.554 58.232L115.562 57.448C115.338 57.976 115.082 58.536 114.842 59.08C114.794 58.76 114.778 58.344 114.778 58.04C114.778 56.44 115.338 53.24 115.546 52.168C115.61 51.88 115.818 51.08 115.946 50.744ZM134.794 50.12L132.586 49.896C132.554 50.728 132.378 51.688 132.154 52.568C131.658 52.616 131.178 52.632 130.698 52.632C130.106 52.632 129.258 52.6 128.57 52.52L128.714 54.376C129.402 54.424 130.058 54.44 130.714 54.44C130.986 54.44 131.258 54.44 131.546 54.424C130.842 56.152 129.546 58.504 128.282 60.072L130.218 61.064C131.514 59.256 132.874 56.456 133.642 54.216C134.714 54.056 135.706 53.848 136.442 53.656L136.378 51.8C135.754 51.992 135.002 52.168 134.218 52.312C134.458 51.448 134.666 50.632 134.794 50.12ZM133.962 61.192C133.962 60.632 134.554 60.216 135.482 60.216C135.93 60.216 136.362 60.28 136.778 60.376C136.778 60.504 136.778 60.6 136.778 60.696C136.778 61.576 136.442 62.184 135.338 62.184C134.458 62.184 133.962 61.784 133.962 61.192ZM138.538 55.096H136.538C136.57 56.072 136.65 57.496 136.714 58.68C136.346 58.648 135.994 58.616 135.61 58.616C133.386 58.616 132.074 59.816 132.074 61.384C132.074 63.144 133.642 64.024 135.626 64.024C137.898 64.024 138.714 62.872 138.714 61.384C138.714 61.336 138.714 61.272 138.714 61.224C139.594 61.752 140.314 62.424 140.874 62.936L141.946 61.224C141.13 60.488 140.01 59.688 138.634 59.176C138.602 58.376 138.554 57.608 138.538 57.144C138.522 56.44 138.49 55.768 138.538 55.096ZM141.29 55.944L142.426 54.264C141.61 53.672 139.626 52.584 138.474 52.088L137.45 53.672C138.538 54.168 140.362 55.208 141.29 55.944ZM147.402 51.56L144.938 51.528C145.034 52.024 145.066 52.712 145.066 53.16C145.066 54.136 145.082 56.008 145.242 57.48C145.69 61.768 147.21 63.352 148.97 63.352C150.25 63.352 151.258 62.376 152.314 59.592L150.714 57.64C150.41 58.92 149.77 60.792 149.018 60.792C148.01 60.792 147.53 59.208 147.306 56.904C147.21 55.752 147.194 54.552 147.21 53.512C147.21 53.064 147.29 52.136 147.402 51.56ZM155.402 51.928L153.37 52.584C155.114 54.568 155.962 58.456 156.218 61.032L158.314 60.216C158.138 57.768 156.922 53.768 155.402 51.928ZM166.634 50.36L164.25 50.12C164.266 51.128 164.138 52.296 163.914 53.512C163.098 53.576 162.346 53.624 161.85 53.64C161.258 53.656 160.714 53.688 160.138 53.64L160.33 55.816C160.81 55.736 161.658 55.624 162.106 55.544C162.41 55.512 162.906 55.448 163.482 55.384C162.906 57.576 161.802 60.808 160.25 62.904L162.33 63.736C163.802 61.384 164.986 57.592 165.594 55.16C166.042 55.128 166.442 55.096 166.698 55.096C167.706 55.096 168.25 55.272 168.25 56.552C168.25 58.136 168.042 60.072 167.61 60.984C167.354 61.512 166.938 61.672 166.41 61.672C165.978 61.672 165.066 61.512 164.442 61.336L164.794 63.448C165.338 63.56 166.09 63.672 166.714 63.672C167.914 63.672 168.81 63.32 169.338 62.2C170.026 60.808 170.25 58.216 170.25 56.328C170.25 54.024 169.05 53.272 167.354 53.272C167.018 53.272 166.538 53.304 166.01 53.336C166.122 52.76 166.234 52.168 166.346 51.688C166.426 51.288 166.538 50.776 166.634 50.36ZM172.138 51.864L170.234 52.68C171.37 54.088 172.506 56.984 172.922 58.76L174.954 57.816C174.474 56.296 173.13 53.24 172.138 51.864ZM182.714 51.8H188.762V53.352H190.442V50.184H181.098V53.448H182.714V51.8ZM183.514 52.184C183.418 53.992 183.114 54.904 180.778 55.432C181.098 55.752 181.53 56.376 181.69 56.776C184.57 56.04 185.098 54.616 185.242 52.184H183.514ZM180.586 56.152L179.29 56.52V54.216H180.746V52.472H179.29V49.464H177.562V52.472H175.882V54.216H177.562V56.984C176.842 57.16 176.17 57.336 175.626 57.448L176.042 59.272C176.506 59.144 177.034 59 177.562 58.84V62.376C177.562 62.584 177.482 62.648 177.29 62.648C177.098 62.664 176.538 62.664 175.962 62.632C176.186 63.144 176.394 63.928 176.442 64.392C177.498 64.408 178.17 64.344 178.666 64.04C179.146 63.736 179.29 63.256 179.29 62.376V58.328C179.802 58.184 180.314 58.024 180.826 57.864L180.586 56.152ZM190.474 59.4V57.704H186.618V56.184C186.89 56.344 187.274 56.408 187.818 56.408H189.082C190.138 56.408 190.57 55.976 190.73 54.296C190.282 54.216 189.578 53.96 189.258 53.704C189.226 54.76 189.162 54.904 188.874 54.904H188.106C187.818 54.904 187.754 54.872 187.754 54.472V52.168H186.058V54.488C186.058 55.32 186.154 55.832 186.538 56.12H184.73V57.704H180.938V59.4H183.706C182.81 60.696 181.434 61.832 179.962 62.44C180.378 62.792 180.906 63.464 181.178 63.896C182.538 63.192 183.786 62.056 184.73 60.712V64.376H186.618V60.728C187.482 61.96 188.554 63.064 189.674 63.752C189.962 63.304 190.538 62.632 190.954 62.296C189.722 61.672 188.49 60.568 187.626 59.4H190.474ZM197.178 50.312L194.602 50.28C194.746 50.92 194.81 51.688 194.81 52.44C194.81 53.816 194.65 58.024 194.65 60.168C194.65 62.904 196.346 64.056 198.97 64.056C202.618 64.056 204.89 61.912 205.914 60.376L204.458 58.616C203.306 60.36 201.626 61.88 198.986 61.88C197.738 61.88 196.778 61.352 196.778 59.736C196.778 57.752 196.906 54.168 196.97 52.44C197.002 51.8 197.082 50.984 197.178 50.312ZM207.894 51.992L208.102 54.184C209.958 53.784 213.222 53.432 214.726 53.272C213.654 54.088 212.358 55.912 212.358 58.216C212.358 61.672 215.526 63.48 218.87 63.704L219.622 61.512C216.918 61.368 214.454 60.408 214.454 57.784C214.454 55.88 215.894 53.8 217.83 53.288C218.678 53.096 220.054 53.096 220.918 53.08L220.902 51.032C219.782 51.064 218.022 51.176 216.374 51.304C213.446 51.56 210.806 51.8 209.478 51.912C209.158 51.944 208.534 51.976 207.894 51.992ZM226.182 50.888L226.262 52.952C226.678 52.888 227.238 52.84 227.558 52.824C228.294 52.776 229.67 52.728 230.31 52.696C229.942 53.448 229.478 54.536 229.03 55.592C225.814 55.736 223.558 57.624 223.558 60.104C223.558 61.72 224.614 62.696 226.022 62.696C227.11 62.696 227.878 62.248 228.518 61.288C229.078 60.408 229.75 58.808 230.326 57.448C231.702 57.64 232.982 58.12 234.118 58.744C233.59 60.2 232.47 61.72 230.054 62.76L231.75 64.152C233.894 63.032 235.11 61.624 235.814 59.816C236.31 60.184 236.774 60.552 237.19 60.936L238.118 58.712C237.654 58.392 237.078 58.024 236.406 57.64C236.566 56.744 236.646 55.752 236.71 54.68L234.614 54.44C234.662 54.92 234.662 55.56 234.614 56.184C234.598 56.36 234.582 56.536 234.566 56.728C233.526 56.28 232.342 55.896 231.094 55.704C231.67 54.344 232.278 52.952 232.694 52.264C232.822 52.04 233.014 51.832 233.238 51.592L231.958 50.6C231.686 50.712 231.27 50.808 230.87 50.824C230.118 50.888 228.422 50.968 227.51 50.968C227.158 50.968 226.614 50.936 226.182 50.888ZM225.43 59.8C225.43 58.792 226.438 57.704 228.23 57.432C227.782 58.44 227.35 59.448 226.934 60.04C226.646 60.44 226.422 60.6 226.102 60.6C225.734 60.6 225.43 60.328 225.43 59.8ZM242.518 60.952C242.518 60.264 243.27 59.832 244.518 59.832C244.966 59.832 245.414 59.88 245.83 59.944C245.846 60.168 245.846 60.36 245.846 60.504C245.846 61.576 245.478 62.024 244.454 62.024C243.334 62.024 242.518 61.736 242.518 60.952ZM247.878 50.168H245.462C245.558 50.568 245.606 51.256 245.638 52.04C245.654 52.728 245.654 53.672 245.654 54.648C245.654 55.496 245.718 56.856 245.766 58.104C245.462 58.072 245.142 58.056 244.822 58.056C241.878 58.056 240.454 59.384 240.454 61.048C240.454 63.224 242.326 63.976 244.614 63.976C247.302 63.976 248.022 62.632 248.022 61.208C248.022 61.048 248.022 60.856 248.006 60.648C249.43 61.304 250.63 62.248 251.542 63.16L252.774 61.256C251.67 60.232 249.942 59.112 247.91 58.52C247.83 57.336 247.766 56.056 247.734 55.096C249.03 55.064 250.918 54.984 252.262 54.872L252.198 52.968C250.87 53.128 248.998 53.192 247.718 53.208C247.718 52.792 247.718 52.408 247.734 52.04C247.75 51.416 247.798 50.632 247.878 50.168ZM265.718 57.768C265.718 60.264 263.158 61.576 259.19 62.024L260.342 64.008C264.79 63.4 267.958 61.272 267.958 57.848C267.958 55.336 266.182 53.896 263.654 53.896C261.782 53.896 259.99 54.36 258.822 54.632C258.294 54.744 257.606 54.856 257.062 54.904L257.67 57.192C258.134 57.016 258.758 56.76 259.222 56.632C260.038 56.392 261.622 55.848 263.382 55.848C264.886 55.848 265.718 56.712 265.718 57.768ZM259.43 50.088L259.11 52.008C260.95 52.328 264.422 52.648 266.294 52.776L266.614 50.808C264.918 50.792 261.286 50.488 259.43 50.088Z" fill="black"/>
<path d="M145.631 160.277C146.694 135.359 146.759 133.005 146.759 133.005L203.102 103.165C217.294 118.763 212.928 162.647 203.102 178.54H172.641L145.631 160.277Z" fill="#223851"/>
<path d="M216.918 240.033L223.343 260.34L227.513 264.623L237.045 262.073L231.796 238.071L216.918 240.033Z" fill="#FFC63B"/>
<path d="M161.474 176.758L121.04 144.008L164.188 113.842L172.641 111.668L181.095 105.34L196.431 98.1133L198.475 94.2056L190.659 88.9899L185.297 89.7747L162.684 104.653L102.957 132.432C97.2508 135.081 95.0926 143.976 98.9349 148.946L139.859 199.811L161.474 176.758Z" fill="#FFDB6E"/>
<path d="M148.836 212.401C148.836 212.401 138.044 211.175 107.715 183.33C107.715 183.33 126.861 165.296 131.929 150.924L149.31 162.745C149.31 162.745 161.85 170.888 164.532 173.046C172.625 179.537 194.24 175.744 194.24 175.744L212.928 182.774C217.474 184.491 221.038 188.137 222.624 192.732L237.045 234.408L204.524 251.658" fill="#6998FF"/>
<path d="M192.9 184.409L195.532 167.324L172.642 164.609L166.38 180.96C166.183 183.069 166.232 185.292 166.559 187.565C168.178 198.732 175.994 206.858 184.021 205.697C192.049 204.537 197.249 194.53 195.63 183.363C195.319 181.172 194.764 179.096 194.011 177.183" fill="#FFDB6E"/>
<path d="M194.011 177.199L185.214 179.537L168.406 172.245L170.369 163.171L184.25 168.239L195.531 166.849L194.42 174.485L194.011 177.199Z" fill="#FFC63B"/>
<path d="M167.278 174.747L165.382 173.929L150.552 163.579L159.169 177.493L166.265 183.281C166.265 183.298 166.641 175.515 167.278 174.747Z" fill="#4E88F1"/>
<path d="M187.209 168.55C205.387 168.55 220.122 151.391 220.122 130.225C220.122 109.059 205.387 91.9001 187.209 91.9001C169.032 91.9001 154.296 109.059 154.296 130.225C154.296 151.391 169.032 168.55 187.209 168.55Z" fill="#FFDB6E"/>
<path d="M185.33 178.801L185.215 179.537L192.376 182.595H195.532L196.726 180.371L193.308 174.158L185.33 178.801Z" fill="#FFC63B"/>
<path d="M166.265 183.298L172.756 188.595L185.035 190.982L180.13 183.249L166.265 174.501" fill="#FFC63B"/>
<path d="M194.24 175.744L206.077 180.191L204.213 181.941L195.532 182.595L194.011 177.199L194.24 175.744Z" fill="#4E88F1"/>
<path d="M202.791 97.6062C192.523 104.081 175.029 115.837 179.64 171.035L177.334 167.569L164.532 118.6L202.791 97.6062Z" fill="#FFC63B"/>
<path d="M199.472 100.778C184.97 101.629 164.679 144.139 185.624 190.181C185.624 190.181 144.83 181.777 146.841 133.054C149.277 73.6533 188.06 78.9508 194.894 86.5373C208.874 81.1908 229.933 101.04 224.259 137.664C217.163 183.559 193.684 187.859 193.684 187.859C193.684 187.859 211.359 179.603 212.242 135.408C212.242 135.408 213.206 107.727 199.472 100.778Z" fill="#2D476D"/>
<path d="M216.918 168.795L208.546 204.422L211.735 205.174L220.106 169.596C219.599 169.58 219.109 169.498 218.602 169.384C218.013 169.253 217.457 169.057 216.918 168.795Z" fill="#96ABC0"/>
<path d="M217.098 168.01L216.918 168.795C217.458 169.057 218.013 169.253 218.586 169.384C219.076 169.498 219.583 169.564 220.09 169.596L220.286 168.762L217.098 168.01Z" fill="#7D95AA"/>
<path d="M205.963 213.693C205.963 213.693 212.225 258.002 194.207 296.653C194.207 296.653 157.942 316.682 122.462 279.208L141.625 209.409" fill="#6998FF"/>
<path d="M181.47 104.081L185.852 107.711L178.756 112.845L173.606 113.09L170.205 110.474" fill="#FFDB6E"/>
<path d="M207.663 206.777L211.489 207.676C212.012 207.807 212.552 207.48 212.666 206.94L219.435 178.115C219.566 177.591 219.239 177.052 218.7 176.937L214.874 176.038C214.35 175.907 213.811 176.234 213.696 176.774L206.927 205.599C206.797 206.123 207.124 206.646 207.663 206.777Z" fill="#2D476D"/>
<path d="M214.596 208.412L225.894 259.784L227.513 264.624L233.644 267.697H239.628L244.795 260.585L246.92 253.326L242.571 239.412L222.232 200.613L223.932 193.173L220.106 178.54L213.664 177.51L207.631 179.341L207.026 185.472L208.252 187.042L207.026 189.527V193.827V198.667L207.369 200.187L210.754 202.771L213.664 203.834L214.596 208.412Z" fill="#FFDB6E"/>
<path d="M235.899 151.564C238.521 140.409 235.024 130.044 228.088 128.414C221.152 126.784 213.404 134.505 210.783 145.661C208.161 156.816 211.658 167.181 218.594 168.811C225.53 170.441 233.278 162.719 235.899 151.564Z" fill="#96ABC0"/>
<path d="M233.878 151.089C236.079 141.727 233.145 133.029 227.325 131.661C221.506 130.293 215.005 136.774 212.804 146.136C210.604 155.498 213.538 164.196 219.357 165.564C225.176 166.932 231.678 160.451 233.878 151.089Z" fill="#C9DCF4"/>
<path d="M228.265 131.696C227.595 131.533 226.924 131.484 226.237 131.533C226.466 131.566 226.712 131.598 226.941 131.664C232.679 133.037 235.573 141.735 233.399 151.088C231.486 159.361 226.254 165.378 221.104 165.721C226.663 166.441 232.647 160.097 234.74 151.12C236.898 141.768 234.004 133.07 228.265 131.696Z" fill="#ACC5E9"/>
<path d="M213.925 146.183C215.838 137.91 221.07 131.893 226.221 131.549C220.662 130.83 214.678 137.174 212.585 146.15C210.41 155.519 213.304 164.201 219.043 165.574C219.713 165.738 220.384 165.787 221.07 165.738C220.842 165.705 220.596 165.672 220.367 165.607C214.661 164.233 211.767 155.535 213.925 146.183Z" fill="#ACC5E9"/>
<path d="M200.78 143.599L200.682 142.782C201.451 142.684 202.268 142.439 202.399 142.259C202.399 141.507 202.056 135.424 202.056 135.375L202.873 135.326C202.889 135.588 203.216 141.605 203.216 142.275C203.2 143.223 201.5 143.518 200.78 143.599Z" fill="#152338"/>
<path d="M197.167 150.924C195.794 150.924 194.518 150.385 193.325 149.306L193.881 148.701C196.415 151.006 198.884 150.009 200.519 149.044L200.928 149.747C199.587 150.532 198.344 150.924 197.167 150.924Z" fill="#152338"/>
<path d="M186.163 125.091L185.542 124.568C186.964 122.884 189.744 121.821 192.703 123.227L192.344 123.963C189.417 122.557 187.095 124.012 186.163 125.091Z" fill="#152338"/>
<path d="M210.067 126.562C209.282 125.124 208.318 124.224 207.238 123.93C205.996 123.587 204.966 124.094 204.671 124.257L204.263 123.554C204.622 123.342 205.914 122.704 207.451 123.145C208.759 123.521 209.887 124.535 210.786 126.17L210.067 126.562Z" fill="#152338"/>
<path d="M189.711 134.002C189.629 134.002 189.564 133.986 189.482 133.969C189.04 133.838 188.795 133.397 188.91 132.955C189.498 130.895 189.253 128.328 189.253 128.296C189.204 127.854 189.531 127.445 189.989 127.396C190.43 127.347 190.839 127.674 190.888 128.132C190.904 128.247 191.166 131.026 190.496 133.397C190.397 133.757 190.07 134.002 189.711 134.002Z" fill="#152338"/>
<path d="M207.141 135.572C207.042 135.572 206.928 135.555 206.83 135.506C206.405 135.343 206.209 134.852 206.372 134.443C207.239 132.285 206.879 130.094 206.879 130.062C206.797 129.62 207.108 129.195 207.549 129.113C207.991 129.031 208.416 129.326 208.498 129.784C208.514 129.898 208.939 132.449 207.893 135.048C207.762 135.375 207.468 135.572 207.141 135.572Z" fill="#152338"/>
<path d="M147.184 125.729L164.172 113.842L172.625 111.668L181.078 105.34L196.414 98.1133L198.458 94.2056L190.643 88.9899L185.28 89.7747L162.668 104.653L149.735 110.67C149.735 110.67 147.854 113.891 147.168 117.75C146.726 120.382 147.462 123.309 147.184 125.729Z" fill="#FFDB6E"/>
<path d="M171.988 111.847L172.446 112.207L174.391 111.602L182.321 106.975L183.482 105.749L182.305 104.784L176.304 108.937L171.988 111.847Z" fill="#FFC63B"/>
<path d="M221.267 201.283L215.643 203.948L216.215 204.487L220.875 203.621L221.463 201.904L221.267 201.283Z" fill="#FFC63B"/>
<path d="M120.599 143.992L117.95 144.417L114.239 143.256L117.41 145.382H118.931L120.599 143.992Z" fill="#FFC63B"/>
<path d="M205.963 213.693C205.963 213.693 208.301 238.986 205.963 250.873L208.612 249.467C208.612 249.467 209.772 220.02 205.963 213.693Z" fill="#4E88F1"/>
<path d="M148.836 212.401C148.836 212.401 145.386 211.534 141.658 209.409L122.495 279.208C122.495 279.208 125.095 281.824 125.962 282.69C127.531 284.26 130.507 286.729 130.507 286.729C130.507 286.729 144.732 222.407 148.836 212.401Z" fill="#4E88F1"/>
<path d="M227.333 131.68C227.153 131.631 226.973 131.599 226.777 131.582C232.238 133.348 234.919 141.785 232.794 150.859C230.668 159.933 224.488 166.294 218.814 165.443C218.994 165.493 219.174 165.558 219.354 165.591C225.174 166.964 231.682 160.473 233.873 151.121C236.08 141.736 233.153 133.037 227.333 131.68Z" fill="white"/>
<path d="M183.236 104.081L190.054 99.4048L194.518 97.0504L198.066 95.0066L196.431 98.1131L183.236 104.081Z" fill="#FFC63B"/>
</svg>
