<svg width="351" height="351" viewBox="0 0 351 351" fill="none" xmlns="http://www.w3.org/2000/svg">
<g clip-path="url(#clip0)">
<path d="M87.0032 271.643H-87.1838C-87.293 271.643 -87.4021 271.535 -87.4021 271.428V121.027C-87.4021 120.92 -87.293 120.812 -87.1838 120.812H87.0032C87.1342 120.812 87.2215 120.92 87.2215 121.027V271.428C87.2215 271.535 87.1124 271.643 87.0032 271.643Z" fill="#DFCFCA"/>
<path d="M95.9527 182.148H-87.4021V193.062H95.9527V182.148Z" fill="#F5F5F5"/>
<path d="M95.9527 185.423H-87.4021V189.788H95.9527V185.423Z" fill="#B0968E"/>
<path d="M49.6775 120.812H40.9463V271.643H49.6775V120.812Z" fill="#C5A69C"/>
<path d="M-95.042 110.116H174.533V88.2882H-76.8001L-95.042 104.441V110.116Z" fill="#C27056"/>
<path d="M37.6719 129.543H10.1687V162.285H37.6719V129.543Z" fill="#F5F5F5"/>
<path d="M80.4549 129.543H52.9517V162.285H80.4549V129.543Z" fill="#F5F5F5"/>
<path d="M65.6119 132.599H56.0076V144.823H65.6119V132.599Z" fill="#D8E5FF"/>
<path d="M77.3989 132.599H67.7947V144.823H77.3989V132.599Z" fill="#D8E5FF"/>
<path d="M65.6119 147.005H56.0076V159.229H65.6119V147.005Z" fill="#D8E5FF"/>
<path d="M77.3989 147.005H67.7947V159.229H77.3989V147.005Z" fill="#D8E5FF"/>
<path d="M37.6719 201.794H10.1687V234.536H37.6719V201.794Z" fill="#F5F5F5"/>
<path d="M80.4549 201.794H52.9517V234.536H80.4549V201.794Z" fill="#F5F5F5"/>
<path d="M65.6119 204.849H56.0076V217.073H65.6119V204.849Z" fill="#D8E5FF"/>
<path d="M77.3989 204.849H67.7947V217.073H77.3989V204.849Z" fill="#D8E5FF"/>
<path d="M65.6119 219.256H56.0076V231.48H65.6119V219.256Z" fill="#D8E5FF"/>
<path d="M77.3989 219.256H67.7947V231.48H77.3989V219.256Z" fill="#D8E5FF"/>
<path d="M79.5817 110.116H-87.4021V121.03H79.5817V110.116Z" fill="#EEEEEE"/>
<path d="M262.063 271.643H436.25C436.359 271.643 436.469 271.535 436.469 271.428V121.027C436.469 120.92 436.359 120.812 436.25 120.812H262.063C261.932 120.812 261.845 120.92 261.845 121.027V271.428C261.845 271.535 261.954 271.643 262.063 271.643Z" fill="#DFCFCA"/>
<path d="M253.114 182.148H436.469V193.062H253.114V182.148Z" fill="#F5F5F5"/>
<path d="M253.114 185.423H436.469V189.788H253.114V185.423Z" fill="#B0968E"/>
<path d="M299.389 120.812H308.12V271.643H299.389V120.812Z" fill="#C5A69C"/>
<path d="M444.108 110.116H174.533V88.2882H425.867L444.108 104.441V110.116Z" fill="#C27056"/>
<path d="M311.395 129.543H338.898V162.285H311.395V129.543Z" fill="#F5F5F5"/>
<path d="M314.45 132.599H324.055V144.823H314.45V132.599Z" fill="#D8E5FF"/>
<path d="M314.45 147.005H324.055V159.229H314.45V147.005Z" fill="#D8E5FF"/>
<path d="M268.612 129.543H296.115V162.285H268.612V129.543Z" fill="#F5F5F5"/>
<path d="M283.455 132.599H293.059V144.823H283.455V132.599Z" fill="#D8E5FF"/>
<path d="M271.668 132.599H281.272V144.823H271.668V132.599Z" fill="#D8E5FF"/>
<path d="M283.455 147.005H293.059V159.229H283.455V147.005Z" fill="#D8E5FF"/>
<path d="M271.668 147.005H281.272V159.229H271.668V147.005Z" fill="#D8E5FF"/>
<path d="M311.395 201.794H338.898V234.536H311.395V201.794Z" fill="#F5F5F5"/>
<path d="M314.45 204.849H324.055V217.073H314.45V204.849Z" fill="#D8E5FF"/>
<path d="M314.45 219.256H324.055V231.48H314.45V219.256Z" fill="#D8E5FF"/>
<path d="M268.612 201.794H296.115V234.536H268.612V201.794Z" fill="#F5F5F5"/>
<path d="M283.455 204.849H293.059V217.073H283.455V204.849Z" fill="#D8E5FF"/>
<path d="M271.668 204.849H281.272V217.073H271.668V204.849Z" fill="#D8E5FF"/>
<path d="M283.455 219.256H293.059V231.48H283.455V219.256Z" fill="#D8E5FF"/>
<path d="M271.668 219.256H281.272V231.48H271.668V219.256Z" fill="#D8E5FF"/>
<path d="M269.485 110.116H436.469V121.03H269.485V110.116Z" fill="#EEEEEE"/>
<path d="M261.627 271.643H87.4397C87.3087 271.643 87.2214 271.562 87.2214 271.482V110.278C87.2214 110.197 87.3087 110.116 87.4397 110.116H261.627C261.736 110.116 261.845 110.197 261.845 110.278V271.482C261.845 271.562 261.736 271.643 261.627 271.643Z" fill="#DFCFCA"/>
<path d="M279.307 120.812V96.8011L174.533 67.3334L69.759 96.8011V120.812H279.307Z" fill="#C27056"/>
<path d="M279.307 96.8011H69.759V120.812H279.307V96.8011Z" fill="#F5F5F5"/>
<path d="M269.485 182.148H79.5818V193.062H269.485V182.148Z" fill="#F5F5F5"/>
<path d="M269.485 185.423H79.5818V189.788H269.485V185.423Z" fill="#B0968E"/>
<path d="M94.8613 120.812H79.5818V258.546H94.8613V120.812Z" fill="#C5A69C"/>
<path d="M269.485 120.812H254.205V258.546H269.485V120.812Z" fill="#C5A69C"/>
<path d="M150.741 120.812H142.01V258.546H150.741V120.812Z" fill="#C5A69C"/>
<path d="M207.057 120.812H198.326V258.546H207.057V120.812Z" fill="#C5A69C"/>
<path d="M137.862 199.611H99.0085V258.546H137.862V199.611Z" fill="#B7A7A1"/>
<path d="M194.178 199.611H154.888V258.546H194.178V199.611Z" fill="#B7A7A1"/>
<path d="M250.058 199.611H211.204V258.546H250.058V199.611Z" fill="#B7A7A1"/>
<path d="M174.533 92.8721C179.717 92.8721 183.919 88.6699 183.919 83.4861C183.919 78.3024 179.717 74.1001 174.533 74.1001C169.349 74.1001 165.147 78.3024 165.147 83.4861C165.147 88.6699 169.349 92.8721 174.533 92.8721Z" fill="#F5F5F5"/>
<path d="M131.532 129.761H104.029V162.503H131.532V129.761Z" fill="#F5F5F5"/>
<path d="M116.689 132.817H107.085V145.041H116.689V132.817Z" fill="#D8E5FF"/>
<path d="M128.476 132.817H118.872V145.041H128.476V132.817Z" fill="#D8E5FF"/>
<path d="M116.689 147.224H107.085V159.447H116.689V147.224Z" fill="#D8E5FF"/>
<path d="M128.476 147.224H118.872V159.447H128.476V147.224Z" fill="#D8E5FF"/>
<path d="M188.285 129.761H160.782V162.503H188.285V129.761Z" fill="#F5F5F5"/>
<path d="M173.442 132.817H163.838V145.041H173.442V132.817Z" fill="#D8E5FF"/>
<path d="M185.229 132.817H175.625V145.041H185.229V132.817Z" fill="#D8E5FF"/>
<path d="M173.442 147.224H163.838V159.447H173.442V147.224Z" fill="#D8E5FF"/>
<path d="M185.229 147.224H175.625V159.447H185.229V147.224Z" fill="#D8E5FF"/>
<path d="M245.038 129.761H217.534V162.503H245.038V129.761Z" fill="#F5F5F5"/>
<path d="M230.195 132.817H220.59V145.041H230.195V132.817Z" fill="#D8E5FF"/>
<path d="M241.982 132.817H232.377V145.041H241.982V132.817Z" fill="#D8E5FF"/>
<path d="M230.195 147.224H220.59V159.447H230.195V147.224Z" fill="#D8E5FF"/>
<path d="M241.982 147.224H232.377V159.447H241.982V147.224Z" fill="#D8E5FF"/>
<path d="M272.759 258.546H76.3076V271.643H272.759V258.546Z" fill="#C5A69C"/>
<path d="M283.673 261.82H65.3936V271.643H283.673V261.82Z" fill="#C19D91"/>
<path d="M294.587 265.095H54.4795V271.643H294.587V265.095Z" fill="#BB9487"/>
<g clip-path="url(#clip1)">
<path d="M253.237 201.572C253.237 201.572 258.328 215.878 260.395 220.539C262.462 225.199 269.638 217.715 269.638 217.715L261.096 199.514L253.237 201.572Z" fill="#FFC63B"/>
<path d="M236.101 180.871C244.8 180.871 251.853 174.375 251.853 166.362C251.853 158.348 244.8 151.852 236.101 151.852C227.401 151.852 220.349 158.348 220.349 166.362C220.349 174.375 227.401 180.871 236.101 180.871Z" fill="#223851"/>
<path d="M235.486 171.005C243.506 171.005 250.008 164.532 250.008 156.547C250.008 148.562 243.506 142.088 235.486 142.088C227.465 142.088 220.964 148.562 220.964 156.547C220.964 164.532 227.465 171.005 235.486 171.005Z" fill="#FFDB6E"/>
<path d="M223.817 289.753L218.862 295.179L218.008 296.829L218.35 298.683L223.834 300.265L228.618 299.499C228.618 299.499 231.368 297.951 231.368 297.611C231.368 297.271 233.265 292.61 233.265 292.61" fill="#514120"/>
<path d="M258.772 291.539L258.311 295.4L257.303 298.683V299.993L260.976 301.455H264.564L268.425 297.254L268.869 295.196L267.605 288.885" fill="#514120"/>
<path d="M243.806 153.672C243.806 153.672 245.087 166.243 243.806 168.403C243.806 168.403 247.53 166.294 248.402 163.657C249.273 161.02 246.522 153.23 246.522 153.23L243.806 153.672Z" fill="#FFC63B"/>
<path d="M227.268 179.17C221.955 175.054 218.401 167.535 218.401 158.945C218.401 145.933 226.567 135.386 236.63 135.386C246.693 135.386 254.86 145.933 254.86 158.945C254.86 170.07 248.897 179.391 240.867 181.858C247.069 166.243 245.258 153.791 245.258 153.791L223.868 152.737C223.868 152.737 221.049 170.614 227.268 179.17Z" fill="#2D476D"/>
<path d="M215.172 236.154L219.033 238.314L221.066 241.971V244.897L219.511 246.938L217.478 247.568L214.745 246.955L209.927 241.121L209.636 237.94L211.208 235.201L211.738 234.334L212.814 233.398L216.983 233.653L219.511 236.052V237.583L218.76 238.722" fill="#FFDB6E"/>
<path d="M231.966 174.646C231.949 173.149 231.966 170.58 231.966 170.58L241.175 169.849L240.884 175.717L240.713 182.283L234.136 187.488L228.754 180.463L229.489 176.772L231.744 175.581L231.966 174.646Z" fill="#FFDB6E"/>
<path d="M231.966 170.58L231.949 172.723L234.683 174.101H237.16L239.227 173.2L241.021 171.941L241.158 169.849C241.158 169.849 238.117 171.09 236.186 171.005C234.255 170.92 232.41 170.58 232.41 170.58" fill="#FFC63B"/>
<path d="M213.515 235.065C217.717 225.574 220.383 219.688 220.383 219.688C219.58 210.826 220.075 204.941 220.075 204.941L227.114 205.893L226.738 224.332L219.46 239.08L213.515 235.065Z" fill="#FFDB6E"/>
<path d="M232.137 175.462L227.131 177.299C224.21 178.371 221.92 180.701 220.947 183.661L214.984 201.453C214.984 201.453 217.41 204.243 222.501 205.893" fill="#C9DCF4"/>
<path d="M220.349 205.06C220.349 205.06 219.802 213.837 220.092 220.352C220.092 220.352 216.778 231.544 216.436 233.415L219.512 236.052L219.717 238.603L220.485 239.726L222.997 231.799L224.688 215.538L224.244 205.876L220.349 205.06Z" fill="#FFC63B"/>
<path d="M244.575 187.794C246.249 199.565 249.222 204.941 249.222 204.941C253.407 204.43 261.933 200.416 261.933 200.416L256.517 184.001C255.492 180.888 253.014 178.439 249.871 177.452L241.192 174.714" fill="#C9DCF4"/>
<path d="M237.792 233.092C237.792 233.092 250.777 282.455 257.081 291.215C257.081 291.215 262.941 293.257 268.869 287.83C268.869 287.83 254.655 229.027 251.836 220.726C251.836 220.726 239.518 228.976 222.074 220.93C222.074 220.93 217.701 244.336 222.843 288.953C222.843 288.953 228.447 294.226 234.512 292.066L237.963 233.773L237.792 233.092Z" fill="#96ABC0"/>
<path d="M261.916 195.313L269.535 216.814L270.287 220.913L265.931 224.723L261.574 222.155C261.574 222.155 257.576 215.555 256.209 201.385L255.765 199.208L249.324 194.649V192.438L253.22 186.808L253.271 185.09L253.92 182.93L256.893 182.504L259.831 183.236L262.155 188.645L261.745 193.578L261.916 195.313Z" fill="#FFDB6E"/>
<path d="M228.173 177.112C228.173 177.112 225.679 177.895 224.159 181.875C222.655 185.838 220.349 205.077 220.349 205.077L222.006 205.893L228.173 177.112Z" fill="#ACC5E9"/>
<path d="M228.891 176.653L233.436 181.109C233.436 181.109 240.475 176.279 240.885 174.629L241.978 174.969L250.572 204.685L251.836 220.726C251.836 220.726 245.515 224.808 236.63 224.383C227.251 223.941 222.074 220.913 222.074 220.913C221.118 178.473 228.891 176.653 228.891 176.653Z" fill="#2D476D"/>
<path d="M241.585 177.112C241.602 182.317 240.201 186.332 240.201 186.332C236.425 185.209 233.435 181.62 233.435 181.62C230.275 184.287 226.431 183.774 226.431 183.774L233.606 181.039L241.585 177.112Z" fill="#223851"/>
<path d="M231.966 173.557C231.966 173.557 231.932 173.574 231.847 173.642C231.095 174.169 226.858 177.333 226.414 183.797C226.414 183.797 229.079 183.168 229.933 182.844C230.856 182.504 233.453 181.092 233.453 181.092C233.453 181.092 231.966 176.108 231.966 173.557Z" fill="#C9DCF4"/>
<path d="M240.474 185.651C242.593 179 241.021 173.71 241.021 173.71C241.021 173.71 238.629 177.146 233.418 181.109C233.418 181.109 236.101 182.742 236.989 183.304C237.894 183.865 240.474 185.651 240.474 185.651Z" fill="#C9DCF4"/>
<path d="M237.792 233.092C237.792 233.092 235.503 233.398 233.248 263.285C232.547 272.64 231.744 292.559 231.744 292.559L232.991 292.474L234.495 292.083L237.946 233.79L237.792 233.092Z" fill="#7D95AA"/>
<path d="M223.817 289.753L222.57 291.113L224.722 293.427L228.566 294.175H231.027H232.632L233.265 292.593C233.265 292.593 229.403 292.61 227.917 291.964C226.431 291.301 223.817 289.753 223.817 289.753Z" fill="#382B15"/>
<path d="M258.772 291.539L258.584 293.053L261.813 293.461L264.888 292.968L266.358 291.947L267.929 290.518L267.605 288.868C267.605 288.868 264.632 290.892 263.265 291.164C261.881 291.454 258.772 291.539 258.772 291.539Z" fill="#382B15"/>
<path d="M215.36 236.307L215.941 235.491H217.205L219.238 237.243L218.965 238.11H218.264L215.36 236.307Z" fill="#FFC63B"/>
<path d="M256.978 198.851L257.268 198.715L259.677 197.473L261.13 195.228L261.505 197.048L260.617 198.494L260.258 198.851" fill="#FFC63B"/>
<path d="M192.483 207.832L193.406 214.857L192.091 216.779L186.196 224.4L191.527 231.085L192.757 230.234L201.35 219.62C201.914 218.923 202.188 218.038 202.085 217.137L201.043 206.829" fill="#FFDB6E"/>
<path d="M161.048 160.986C159.681 161.157 157.238 158.945 156.964 156.785C156.708 154.625 157.511 153.026 158.707 152.771C159.339 152.634 160.279 152.941 160.791 153.519" fill="#FFDB6E"/>
<path d="M174.938 171.244C182.958 171.244 189.46 164.77 189.46 156.785C189.46 148.8 182.958 142.326 174.938 142.326C166.917 142.326 160.416 148.8 160.416 156.785C160.416 164.77 166.917 171.244 174.938 171.244Z" fill="#FFDB6E"/>
<path d="M188.844 160.986C190.211 161.157 192.654 158.945 192.928 156.785C193.184 154.625 192.381 153.026 191.185 152.771C190.553 152.634 189.613 152.941 189.101 153.519" fill="#FFDB6E"/>
<path d="M169.283 175.859L167.642 176.25L158.741 178.41C154.658 179.397 151.6 182.782 151.019 186.915L148.251 206.749L158.468 207.821" fill="#4E88F1"/>
<path d="M180.593 175.598L182.233 176.04L191.134 178.405C195.217 179.391 198.275 182.776 198.856 186.91L201.624 206.744L191.407 207.832" fill="#4E88F1"/>
<path d="M158.417 191.707C157.785 201.964 157.785 228.142 157.785 228.142H192.091C192.091 228.142 192.091 201.964 191.459 191.707" fill="#4E88F1"/>
<path d="M182.147 177.231C182.199 177.588 182.233 177.946 182.233 178.32C182.233 182.334 178.97 185.583 174.938 185.583C170.906 185.583 167.642 182.334 167.642 178.32C167.642 177.946 167.677 177.588 167.728 177.248C163.388 179.051 160.484 182.419 160.484 186.297C160.484 192.064 166.959 196.725 174.955 196.725C182.95 196.725 189.425 192.047 189.425 186.297C189.408 182.419 186.487 179.034 182.147 177.231Z" fill="#4E88F1"/>
<path d="M185.103 298.683L203.64 298.207L204.409 294.634L200.872 291.47L196.345 291.879L195.747 288.953L184.197 289.48L183.548 297.067L184.078 298.683H185.103Z" fill="#2D476D"/>
<path d="M153.684 171.805C156.109 171.805 158.075 170.472 158.075 168.828C158.075 167.184 156.109 165.851 153.684 165.851C151.259 165.851 149.293 167.184 149.293 168.828C149.293 170.472 151.259 171.805 153.684 171.805Z" fill="#FFC63B"/>
<path d="M174.938 164.763C182.958 164.763 189.46 158.289 189.46 150.304C189.46 142.319 182.958 135.846 174.938 135.846C166.917 135.846 160.416 142.319 160.416 150.304C160.416 158.289 166.917 164.763 174.938 164.763Z" fill="#FFDB6E"/>
<path d="M180.422 169.083L180.712 175.683L181.891 175.938C182.096 176.619 182.25 177.571 182.25 178.32C182.25 182.334 178.987 185.583 174.955 185.583C170.923 185.583 167.659 182.334 167.659 178.32C167.659 177.571 167.779 176.84 167.984 176.159L169.3 175.836V170.104" fill="#FFDB6E"/>
<path d="M151.19 170.104C151.19 170.104 154.436 169.185 155.563 169.185C155.563 169.185 157.887 164.916 158.502 164.848C159.1 164.78 161.663 166.498 161.885 167.161C162.107 167.842 157.665 175.632 157.221 176.483C157.221 176.483 162.295 205.281 161.885 207.254C161.475 209.227 158.16 213.037 156.913 213.36C155.666 213.684 153.906 213.36 153.906 213.36C153.906 213.36 151.053 211.949 149.515 208.564C147.978 205.179 150.284 179.357 150.284 179.357L149.481 177.741L147.021 173.183L145.466 163.929L149.02 159.575C149.02 159.575 153.855 158.52 155.222 158.554C156.588 158.571 155.478 163.929 156.896 166.838" fill="#FFDB6E"/>
<path d="M164.772 298.683L146.235 298.207L145.466 294.634L149.003 291.47L153.547 291.879L154.128 288.953L165.677 289.48L166.327 297.067L165.814 298.683H164.772Z" fill="#2D476D"/>
<path d="M153.957 289.786L153.599 291.607L156.571 292.712L162.705 292.474L165.9 292.049L165.677 289.48L154.128 288.953L153.957 289.786Z" fill="#223851"/>
<path d="M160.467 160.663C160.467 160.663 159.066 159.66 159.185 156.785C159.305 153.91 159.954 152.941 159.954 152.941L160.723 153.332L160.467 160.663Z" fill="#FFC63B"/>
<path d="M189.408 160.663C189.408 160.663 190.809 159.66 190.69 156.785C190.57 153.91 189.921 152.941 189.921 152.941L189.152 153.332L189.408 160.663Z" fill="#FFC63B"/>
<path d="M184.197 289.48L184.009 291.777L191.407 291.981L195.661 291.334L196.088 290.62L195.746 288.953L184.197 289.48Z" fill="#223851"/>
<path d="M174.937 130.096C164.977 130.096 156.913 137.121 156.913 145.779C156.913 149.301 158.246 152.549 160.501 155.169C160.501 155.169 164.123 146.205 166.498 143.84L170.649 150.627L174.937 143.262L179.226 150.627L183.377 143.84C185.752 146.205 189.374 155.152 189.374 155.152C191.629 152.532 192.962 149.284 192.962 145.762C192.962 137.121 184.898 130.096 174.937 130.096Z" fill="#2D476D"/>
<path d="M192.091 221.44L201.846 288.29C201.846 288.29 192.21 291.539 179.67 290.382L174.937 234.555L170.205 290.382C157.665 291.539 148.029 288.29 148.029 288.29L157.784 221.44" fill="#7D95AA"/>
<path d="M169.282 170.104V172.4C169.282 172.4 171.811 174.203 174.938 174.203C177.551 174.203 180.558 172.468 180.558 172.468L180.456 170.189C180.456 170.189 176.834 171.448 174.955 171.261C173.075 171.073 169.282 170.104 169.282 170.104Z" fill="#FFC63B"/>
<path opacity="0.1" d="M191.476 191.996C191.476 191.996 192.996 196.997 193.406 207.628H191.937L191.476 191.996Z" fill="black"/>
<path d="M118.165 137.036C112.886 134.077 96.6382 139.197 94.571 158.826C93.5288 168.777 92.4183 183.032 78.9385 192.115C78.9385 192.115 89.6335 199.616 107.009 194.734C110.46 193.765 113.501 192.03 116.166 189.87" fill="#2D476D"/>
<path d="M107.009 194.717C122.727 190.312 130.124 170.019 130.739 164.865C130.979 162.858 135.045 137.87 118.165 137.036" fill="#223851"/>
<path d="M120.061 175.037V170.546C120.061 170.546 115.124 169.032 111.143 170.546V173.03L110.084 173.2L106.001 174.033C102.891 174.663 100.26 176.687 98.8594 179.51L118.763 187.488H126.468L130.756 184.477C130.364 181.637 128.775 179.085 126.4 177.469L120.933 173.744C120.933 173.744 118.985 172.672 117.55 172.06" fill="#FFDB6E"/>
<path d="M101.866 161.497C101.866 161.497 102.31 172.468 107.009 174.646C111.707 176.823 111.143 170.563 111.143 170.563L110.084 163.64L101.866 161.497Z" fill="#223851"/>
<path d="M115.602 171.244C123.623 171.244 130.124 164.77 130.124 156.785C130.124 148.8 123.623 142.327 115.602 142.327C107.582 142.327 101.08 148.8 101.08 156.785C101.08 164.77 107.582 171.244 115.602 171.244Z" fill="#FFDB6E"/>
<path d="M78.6652 224.162L74.804 227.649L69.9862 228.891L69.4224 230.098L74.0523 233.943L76.9909 234.589L80.3566 233.619L84.5765 233.449L85.7553 232.225L85.9774 230.132L87.2417 227.479L78.6652 224.162Z" fill="#FFDB6E"/>
<path d="M133.746 222.138C133.746 222.138 134.669 228.312 136.514 228.857C138.359 229.401 139.521 230.013 139.521 230.013L140.614 231.578C140.614 231.578 136.702 234.147 133.78 234.147C130.346 234.147 129.936 233.483 129.936 233.483L129.287 223.107L133.746 222.138Z" fill="#FFDB6E"/>
<path d="M128.45 283.017L128.757 290.518L130.705 291.318L136.582 293.767L135.147 298.241H121.377L119.856 296.795V293.546V284.377L128.45 283.017Z" fill="#514120"/>
<path d="M95.5791 280.788C95.5791 286.266 95.5791 288.256 95.5791 288.256L94.759 290.62L96.7921 295.621C96.7921 295.621 98.4152 299.261 99.987 299.84C101.559 300.418 110.528 299.567 111.024 299.295C111.519 299.023 107.094 290.501 106.155 288.698L106.052 283.408L95.5791 280.788Z" fill="#514120"/>
<path d="M122.863 146.205C122.863 146.205 125.289 154.166 125.392 158.86C125.494 163.555 124.931 166.396 124.555 168.165C124.555 168.165 129.919 164.729 130.432 157.823C130.944 150.934 122.863 146.205 122.863 146.205Z" fill="#FFC63B"/>
<path d="M120.061 143.364C128.553 149.692 128.826 167.263 127.869 173.744C129.595 169.883 130.534 166.549 130.739 164.848C130.979 162.841 135.045 137.853 118.165 137.019" fill="#2D476D"/>
<path d="M78.6652 224.162L77.5889 225.148L80.4078 227.19L84.7986 228.227L86.7463 228.499L87.2417 227.479L78.6652 224.162Z" fill="#FFC63B"/>
<path d="M129.8 231.272L131.337 230.473H132.448L135.984 231.272H140.034L140.614 231.561L135.984 233.772L133.781 234.147H131.337L130.364 233.738L129.8 233.143V231.272Z" fill="#FFC63B"/>
<path d="M131.645 222.597L133.61 229.639L135.591 231.187L134.02 233.67L130.363 233.738L129.595 227.649L129.287 223.107L131.645 222.597Z" fill="#FFC63B"/>
<path d="M111.143 170.546C111.143 170.546 113.637 173.591 115.5 174.118C117.362 174.646 119.002 174.646 119.002 174.646L120.061 174.322V170.818C120.061 170.818 115.858 171.107 115.5 171.261C115.158 171.397 111.143 170.546 111.143 170.546Z" fill="#FFC63B"/>
<path d="M104.19 287.099L99.8671 286.691L95.5959 285.024L95.5789 280.788L106.052 283.238L106.154 287.269L104.19 287.099Z" fill="#382B15"/>
<path d="M119.856 284.377V287.269H125.853L128.586 286.47L128.45 283.017L124.23 283.935L119.856 284.377Z" fill="#382B15"/>
<path d="M129.287 223.107C129.287 223.107 125.528 211.353 125.528 206.131C125.528 200.909 128.535 196.946 128.535 196.946V213.718C121.548 220.045 100.363 212.799 100.363 212.799L101.063 202.831L102.122 200.875L87.6687 227.649L76.9736 223.515L98.842 179.51C100.243 176.687 102.891 174.663 105.983 174.033L110.067 173.2L118.712 185.498H119.497L120.898 173.744L126.365 177.469C128.74 179.085 130.329 181.637 130.722 184.477L135.95 221.644L129.287 223.107Z" fill="#96ABC0"/>
<path d="M111.143 172.791C111.143 172.791 95.972 166.753 100.141 152.005C100.141 152.005 106.12 136.254 121.565 142.888C121.565 142.871 111.143 143.483 111.143 172.791Z" fill="#2D476D"/>
<path d="M128.552 213.718C128.552 213.718 133.029 262.707 129.099 282.813C129.099 282.813 116.405 287.779 94.5881 280.482C72.7709 273.185 73.3518 265.598 73.3518 265.598C82.0479 252.007 100.38 212.782 100.38 212.782C100.38 212.782 121.667 220.062 128.552 213.718Z" fill="#4E88F1"/>
<path d="M128.552 197.949L131.645 222.597L129.287 223.107L128.552 213.718V197.949Z" fill="#7D95AA"/>
<path d="M102.037 201.079L101.935 213.36L100.38 212.799L101.08 202.831L102.037 201.079Z" fill="#7D95AA"/>
</g>
</g>
<path d="M62.744 28.104H63.304V29.352H68.024C67.752 31.144 67.272 32.744 66.648 34.12C65.976 32.712 65.496 31.096 65.176 29.384L63.352 29.752C63.848 32.168 64.536 34.312 65.512 36.088C64.728 37.176 63.8 38.04 62.744 38.632V28.104ZM58.632 34.632H60.904V36.072C60.136 36.168 59.368 36.28 58.632 36.376V34.632ZM58.632 31.336H60.904V32.936H58.632V31.336ZM60.904 28.104V29.624H58.632V28.104H60.904ZM68.872 27.432L68.552 27.48H63.768V26.344H55.736V28.104H56.824V36.6C56.28 36.664 55.784 36.712 55.352 36.76L55.72 38.664C57.192 38.44 59.064 38.152 60.904 37.832V40.392H62.744V38.888C63.128 39.272 63.56 39.864 63.8 40.28C64.888 39.624 65.832 38.824 66.648 37.832C67.416 38.808 68.312 39.624 69.4 40.28C69.688 39.784 70.28 39.064 70.712 38.712C69.56 38.088 68.6 37.192 67.816 36.12C69.016 33.976 69.784 31.224 70.12 27.736L68.872 27.432ZM74.296 33.112C74.392 32.568 74.488 31.992 74.568 31.432H79.208V26.056H72.504V27.832H77.32V29.656H72.888C72.68 31.496 72.28 33.784 71.912 35.288L73.832 35.592C73.88 35.368 73.928 35.128 73.976 34.872H77.224C77.048 36.968 76.84 37.976 76.504 38.248C76.296 38.408 76.104 38.44 75.784 38.44C75.352 38.44 74.328 38.424 73.368 38.328C73.736 38.888 74.024 39.72 74.072 40.328C75.048 40.36 76.024 40.36 76.584 40.296C77.272 40.232 77.72 40.088 78.168 39.608C78.728 38.984 79.016 37.432 79.272 33.896C79.32 33.64 79.336 33.112 79.336 33.112H74.296ZM82.808 25.688V40.392H84.712V25.688H82.808ZM94.584 36.92C94.584 36.312 95.192 35.928 96.104 35.928C96.536 35.928 96.968 35.992 97.384 36.104C97.384 36.216 97.384 36.312 97.384 36.392C97.384 37.336 97.048 37.848 96.072 37.848C95.224 37.848 94.584 37.576 94.584 36.92ZM99.336 26.472H97.048C97.112 26.792 97.16 27.288 97.16 27.528C97.16 27.864 97.176 28.52 97.176 29.304C96.808 29.32 96.424 29.32 96.056 29.32C95.096 29.32 94.168 29.272 93.256 29.176V31.08C94.2 31.144 95.112 31.176 96.056 31.176C96.424 31.176 96.808 31.176 97.192 31.16C97.208 32.296 97.272 33.464 97.304 34.456C96.984 34.408 96.632 34.392 96.264 34.392C94.088 34.392 92.712 35.512 92.712 37.128C92.712 38.808 94.088 39.736 96.296 39.736C98.456 39.736 99.32 38.648 99.416 37.112C100.056 37.544 100.696 38.104 101.368 38.728L102.472 37.048C101.704 36.344 100.696 35.528 99.368 34.984C99.304 33.896 99.224 32.616 99.192 31.064C100.072 31 100.904 30.904 101.672 30.792V28.792C100.904 28.952 100.072 29.08 99.192 29.16C99.208 28.456 99.224 27.864 99.24 27.512C99.256 27.16 99.288 26.776 99.336 26.472ZM91.528 26.648L89.32 26.456C89.304 26.968 89.224 27.576 89.16 28.024C88.984 29.256 88.504 32.28 88.504 34.696C88.504 36.872 88.808 38.696 89.144 39.816L90.952 39.672C90.936 39.448 90.92 39.176 90.92 39.016C90.92 38.84 90.952 38.488 91 38.264C91.192 37.4 91.704 35.768 92.152 34.456L91.176 33.656C90.936 34.2 90.664 34.744 90.456 35.304C90.408 34.984 90.392 34.584 90.392 34.264C90.392 32.664 90.92 29.144 91.16 28.072C91.208 27.784 91.4 26.968 91.528 26.648ZM105.896 29.656H116.104V31.864H117.976V27.976H115.848C116.28 27.416 116.76 26.776 117.192 26.168L115.128 25.544C114.824 26.296 114.28 27.224 113.752 27.976H111.336L112.104 27.672C111.896 27.032 111.368 26.056 110.856 25.368L109.176 25.976C109.56 26.584 109.96 27.352 110.184 27.976H107.672L108.248 27.704C107.992 27.08 107.352 26.232 106.792 25.608L105.176 26.328C105.56 26.824 105.992 27.448 106.28 27.976H104.104V31.864H105.896V29.656ZM118.136 34.472H112.088C113.4 33.72 114.648 32.696 115.56 31.72L114.36 30.792L113.944 30.888H106.76V32.536H112.184C111.8 32.856 111.368 33.16 110.952 33.416H110.04V34.472H103.896V36.216H110.04V38.296C110.04 38.52 109.96 38.584 109.624 38.584C109.304 38.6 108.12 38.6 107.096 38.552C107.384 39.064 107.752 39.864 107.88 40.408C109.24 40.408 110.232 40.376 110.984 40.104C111.768 39.832 111.976 39.336 111.976 38.344V36.216H118.136V34.472ZM131.704 29.96V35.736C130.824 34.632 129.112 33 127.752 31.768C127.88 31.144 127.944 30.552 127.976 29.96H131.704ZM122.36 29.96H126.008C125.928 31.928 125.384 34.296 122.36 35.864V29.96ZM133.592 28.104H127.992V25.448H126.024V28.104H120.456V40.424H122.36V35.912C122.824 36.264 123.416 36.936 123.688 37.32C125.432 36.296 126.504 34.984 127.128 33.64C128.296 34.808 129.496 36.104 130.136 36.984L131.704 35.768V38.168C131.704 38.456 131.608 38.536 131.304 38.552C131 38.552 129.928 38.568 128.984 38.52C129.256 39.016 129.544 39.864 129.608 40.408C131.032 40.408 132.056 40.376 132.712 40.072C133.384 39.768 133.592 39.24 133.592 38.216V28.104ZM140.264 26.056L139.992 26.136H136.216V40.392H137.992V27.832H139.4C139.112 28.952 138.744 30.392 138.408 31.416C139.352 32.488 139.592 33.48 139.592 34.232C139.592 34.68 139.496 34.984 139.304 35.128C139.16 35.224 139.016 35.272 138.84 35.272C138.632 35.272 138.392 35.272 138.088 35.256C138.36 35.736 138.504 36.472 138.52 36.952C138.92 36.952 139.304 36.968 139.624 36.92C139.976 36.856 140.312 36.76 140.568 36.552C141.08 36.2 141.32 35.528 141.304 34.472C141.304 33.544 141.112 32.44 140.072 31.208C140.568 29.96 141.112 28.2 141.56 26.808L140.264 26.056ZM143.848 30.616H147.56V31.96H143.848V30.616ZM147.56 27.8V29.064H143.848V27.8H147.56ZM148.712 33.704C148.344 34.2 147.8 34.776 147.272 35.288C147.032 34.76 146.824 34.184 146.664 33.592H149.448V26.152H142.024V38.04C141.4 38.136 140.84 38.232 140.36 38.296L140.984 40.136C142.488 39.8 144.456 39.4 146.296 38.968L146.152 37.304C145.384 37.448 144.6 37.592 143.848 37.72V33.592H145C145.72 36.712 146.968 39.096 149.32 40.344C149.576 39.832 150.136 39.112 150.552 38.728C149.512 38.264 148.68 37.544 148.04 36.632C148.728 36.104 149.512 35.416 150.2 34.76L148.712 33.704ZM154.04 28.872H163.88V31.064H165.848V27.064H159.992V25.464H157.976V27.064H152.168V31.064H154.04V28.872ZM159.976 35.848H164.376V34.056H159.976V32.056H163.4V30.248H154.6V32.056H158.008V37.704C157.064 37.24 156.312 36.472 155.832 35.192C155.976 34.552 156.088 33.88 156.184 33.16L154.2 32.968C153.912 35.704 153.128 37.912 151.4 39.192C151.848 39.48 152.648 40.152 152.968 40.488C153.88 39.704 154.584 38.68 155.096 37.464C156.568 39.736 158.76 40.216 161.704 40.216H165.704C165.8 39.656 166.104 38.744 166.376 38.28C165.304 38.328 162.664 38.328 161.8 38.328C161.16 38.328 160.552 38.296 159.976 38.232V35.848ZM175 30.872C173.88 30.872 172.952 31.8 172.952 32.92C172.952 34.04 173.88 34.968 175 34.968C176.12 34.968 177.048 34.04 177.048 32.92C177.048 31.8 176.12 30.872 175 30.872ZM194.376 30.84H193.16V28.792H194.376V30.84ZM194.376 34.568H193.16V32.536H194.376V34.568ZM187.656 32.536H188.808V34.568H187.656V32.536ZM191.576 32.536V34.568H190.392V32.536H191.576ZM190.392 30.84V28.792H191.576V30.84H190.392ZM187.656 28.792H188.808V30.84H187.656V28.792ZM185.976 30.84H183.832V32.536H185.976V34.568H184.072V36.264H197.976V34.568H196.12V32.536H198.2V30.84H196.12V28.792H197.624V27.112H188.024C188.264 26.744 188.472 26.376 188.648 25.992L186.792 25.448C186.088 26.936 184.824 28.392 183.48 29.272C183.912 29.576 184.68 30.184 185.032 30.52C185.352 30.28 185.656 29.992 185.976 29.688V30.84ZM185.48 40.408C186.264 39.576 186.952 38.264 187.304 37.048L185.464 36.6C185.096 37.768 184.376 39 183.672 39.672L185.48 40.408ZM188.328 37.16C188.504 38.136 188.632 39.448 188.632 40.216L190.488 39.944C190.472 39.192 190.28 37.928 190.088 36.952L188.328 37.16ZM191.496 37.192C191.848 38.168 192.216 39.464 192.312 40.232L194.216 39.864C194.072 39.08 193.672 37.832 193.288 36.888L191.496 37.192ZM194.664 37.112C195.368 38.136 196.216 39.544 196.552 40.392L198.504 39.736C198.104 38.856 197.208 37.512 196.488 36.536L194.664 37.112ZM212.552 28.856V29.464H205.528V28.856H212.552ZM210.968 31.096H207.064V30.424H210.968V31.096ZM203.912 30.216H205.416V32.056H212.696V30.216H214.248V27.544H212.536C212.856 27.128 213.24 26.632 213.624 26.088L211.816 25.592C211.624 26.12 211.24 26.888 210.936 27.4L211.352 27.544H210.04V25.56H208.184V27.544H206.872L207.384 27.352C207.192 26.872 206.808 26.136 206.408 25.608L204.968 26.104C205.272 26.536 205.544 27.08 205.736 27.544H204.008C204.232 27.048 204.44 26.552 204.632 26.072L202.824 25.496C202.008 27.784 200.632 30.056 199.192 31.496C199.512 31.944 200.024 33 200.2 33.464C200.568 33.08 200.936 32.648 201.288 32.184V40.36H203.096V29.368C203.384 28.84 203.656 28.296 203.912 27.768V30.216ZM206.424 36.408H211.672V36.952H206.424V36.408ZM206.424 34.984H211.672V35.544H206.424V34.984ZM206.424 33.592H211.672V34.136H206.424V33.592ZM213.48 37.976V32.584H204.712V37.976H206.808C205.896 38.408 204.584 38.872 203.4 39.144C203.752 39.464 204.232 40.008 204.456 40.392C205.8 40.056 207.384 39.464 208.472 38.76L207.352 37.976H210.504L209.576 38.888C210.936 39.336 212.36 39.944 213.16 40.424L214.632 39.304C213.832 38.888 212.488 38.376 211.24 37.976H213.48ZM223.912 35.272L221.992 35.096C221.864 35.72 221.72 36.488 221.72 37.24C221.72 38.856 223.176 39.784 225.864 39.784C227.144 39.784 228.216 39.672 229.128 39.544L229.208 37.512C228.056 37.72 226.952 37.832 225.88 37.832C224.168 37.832 223.688 37.304 223.688 36.6C223.688 36.248 223.784 35.736 223.912 35.272ZM222.104 26.408L219.656 26.216C219.704 26.6 219.672 27.256 219.608 27.848C219.576 28.104 219.528 28.408 219.464 28.76C218.968 28.792 218.488 28.808 218.024 28.808C217.352 28.808 216.824 28.776 216.008 28.68L216.056 30.68C216.616 30.712 217.208 30.744 217.992 30.744C218.328 30.744 218.68 30.728 219.048 30.712C218.936 31.16 218.824 31.624 218.712 32.056C218.12 34.296 216.904 37.64 215.944 39.256L218.168 40.008C219.064 38.104 220.12 34.84 220.712 32.6C220.888 31.944 221.048 31.224 221.192 30.536C222.264 30.408 223.352 30.232 224.312 30.008V28.008C223.432 28.216 222.52 28.392 221.624 28.52C221.672 28.312 221.72 28.104 221.752 27.928C221.816 27.576 221.976 26.856 222.104 26.408ZM223.048 31.256V33.128C224.056 33 225.032 32.952 226.136 32.952C227.112 32.952 228.088 33.064 228.888 33.16L228.936 31.24C227.992 31.144 227.032 31.096 226.12 31.096C225.08 31.096 223.944 31.16 223.048 31.256ZM227.224 26.872L225.96 27.4C226.392 28.008 226.888 28.968 227.208 29.624L228.488 29.064C228.2 28.472 227.624 27.464 227.224 26.872ZM229.112 26.152L227.848 26.664C228.296 27.272 228.808 28.2 229.144 28.872L230.408 28.328C230.136 27.768 229.544 26.744 229.112 26.152ZM238.392 26.36L236.008 26.12C236.024 27.128 235.896 28.296 235.672 29.512C234.856 29.576 234.104 29.624 233.608 29.64C233.016 29.656 232.472 29.688 231.896 29.64L232.088 31.816C232.568 31.736 233.416 31.624 233.864 31.544C234.168 31.512 234.664 31.448 235.24 31.384C234.664 33.576 233.56 36.808 232.008 38.904L234.088 39.736C235.56 37.384 236.744 33.592 237.352 31.16C237.8 31.128 238.2 31.096 238.456 31.096C239.464 31.096 240.008 31.272 240.008 32.552C240.008 34.136 239.8 36.072 239.368 36.984C239.112 37.512 238.696 37.672 238.168 37.672C237.736 37.672 236.824 37.512 236.2 37.336L236.552 39.448C237.096 39.56 237.848 39.672 238.472 39.672C239.672 39.672 240.568 39.32 241.096 38.2C241.784 36.808 242.008 34.216 242.008 32.328C242.008 30.024 240.808 29.272 239.112 29.272C238.776 29.272 238.296 29.304 237.768 29.336C237.88 28.76 237.992 28.168 238.104 27.688C238.184 27.288 238.296 26.776 238.392 26.36ZM243.896 27.864L241.992 28.68C243.128 30.088 244.264 32.984 244.68 34.76L246.712 33.816C246.232 32.296 244.888 29.24 243.896 27.864ZM252.344 26.12L251.832 28.04C253.08 28.36 256.648 29.112 258.264 29.32L258.744 27.368C257.352 27.208 253.864 26.6 252.344 26.12ZM252.44 29.336L250.296 29.032C250.184 31.016 249.816 34.152 249.496 35.72L251.336 36.184C251.48 35.864 251.64 35.608 251.928 35.256C252.936 34.04 254.568 33.368 256.376 33.368C257.768 33.368 258.76 34.136 258.76 35.176C258.76 37.208 256.216 38.376 251.416 37.72L252.024 39.816C258.68 40.376 260.984 38.136 260.984 35.224C260.984 33.288 259.352 31.56 256.552 31.56C254.872 31.56 253.288 32.024 251.832 33.08C251.944 32.168 252.232 30.216 252.44 29.336ZM266.168 28.632H275.8V30.632H277.832V26.872H271.96V25.448H269.944V26.872H264.232V30.632H266.168V28.632ZM273.256 33.176C272.92 34.408 272.36 35.368 271.576 36.136C270.52 35.752 269.48 35.4 268.504 35.128C268.84 34.504 269.192 33.848 269.528 33.176H273.256ZM278.12 33.176V31.384H270.424C270.76 30.712 271.08 30.056 271.368 29.432L269.368 29.016C269.048 29.752 268.664 30.568 268.248 31.384H263.896V33.176H267.336C266.648 34.472 265.976 35.688 265.4 36.616L267.384 37.16L267.688 36.632C268.36 36.856 269.048 37.112 269.752 37.368C268.312 38.056 266.488 38.44 264.248 38.664C264.616 39.08 265.16 39.944 265.336 40.392C268.024 40.008 270.2 39.384 271.896 38.248C273.512 38.952 274.984 39.704 275.96 40.36L277.48 38.808C276.472 38.184 275.032 37.512 273.48 36.872C274.344 35.896 275 34.696 275.464 33.176H278.12ZM290.072 31.384C291.352 33.144 292.472 35.592 292.792 37.224L294.728 36.264C294.328 34.6 293.192 32.264 291.832 30.504L290.072 31.384ZM280.92 31.144C280.712 33.272 280.248 35.336 279.304 36.712L281.08 37.736C282.136 36.168 282.552 33.72 282.792 31.528L280.92 31.144ZM283.832 26.984C285.72 27.704 287.944 28.936 289.176 29.96L290.424 28.28C289.16 27.352 286.952 26.168 285.064 25.496L283.832 26.984ZM283.784 30.008V37.608C283.784 39.608 284.344 40.232 286.376 40.232H288.984C290.904 40.232 291.416 39.288 291.624 36.312C291.096 36.168 290.296 35.832 289.848 35.48C289.736 37.992 289.608 38.488 288.824 38.488H286.632C285.88 38.488 285.768 38.376 285.768 37.608V30.008H283.784Z" fill="black"/>
<defs>
<clipPath id="clip0">
<rect width="280" height="280" fill="white" transform="translate(35 44)"/>
</clipPath>
<clipPath id="clip1">
<rect width="200.865" height="171.359" fill="white" transform="translate(70.2766 130.096)"/>
</clipPath>
</defs>
</svg>
