<svg width="351" height="351" viewBox="0 0 351 351" fill="none" xmlns="http://www.w3.org/2000/svg">
<path d="M125.55 177.987L134.86 176L136.714 176.648L138.366 176.291C139.214 184.329 139.907 197.391 139.907 197.391C143.546 198.507 156.005 199.288 162.77 199.355L170.451 202.615L169.201 215.074L162.793 218.491C157.412 218.156 132.404 215.141 126.621 212.462C120.816 209.783 125.55 177.987 125.55 177.987Z" fill="#FFDB6E"/>
<path d="M159.466 199.356V208.108L155.023 217.709L162.793 218.491L169.223 215.052V204.29L164.646 199.356H159.466Z" fill="#FFC63B"/>
<path d="M196.106 295.835C214.549 281.054 216 240.06 216 240.06V188.995L177.842 179.595L167.459 169.436C167.459 169.436 169.424 213.69 150.199 232.022C150.199 232.022 135.418 246.379 120.615 255.868" fill="#6998FF"/>
<path d="M189.988 79.8334C129.725 79.8334 80.8708 128.687 80.8708 188.951C80.8708 249.214 129.725 298.068 189.988 298.068C250.252 298.068 299.105 249.214 299.105 188.951C299.105 128.687 250.229 79.8334 189.988 79.8334ZM189.988 260.512C150.467 260.512 118.427 228.471 118.427 188.951C118.427 149.43 150.467 117.389 189.988 117.389C229.509 117.389 261.55 149.43 261.55 188.951C261.55 228.471 229.509 260.512 189.988 260.512Z" fill="white"/>
<path d="M190.011 264.978C186.483 264.978 182.933 264.732 179.405 264.241C169.246 262.812 159.667 259.441 150.937 254.193C142.497 249.147 135.218 242.583 129.278 234.701C123.339 226.819 119.03 218 116.507 208.51C113.894 198.663 113.269 188.527 114.698 178.367C116.127 168.208 119.499 158.629 124.746 149.899C129.792 141.459 136.356 134.18 144.238 128.241C152.12 122.301 160.94 117.992 170.429 115.469C180.276 112.857 190.413 112.232 200.572 113.661C210.731 115.09 220.31 118.461 229.04 123.708C237.48 128.754 244.759 135.319 250.698 143.201C256.638 151.082 260.947 159.902 263.47 169.391C266.082 179.238 266.708 189.375 265.279 199.534C265.189 200.115 265.1 200.695 265.011 201.254L256.191 199.802C256.28 199.311 256.347 198.797 256.414 198.284C258.915 180.533 254.338 162.872 243.553 148.559C232.769 134.247 217.05 124.981 199.299 122.502C181.548 120.002 163.887 124.579 149.575 135.363C135.285 146.148 126.018 161.867 123.518 179.618C121.017 197.368 125.594 215.03 136.379 229.342C147.163 243.655 162.882 252.921 180.633 255.399C202.738 258.503 224.887 250.442 239.847 233.853L246.478 239.836C231.943 255.98 211.379 264.978 190.011 264.978Z" fill="#A0E573"/>
<path d="M246.099 191.161L253.266 222.398L276.755 200.584L246.099 191.161Z" fill="#A0E573"/>
<path d="M160.024 85.8842C160.001 85.2367 130.193 85.7279 132.315 128.955C133.989 163.452 172.46 176.648 186.728 177.273" fill="#2D476D"/>
<path d="M123.629 296.058C115.703 296.058 107.977 293.647 101.346 289.003C92.8388 283.019 87.1451 274.088 85.3365 263.817C84.3764 258.391 84.5551 252.943 85.8947 247.651L94.558 249.817C93.5309 253.903 93.397 258.101 94.1338 262.276C95.5181 270.18 99.9168 277.079 106.481 281.679C113.046 286.279 121.039 288.043 128.943 286.658C136.847 285.274 143.747 280.875 148.346 274.311C152.946 267.746 154.71 259.753 153.326 251.849C151.941 243.945 147.543 237.045 140.978 232.446C134.414 227.846 126.42 226.082 118.516 227.467C115.814 227.935 113.202 228.784 110.746 229.945L106.883 221.884C110.054 220.366 113.448 219.272 116.953 218.669C127.202 216.861 137.562 219.16 146.091 225.122C154.621 231.084 160.314 240.037 162.123 250.286C163.931 260.534 161.632 270.895 155.67 279.424C149.708 287.953 140.755 293.647 130.506 295.455C128.206 295.857 125.907 296.058 123.629 296.058Z" fill="#A0E573"/>
<path d="M100.386 257.944L98.9344 233.048L78.1023 246.736L100.386 257.944Z" fill="#A0E573"/>
<path d="M123.629 298.068C115.234 298.068 107.129 295.5 100.207 290.655C91.231 284.358 85.2471 274.958 83.3492 264.174C82.3444 258.48 82.5454 252.742 83.9297 247.16L84.421 245.217L96.9917 248.343L96.5004 250.286C95.5627 254.104 95.4287 258.011 96.0985 261.919C97.3936 269.287 101.502 275.717 107.62 280.027C113.76 284.314 121.195 285.966 128.564 284.671C135.932 283.376 142.362 279.268 146.672 273.15C150.959 267.009 152.611 259.574 151.316 252.206C150.021 244.838 145.912 238.407 139.795 234.098C133.654 229.811 126.219 228.159 118.851 229.454C116.328 229.9 113.894 230.682 111.594 231.776L109.786 232.647L104.204 220.969L106.012 220.098C109.361 218.491 112.912 217.352 116.596 216.704C127.38 214.806 138.254 217.218 147.23 223.492C156.206 229.766 162.19 239.166 164.088 249.951C165.985 260.735 163.574 271.609 157.3 280.585C151.026 289.561 141.625 295.545 130.841 297.443C128.452 297.844 126.04 298.068 123.629 298.068ZM87.3906 250.107C86.5421 254.506 86.5198 258.994 87.3013 263.482C89.0205 273.217 94.4239 281.679 102.507 287.35C108.759 291.727 116.06 294.049 123.629 294.049C125.795 294.049 127.983 293.848 130.127 293.468C139.862 291.749 148.324 286.346 153.995 278.263C159.667 270.18 161.832 260.356 160.113 250.643C158.394 240.908 152.99 232.446 144.908 226.774C136.825 221.103 127.001 218.937 117.288 220.656C114.631 221.125 112.041 221.884 109.585 222.889L111.706 227.332C113.782 226.506 115.926 225.881 118.136 225.502C126.576 224.006 135.083 225.903 142.094 230.816C149.105 235.728 153.794 243.074 155.268 251.514C156.764 259.954 154.866 268.461 149.954 275.472C145.042 282.483 137.696 287.172 129.256 288.645C120.816 290.141 112.309 288.243 105.298 283.331C98.2867 278.419 93.5978 271.073 92.1241 262.633C91.4543 258.837 91.4543 255.042 92.1465 251.29L87.3906 250.107Z" fill="white"/>
<path d="M102.596 261.293L74.0833 246.981L100.721 229.454L102.596 261.293ZM82.099 246.512L98.1752 254.573L97.1258 236.621L82.099 246.512Z" fill="white"/>
<path d="M175.721 168.364C194.181 168.364 209.146 153.399 209.146 134.939C209.146 116.479 194.181 101.514 175.721 101.514C157.261 101.514 142.296 116.479 142.296 134.939C142.296 153.399 157.261 168.364 175.721 168.364Z" fill="#223851"/>
<path d="M193.427 156.441L175.207 160.415C175.207 158.093 172.461 151.462 172.461 151.462L189.162 141.593C189.162 141.615 193.427 152.087 193.427 156.441Z" fill="#FFDB6E"/>
<path d="M198.25 124.757C198.25 127.079 196.91 127.816 197.379 129.982C200.483 144.25 182.241 151.819 172.93 152.667L172.461 151.462L198.25 124.757Z" fill="#FFC63B"/>
<path d="M166.678 152.042C182.931 152.042 196.106 138.867 196.106 122.614C196.106 106.361 182.931 93.1857 166.678 93.1857C150.425 93.1857 137.249 106.361 137.249 122.614C137.249 138.867 150.425 152.042 166.678 152.042Z" fill="#FFDB6E"/>
<path d="M220.935 187.767C236.9 192.322 246.166 182.788 246.166 182.788C224.351 177.251 216.894 156.731 211.178 129.826C200.817 81.1285 169.558 80.3693 160.805 85.862" fill="#2D476D"/>
<path d="M158.863 101.536C158.863 101.536 162.837 121.274 178.422 133.354C182.441 136.48 187.309 143.602 187.309 143.602L191.105 164.859L193.427 156.084C193.427 156.084 193.36 154.275 192.199 150.256C190.859 145.612 189.81 143.848 189.81 143.848L192.958 140.543L188.135 131.5L165.919 102.117L158.863 101.536Z" fill="#FFC63B"/>
<path d="M241.008 241.02L251.011 245.396L255.298 247.651L256.526 253.836L252.351 255.31L246.836 254.171L241.678 251.38L240.048 252.273L240.807 254.819L239.043 255.846L230.09 253.948L227.946 249.281L229.889 241.02L239.133 238.564L241.008 241.02Z" fill="#FFDB6E"/>
<path d="M198.093 156.441C195.793 147.353 191.038 137.797 181.883 129.781C155.357 106.515 155.759 94.0786 155.759 94.0786C155.759 94.0786 189.006 77.4665 198.004 120.135C207.002 162.804 205.752 161.554 205.752 161.554C205.752 161.554 203.385 159.455 201.621 158.316C200.125 157.312 198.093 156.441 198.093 156.441Z" fill="#2D476D"/>
<path d="M221.136 187.566C207.739 152.757 193.628 156.061 193.628 156.061L176.123 158.294C176.123 158.294 170.674 158.562 165.941 163.854V180.734L182.24 180.801L196.106 176L221.136 187.566Z" fill="#FFDB6E"/>
<path d="M156.228 91.8905C146.114 93.1855 135.619 104.595 134.19 115.156C132.315 128.933 141.335 138.445 141.335 138.445C136.356 108.413 159.778 98.0531 159.778 98.0531L156.228 91.8905Z" fill="#2D476D"/>
<path d="M106.392 205.942H100.52C99.5372 205.942 98.7334 205.138 98.7334 204.156V199.177C98.7334 198.194 99.5372 197.391 100.52 197.391H106.392V205.942Z" fill="#FFAE98"/>
<path d="M108.625 189.152C108.625 189.152 107.978 184.664 107.821 180.779C107.821 180.779 111.394 180.779 114.609 185.936" fill="#FFAE98"/>
<path d="M145.176 199.936C144.975 200.405 144.863 200.941 144.863 201.499C144.863 203.71 146.605 205.496 148.771 205.496C150.937 205.496 152.678 203.71 152.678 201.499C152.678 200.941 152.566 200.405 152.366 199.914C151.763 201.387 150.378 202.415 148.771 202.415C147.163 202.415 145.756 201.387 145.176 199.936Z" fill="#FFAE98"/>
<path d="M106.392 197.391H102.016C101.547 198.797 101.301 200.293 101.301 201.812C101.301 201.812 101.167 203.509 101.524 205.942H106.392V197.391Z" fill="#EE896D"/>
<path d="M125.55 177.987C125.55 177.987 120.816 209.783 126.621 212.462L139.929 197.391C139.929 197.391 139.237 184.306 138.388 176.291L136.736 176.648L134.883 176L125.55 177.987Z" fill="#FFDB6E"/>
<path d="M119.99 216.235L117.801 219.652C114.542 219.964 111.55 220.656 111.55 220.656C100.787 214.695 101.748 201.834 101.748 201.834C101.748 192.121 111.773 184.262 124.12 184.262C136.468 184.262 146.493 192.121 146.493 201.834C146.493 201.834 146.739 216.481 138.366 220.969C138.366 220.969 136.356 220.5 130.439 219.652L129.524 216.057" fill="#FFAE98"/>
<path d="M124.12 217.129C134.836 217.129 143.523 210.251 143.523 201.767C143.523 193.283 134.836 186.405 124.12 186.405C113.404 186.405 104.717 193.283 104.717 201.767C104.717 210.251 113.404 217.129 124.12 217.129Z" fill="#EE896D"/>
<path d="M124.121 216.504C136.489 216.504 146.516 209.666 146.516 201.231C146.516 192.796 136.489 185.959 124.121 185.959C111.752 185.959 101.726 192.796 101.726 201.231C101.726 209.666 111.752 216.504 124.121 216.504Z" fill="#FFAE98"/>
<path d="M125.795 176L125.103 181.292L131.221 182.632H136.624L138.634 181.091V175.599L125.795 176Z" fill="#FFC63B"/>
<path d="M110.791 199.356C111.617 199.356 112.287 198.686 112.287 197.86C112.287 197.033 111.617 196.364 110.791 196.364C109.964 196.364 109.295 197.033 109.295 197.86C109.295 198.686 109.964 199.356 110.791 199.356Z" fill="#152338"/>
<path d="M134.481 181.649C136.774 181.649 138.634 179.79 138.634 177.496C138.634 175.203 136.774 173.343 134.481 173.343C132.187 173.343 130.328 175.203 130.328 177.496C130.328 179.79 132.187 181.649 134.481 181.649Z" fill="#CDAD61"/>
<path d="M130.328 177.496L134.86 176.514L136.111 177.407L138.053 177.496L138.5 177.005L138.567 176.849L138.343 176L135.485 173.946L130.819 175.598L130.395 176.603L130.35 177.027L130.328 177.496Z" fill="#B69651"/>
<path d="M142.832 172.048L139.46 176C139.46 176 137.473 176.871 136.267 176.648C135.061 176.425 134.86 176 134.86 176C134.86 176 129.256 177.385 125.55 177.988C121.843 178.591 119.03 173.343 119.03 173.343C119.03 173.343 117.78 165.127 120.213 162.38C122.669 159.634 126.755 157.825 131.824 158.317C136.892 158.786 141.157 160.415 141.938 162.559C142.72 164.702 143.234 170.485 142.832 172.048Z" fill="#FFDB6E"/>
<path d="M128.028 177.586C126.331 175.71 125.773 169.771 125.773 169.771C125.818 169.927 128.028 177.586 128.028 177.586Z" fill="#FFC63B"/>
<path d="M123.696 296.036C105.142 296.036 88.6637 282.706 85.3144 263.817C84.3543 258.391 84.533 252.943 85.8727 247.651L94.5359 249.817C93.5089 253.903 93.3749 258.101 94.1117 262.276C96.992 278.598 112.599 289.539 128.921 286.658C145.243 283.778 156.184 268.171 153.303 251.849C150.445 235.527 134.816 224.586 118.494 227.467C115.792 227.936 113.18 228.784 110.724 229.945L106.861 221.885C110.032 220.366 113.425 219.272 116.931 218.669C138.098 214.941 158.35 229.119 162.101 250.286C165.829 271.453 151.651 291.705 130.484 295.456C128.207 295.858 125.952 296.036 123.696 296.036Z" fill="#A0E573"/>
<path d="M100.386 257.945L98.9344 233.049L78.1023 246.736L100.386 257.945Z" fill="#A0E573"/>
<path d="M131.243 176.849C129.971 170.351 130.239 167.136 130.239 167.136L130.998 172.718L131.444 176.782L131.243 176.849Z" fill="#FFC63B"/>
<path d="M134.86 176C136.044 172.606 136.111 167.136 136.111 167.136L135.262 171.713L134.86 176Z" fill="#FFC63B"/>
<path d="M150.334 134.783C150.311 134.783 150.2 134.783 150.088 134.783C149.306 134.76 148.011 134.76 147.654 133.845C147.364 133.108 147.721 129.022 147.877 127.303L148.972 127.414C148.726 130.027 148.547 132.996 148.681 133.465C148.726 133.532 148.994 133.666 150.088 133.689C150.289 133.689 150.423 133.689 150.534 133.711L150.334 134.783Z" fill="#152338"/>
<path d="M161.498 131.143C158.327 131.143 156.943 128.955 156.653 128.442L157.613 127.906C158.015 128.643 159.622 130.92 163.686 129.692L163.999 130.741C163.083 131.009 162.235 131.143 161.498 131.143Z" fill="#152338"/>
<path d="M143.568 129.915C142.765 129.915 141.961 129.58 141.202 128.955L141.916 128.129C143.234 129.245 144.283 128.844 144.93 128.285L145.645 129.111C144.997 129.647 144.305 129.915 143.568 129.915Z" fill="#152338"/>
<path d="M227.946 249.281L228.638 250.777L237.547 247.83L241.901 244.592L243.442 242.069L241.008 241.02L232.769 243.632L227.946 249.281Z" fill="#FFC63B"/>
<path d="M153.259 142.396C153.102 142.396 152.969 142.396 152.812 142.374C151.138 142.173 149.999 140.834 149.731 140.387L150.669 139.829C150.825 140.074 151.696 141.124 152.946 141.28C153.772 141.392 154.598 141.034 155.38 140.275L156.161 141.057C155.246 141.928 154.286 142.396 153.259 142.396Z" fill="#152338"/>
<path d="M159.778 96.6687C162.787 96.6687 165.226 94.2295 165.226 91.2206C165.226 88.2118 162.787 85.7726 159.778 85.7726C156.769 85.7726 154.33 88.2118 154.33 91.2206C154.33 94.2295 156.769 96.6687 159.778 96.6687Z" fill="#2D476D"/>
<path d="M198.25 195.247C198.25 195.247 209.28 225.747 210.106 238.564C210.932 251.38 208.61 257.051 208.61 257.051L214.237 255.846L216.001 240.06L198.25 195.247Z" fill="#4E88F1"/>
<path d="M197.022 191.92C203.497 209.627 220.645 251.38 220.645 251.38C233.305 249.549 244.402 237.894 244.402 237.894C236.81 227.355 221.136 187.566 221.136 187.566C207.739 152.757 193.628 156.061 193.628 156.061C185.098 165.127 177.507 176.849 177.507 176.849C173.466 168.364 172.796 159.098 172.796 159.098C168.486 160.706 160.694 165.439 159.488 179.841C157.702 201.053 164.244 206.054 164.244 206.054" fill="#6998FF"/>
<path d="M162.703 234.344L177.842 179.595L167.459 169.436C167.459 169.436 169.424 213.69 150.199 232.022C150.199 232.022 145.845 236.264 139.482 241.645C151.07 252.742 166.298 260.066 183.2 261.629L174.515 238.586L162.703 234.344Z" fill="#6998FF"/>
<path d="M122.803 171.713L124.723 175.308L125.795 177.943C124.098 176.067 122.803 171.892 122.803 171.892" fill="#FFC63B"/>
<path d="M190.078 265C186.527 265 182.955 264.755 179.405 264.241C171.322 263.102 163.53 260.713 156.273 257.118C149.374 253.702 143.055 249.281 137.473 243.945L137.406 243.878L135.753 242.225L142.05 235.884L143.68 237.492C148.592 242.181 154.152 246.088 160.225 249.08C166.633 252.251 173.488 254.35 180.633 255.354C193.873 257.208 207.203 255.131 219.171 249.326L223.056 257.364C212.718 262.432 201.487 265 190.078 265Z" fill="#A0E573"/>
<path d="M124.321 268.908C124.388 269.89 121.195 272.793 117.199 273.061C113.202 273.329 109.719 272.145 109.652 271.163C109.585 270.181 112.934 267.925 116.953 267.657C120.95 267.367 124.254 267.925 124.321 268.908Z" fill="#A0E573"/>
<path d="M124.321 268.729C124.21 269.689 127.291 272.703 131.31 273.128C135.329 273.552 138.812 272.458 138.924 271.498C139.035 270.538 135.753 268.148 131.757 267.724C127.76 267.322 124.433 267.769 124.321 268.729Z" fill="#A0E573"/>
<path d="M123.718 289.918C124.656 285.118 124.477 274.936 124.276 269.287C124.276 269.064 124.567 269.042 124.589 269.265C125.08 273.485 125.728 280.139 125.705 284.649C125.638 291.682 123.718 289.918 123.718 289.918Z" fill="#A0E573"/>
<path d="M167.526 171.758C167.526 171.758 162.904 201.41 162.726 202.593C162.525 203.776 163.753 205.384 163.753 205.384L167.526 171.758Z" fill="#4E88F1"/>
<path d="M107.843 181.247C107.843 181.247 110.679 184.775 111.46 187.321L108.647 189.129L107.843 181.247Z" fill="#EE896D"/>
<path d="M132.968 32.088H130.424V31.384H132.968V32.088ZM130.424 34.216V33.448H132.968V34.216H130.424ZM142.216 26.728H137.688C137.848 26.408 137.976 26.088 138.104 25.768L136.312 25.32C135.96 26.28 135.416 27.208 134.76 27.976V26.728H131.176C131.336 26.408 131.48 26.104 131.592 25.784L129.832 25.32C129.336 26.68 128.424 28.056 127.448 28.904C127.88 29.144 128.632 29.64 128.984 29.944C129.448 29.448 129.944 28.824 130.392 28.136H130.536C130.904 28.744 131.224 29.432 131.384 29.96H128.664V38.024C128.264 38.088 127.88 38.136 127.544 38.168L127.832 39.848C129.384 39.592 131.416 39.272 133.416 38.936C133.608 39.32 133.768 39.672 133.864 39.976L135.432 39.192C135.064 38.184 134.168 36.76 133.24 35.72L131.752 36.408C132.024 36.728 132.28 37.096 132.536 37.464C131.816 37.576 131.112 37.688 130.424 37.784V35.64H134.76V29.96H131.704L132.984 29.384C132.872 29.016 132.664 28.584 132.424 28.136H134.616C134.376 28.392 134.12 28.632 133.864 28.84C134.296 29.08 135.064 29.592 135.416 29.912C135.912 29.432 136.424 28.824 136.872 28.136H137.512C137.96 28.728 138.392 29.432 138.616 29.96H135.72V40.2H137.496V31.688H139.992V36.536C139.992 36.728 139.912 36.792 139.672 36.792C139.448 36.808 138.648 36.808 137.928 36.776C138.152 37.256 138.408 38.024 138.472 38.52C139.64 38.52 140.456 38.504 141.032 38.216C141.64 37.944 141.8 37.448 141.8 36.568V29.96H139.032L140.312 29.448C140.152 29.064 139.864 28.6 139.528 28.136H142.216V26.728ZM144.136 34.808C144.008 36.152 143.752 37.576 143.288 38.52C143.704 38.664 144.408 39 144.744 39.208C145.208 38.184 145.544 36.584 145.704 35.08L144.136 34.808ZM147.704 35.16C148.104 36.136 148.52 37.432 148.648 38.248L150.152 37.72C149.96 36.904 149.544 35.656 149.112 34.712L147.704 35.16ZM152.696 28.152C153 27.416 153.272 26.648 153.48 25.864L151.528 25.448C151.016 27.464 150.072 29.512 148.888 30.776L148.776 30.584L147.432 31.176C147.624 31.512 147.816 31.896 147.992 32.28L146.376 32.344C147.416 31.048 148.536 29.416 149.432 28.008L147.816 27.336C147.432 28.136 146.92 29.064 146.344 29.96C146.184 29.752 145.992 29.512 145.784 29.288C146.36 28.392 147.016 27.16 147.592 26.056L145.912 25.464C145.64 26.296 145.192 27.368 144.744 28.248C144.616 28.136 144.488 28.024 144.36 27.912L143.464 29.224C144.136 29.864 144.92 30.728 145.384 31.416C145.144 31.768 144.888 32.104 144.648 32.408L143.464 32.456L143.624 34.12L145.992 33.96V40.408H147.672V33.832L148.584 33.768C148.68 34.088 148.76 34.376 148.808 34.632L150.248 33.96C150.072 33.16 149.56 31.976 149 30.968C149.48 31.256 150.184 31.736 150.504 32.024C150.984 31.448 151.432 30.744 151.864 29.96H156.28C156.104 35.416 155.864 37.752 155.384 38.248C155.192 38.456 155.016 38.52 154.712 38.52C154.28 38.52 153.368 38.52 152.36 38.424C152.712 38.968 152.968 39.8 153 40.344C153.928 40.376 154.92 40.392 155.496 40.296C156.168 40.2 156.584 40.024 157.032 39.416C157.704 38.568 157.928 36.04 158.136 29.032C158.152 28.792 158.152 28.152 158.152 28.152H152.696ZM154.504 35.464C154.168 34.456 153.256 32.984 152.424 31.88L150.904 32.648C151.72 33.8 152.552 35.336 152.856 36.344L154.504 35.464ZM164.936 26.312L162.36 26.28C162.504 26.92 162.568 27.688 162.568 28.44C162.568 29.816 162.408 34.024 162.408 36.168C162.408 38.904 164.104 40.056 166.728 40.056C170.376 40.056 172.648 37.912 173.672 36.376L172.216 34.616C171.064 36.36 169.384 37.88 166.744 37.88C165.496 37.88 164.536 37.352 164.536 35.736C164.536 33.752 164.664 30.168 164.728 28.44C164.76 27.8 164.84 26.984 164.936 26.312ZM182.552 26.12L180.344 25.896C180.312 26.728 180.136 27.688 179.912 28.568C179.416 28.616 178.936 28.632 178.456 28.632C177.864 28.632 177.016 28.6 176.328 28.52L176.472 30.376C177.16 30.424 177.816 30.44 178.472 30.44C178.744 30.44 179.016 30.44 179.304 30.424C178.6 32.152 177.304 34.504 176.04 36.072L177.976 37.064C179.272 35.256 180.632 32.456 181.4 30.216C182.472 30.056 183.464 29.848 184.2 29.656L184.136 27.8C183.512 27.992 182.76 28.168 181.976 28.312C182.216 27.448 182.424 26.632 182.552 26.12ZM181.72 37.192C181.72 36.632 182.312 36.216 183.24 36.216C183.688 36.216 184.12 36.28 184.536 36.376C184.536 36.504 184.536 36.6 184.536 36.696C184.536 37.576 184.2 38.184 183.096 38.184C182.216 38.184 181.72 37.784 181.72 37.192ZM186.296 31.096H184.296C184.328 32.072 184.408 33.496 184.472 34.68C184.104 34.648 183.752 34.616 183.368 34.616C181.144 34.616 179.832 35.816 179.832 37.384C179.832 39.144 181.4 40.024 183.384 40.024C185.656 40.024 186.472 38.872 186.472 37.384C186.472 37.336 186.472 37.272 186.472 37.224C187.352 37.752 188.072 38.424 188.632 38.936L189.704 37.224C188.888 36.488 187.768 35.688 186.392 35.176C186.36 34.376 186.312 33.608 186.296 33.144C186.28 32.44 186.248 31.768 186.296 31.096ZM189.048 31.944L190.184 30.264C189.368 29.672 187.384 28.584 186.232 28.088L185.208 29.672C186.296 30.168 188.12 31.208 189.048 31.944ZM198.28 26.472L195.896 26.232C195.928 27.24 195.784 28.408 195.56 29.608C194.744 29.688 193.992 29.736 193.496 29.752C192.904 29.768 192.376 29.8 191.784 29.752L191.976 31.928C192.472 31.848 193.304 31.736 193.768 31.656C194.056 31.624 194.568 31.56 195.144 31.496C194.552 33.688 193.448 36.92 191.896 39.016L193.976 39.848C195.448 37.496 196.632 33.704 197.24 31.272C197.704 31.24 198.104 31.208 198.36 31.208C199.352 31.208 199.912 31.384 199.912 32.664C199.912 34.248 199.688 36.184 199.256 37.096C199 37.624 198.6 37.784 198.056 37.784C197.64 37.784 196.712 37.624 196.104 37.448L196.44 39.56C196.984 39.672 197.752 39.784 198.36 39.784C199.576 39.784 200.456 39.432 200.984 38.312C201.672 36.92 201.896 34.328 201.896 32.44C201.896 30.136 200.696 29.384 199 29.384C198.664 29.384 198.2 29.416 197.656 29.448C197.768 28.872 197.896 28.28 197.992 27.8C198.072 27.4 198.184 26.888 198.28 26.472ZM205.4 25.144L204.12 25.656C204.568 26.264 205.08 27.208 205.416 27.864L206.68 27.32C206.408 26.76 205.816 25.752 205.4 25.144ZM203.496 25.864L202.232 26.392C202.6 26.904 203 27.672 203.32 28.28L201.88 28.904C203.016 30.312 204.152 33.128 204.568 34.904L206.6 33.976C206.152 32.552 204.952 29.88 203.992 28.392L204.776 28.056C204.472 27.464 203.896 26.456 203.496 25.864ZM212.344 26.12L211.832 28.04C213.08 28.36 216.648 29.112 218.264 29.32L218.744 27.368C217.352 27.208 213.864 26.6 212.344 26.12ZM212.44 29.336L210.296 29.032C210.184 31.016 209.816 34.152 209.496 35.72L211.336 36.184C211.48 35.864 211.64 35.608 211.928 35.256C212.936 34.04 214.568 33.368 216.376 33.368C217.768 33.368 218.76 34.136 218.76 35.176C218.76 37.208 216.216 38.376 211.416 37.72L212.024 39.816C218.68 40.376 220.984 38.136 220.984 35.224C220.984 33.288 219.352 31.56 216.552 31.56C214.872 31.56 213.288 32.024 211.832 33.08C211.944 32.168 212.232 30.216 212.44 29.336ZM100.164 59.4453C100.237 59.9714 100.38 60.3646 100.594 60.625C100.984 61.099 101.654 61.3359 102.602 61.3359C103.169 61.3359 103.63 61.2734 103.984 61.1484C104.656 60.9089 104.992 60.4635 104.992 59.8125C104.992 59.4323 104.826 59.138 104.492 58.9297C104.159 58.7266 103.635 58.5469 102.922 58.3906L101.703 58.1172C100.505 57.8464 99.6771 57.5521 99.2188 57.2344C98.4427 56.7031 98.0547 55.8724 98.0547 54.7422C98.0547 53.7109 98.4297 52.8542 99.1797 52.1719C99.9297 51.4896 101.031 51.1484 102.484 51.1484C103.698 51.1484 104.732 51.4714 105.586 52.1172C106.445 52.7578 106.896 53.6901 106.938 54.9141H104.625C104.583 54.2214 104.281 53.7292 103.719 53.4375C103.344 53.2448 102.878 53.1484 102.32 53.1484C101.701 53.1484 101.206 53.2734 100.836 53.5234C100.466 53.7734 100.281 54.1224 100.281 54.5703C100.281 54.9818 100.464 55.2891 100.828 55.4922C101.062 55.6276 101.562 55.7865 102.328 55.9688L104.312 56.4453C105.182 56.6536 105.839 56.9323 106.281 57.2812C106.969 57.8229 107.312 58.6068 107.312 59.6328C107.312 60.6849 106.909 61.5599 106.102 62.2578C105.299 62.9505 104.164 63.2969 102.695 63.2969C101.195 63.2969 100.016 62.9557 99.1562 62.2734C98.2969 61.5859 97.8672 60.6432 97.8672 59.4453H100.164ZM111.43 53.4844V61H113.648C114.784 61 115.576 60.4401 116.023 59.3203C116.268 58.7057 116.391 57.974 116.391 57.125C116.391 55.9531 116.206 55.0547 115.836 54.4297C115.471 53.7995 114.742 53.4844 113.648 53.4844H111.43ZM114.055 51.4844C114.768 51.4948 115.362 51.5781 115.836 51.7344C116.643 52 117.297 52.487 117.797 53.1953C118.198 53.7682 118.471 54.388 118.617 55.0547C118.763 55.7214 118.836 56.3568 118.836 56.9609C118.836 58.4922 118.529 59.7891 117.914 60.8516C117.081 62.2839 115.794 63 114.055 63H109.094V51.4844H114.055ZM128.398 55.0781C128.216 54.2917 127.771 53.7422 127.062 53.4297C126.667 53.2578 126.227 53.1719 125.742 53.1719C124.815 53.1719 124.052 53.5234 123.453 54.2266C122.859 54.9245 122.562 55.9766 122.562 57.3828C122.562 58.7995 122.885 59.8021 123.531 60.3906C124.177 60.9792 124.911 61.2734 125.734 61.2734C126.542 61.2734 127.203 61.0417 127.719 60.5781C128.234 60.1094 128.552 59.4974 128.672 58.7422H126.008V56.8203H130.805V63H129.211L128.969 61.5625C128.505 62.1094 128.089 62.4948 127.719 62.7188C127.083 63.1094 126.302 63.3047 125.375 63.3047C123.849 63.3047 122.599 62.776 121.625 61.7188C120.609 60.6562 120.102 59.2031 120.102 57.3594C120.102 55.4948 120.615 54 121.641 52.875C122.667 51.75 124.023 51.1875 125.711 51.1875C127.174 51.1875 128.349 51.5599 129.234 52.3047C130.125 53.0443 130.635 53.9688 130.766 55.0781H128.398ZM134.664 60.2812C134.711 60.6771 134.812 60.9583 134.969 61.125C135.245 61.4219 135.755 61.5703 136.5 61.5703C136.938 61.5703 137.284 61.5052 137.539 61.375C137.799 61.2448 137.93 61.0495 137.93 60.7891C137.93 60.5391 137.826 60.349 137.617 60.2188C137.409 60.0885 136.635 59.8646 135.297 59.5469C134.333 59.3073 133.654 59.0078 133.258 58.6484C132.862 58.2943 132.664 57.7839 132.664 57.1172C132.664 56.3307 132.971 55.6562 133.586 55.0938C134.206 54.526 135.076 54.2422 136.195 54.2422C137.258 54.2422 138.122 54.4557 138.789 54.8828C139.461 55.3047 139.846 56.0365 139.945 57.0781H137.719C137.688 56.7917 137.607 56.5651 137.477 56.3984C137.232 56.0964 136.815 55.9453 136.227 55.9453C135.742 55.9453 135.396 56.0208 135.188 56.1719C134.984 56.3229 134.883 56.5 134.883 56.7031C134.883 56.9583 134.992 57.1432 135.211 57.2578C135.43 57.3776 136.203 57.5833 137.531 57.875C138.417 58.0833 139.081 58.3984 139.523 58.8203C139.961 59.2474 140.18 59.7812 140.18 60.4219C140.18 61.2656 139.865 61.9557 139.234 62.4922C138.609 63.0234 137.641 63.2891 136.328 63.2891C134.99 63.2891 134 63.0078 133.359 62.4453C132.724 61.8776 132.406 61.1562 132.406 60.2812H134.664ZM147.965 51.816V53.864C149.981 54.056 152.877 54.04 154.845 53.864V51.8C153.117 52.008 149.933 52.088 147.965 51.816ZM149.245 58.648L147.405 58.472C147.229 59.288 147.133 59.928 147.133 60.552C147.133 62.2 148.461 63.176 151.213 63.176C153.021 63.176 154.301 63.064 155.341 62.872L155.309 60.712C153.901 61 152.717 61.128 151.293 61.128C149.661 61.128 149.053 60.696 149.053 59.992C149.053 59.56 149.117 59.176 149.245 58.648ZM145.501 50.744L143.261 50.552C143.245 51.064 143.149 51.672 143.101 52.12C142.925 53.352 142.429 56.056 142.429 58.456C142.429 60.632 142.733 62.584 143.053 63.688L144.909 63.56C144.893 63.336 144.877 63.08 144.877 62.904C144.877 62.744 144.909 62.392 144.957 62.152C145.133 61.304 145.661 59.56 146.109 58.232L145.117 57.448C144.893 57.976 144.637 58.536 144.397 59.08C144.349 58.76 144.333 58.344 144.333 58.04C144.333 56.44 144.893 53.24 145.101 52.168C145.165 51.88 145.373 51.08 145.501 50.744ZM171.853 52.552H165.757V51.592H170.493V50.12H159.229V51.592H163.805V52.552H157.805V54.024H171.853V52.552ZM161.357 59.736H168.189V60.52H161.357V59.736ZM161.357 57.816H168.189V58.6H161.357V57.816ZM161.357 55.928H168.189V56.68H161.357V55.928ZM170.205 61.736V54.696H159.437V61.736H161.725C160.605 62.28 158.989 62.776 157.517 63.048C157.917 63.384 158.589 64.056 158.909 64.44C160.541 63.976 162.589 63.16 163.917 62.264L162.717 61.736H166.909L165.693 62.456C167.341 63.096 169.005 63.88 169.949 64.424L172.061 63.544C171.021 63.048 169.325 62.312 167.757 61.736H170.205ZM188.333 52.6C188.141 51.848 187.613 50.776 187.085 49.944L185.597 50.504C186.109 51.352 186.605 52.488 186.749 53.208L188.333 52.6ZM179.501 61.112V59.784H178.333V58.84H179.533V57.48H178.813C179.021 57 179.293 56.296 179.581 55.608L178.381 55.336C178.269 55.88 178.029 56.696 177.837 57.256L178.749 57.48H176.541L177.325 57.224C177.261 56.744 176.989 55.96 176.733 55.416L175.741 55.704C175.997 56.264 176.221 56.984 176.285 57.48H175.693V58.84H176.893V59.784H175.709V61.112H176.893V63.656H178.333V61.112H179.501ZM188.061 55.576V53.832H185.485V49.448H183.629V53.832H181.677V55.576H183.597C183.485 57.704 183.069 60.216 181.469 62.2V53.704H178.493V52.376H181.693V50.776H178.493V49.464H176.701V50.776H173.613V52.376H176.701V53.704H173.789V64.344H175.357V55.208H179.869V62.568C179.869 62.728 179.821 62.776 179.677 62.776C179.517 62.792 179.069 62.792 178.653 62.776C178.845 63.176 179.037 63.848 179.069 64.28C179.901 64.28 180.477 64.248 180.925 63.992C181.101 63.896 181.229 63.768 181.309 63.608C181.613 63.88 181.901 64.168 182.077 64.392C183.485 62.952 184.317 61.224 184.813 59.464C185.309 61.496 186.029 63.208 187.165 64.408C187.453 63.896 188.061 63.176 188.493 62.84C186.925 61.368 186.125 58.616 185.709 55.576H188.061ZM189.901 52.024L190.109 54.216C191.965 53.816 195.229 53.464 196.733 53.304C195.645 54.12 194.349 55.944 194.349 58.248C194.349 61.72 197.517 63.512 200.877 63.736L201.629 61.544C198.909 61.4 196.445 60.456 196.445 57.816C196.445 55.912 197.901 53.848 199.837 53.336C200.685 53.128 202.061 53.128 202.925 53.112L202.909 51.064C201.773 51.112 200.029 51.208 198.381 51.352C195.453 51.592 192.813 51.832 191.469 51.944C191.165 51.976 190.541 52.008 189.901 52.024ZM200.637 54.68L199.453 55.176C199.965 55.896 200.301 56.52 200.701 57.4L201.917 56.856C201.613 56.232 201.037 55.256 200.637 54.68ZM202.429 53.944L201.261 54.488C201.773 55.192 202.141 55.784 202.573 56.648L203.773 56.072C203.437 55.448 202.829 54.504 202.429 53.944ZM207.133 54.872L207.245 56.76C209.661 56.904 212.237 56.904 214.205 56.776C214.461 57.32 214.765 57.88 215.101 58.44C214.621 58.392 213.757 58.312 213.085 58.248L212.925 59.768C214.093 59.896 215.821 60.104 216.717 60.28L217.693 58.808C217.405 58.536 217.181 58.296 216.973 57.992C216.685 57.576 216.413 57.08 216.141 56.568C217.101 56.44 217.965 56.264 218.701 56.072L218.381 54.184C217.597 54.392 216.637 54.664 215.325 54.824C215.229 54.568 215.133 54.328 215.053 54.104C214.973 53.864 214.893 53.608 214.813 53.352C215.869 53.208 216.877 53 217.757 52.76L217.501 50.92C216.477 51.24 215.453 51.464 214.349 51.608C214.237 51.064 214.141 50.504 214.061 49.928L211.917 50.168C212.109 50.728 212.269 51.24 212.429 51.752C210.957 51.8 209.325 51.736 207.421 51.512L207.533 53.352C209.549 53.544 211.421 53.576 212.925 53.496C213.021 53.768 213.117 54.072 213.245 54.44C213.309 54.616 213.373 54.808 213.453 55C211.677 55.112 209.517 55.096 207.133 54.872ZM210.205 58.584L208.221 58.2C207.853 58.968 207.501 59.752 207.533 60.776C207.565 63.064 209.549 64.008 212.749 64.008C214.061 64.008 215.517 63.896 216.637 63.704L216.749 61.672C215.613 61.896 214.253 62.024 212.733 62.024C210.621 62.024 209.501 61.544 209.501 60.36C209.501 59.672 209.821 59.112 210.205 58.584ZM225.341 61.192C225.341 60.648 225.965 60.2 227.101 60.2C227.549 60.2 227.981 60.248 228.413 60.312C228.429 60.6 228.429 60.824 228.429 61C228.429 61.928 227.869 62.168 227.021 62.168C225.917 62.168 225.341 61.8 225.341 61.192ZM230.349 50.056H228.189C228.253 50.36 228.285 50.856 228.285 51.16C228.285 51.352 228.285 51.608 228.285 51.912C228.077 51.912 227.869 51.912 227.661 51.912C226.685 51.912 224.861 51.752 223.709 51.56L223.757 53.384C224.813 53.528 226.669 53.672 227.677 53.672C227.869 53.672 228.061 53.672 228.269 53.672C228.253 54.216 228.253 54.792 228.253 55.32C227.997 55.32 227.741 55.32 227.485 55.32C226.637 55.32 224.669 55.208 223.629 55.016L223.645 56.904C224.701 57.032 226.525 57.112 227.453 57.112C227.741 57.112 228.013 57.112 228.285 57.112C228.301 57.592 228.317 58.104 228.349 58.6C228.029 58.568 227.693 58.552 227.357 58.552C224.893 58.552 223.405 59.688 223.405 61.304C223.405 63 224.749 63.976 227.309 63.976C229.421 63.976 230.461 62.92 230.461 61.56C230.461 61.384 230.461 61.192 230.445 60.968C231.725 61.544 232.813 62.392 233.677 63.192L234.829 61.4C233.901 60.632 232.365 59.56 230.349 58.984C230.301 58.344 230.269 57.688 230.237 57.08C231.773 57.032 233.021 56.92 234.461 56.76L234.477 54.872C233.181 55.048 231.821 55.176 230.205 55.256C230.205 54.76 230.205 54.168 230.205 53.608C231.757 53.528 233.213 53.384 234.269 53.256L234.285 51.416C232.877 51.656 231.549 51.784 230.237 51.848C230.237 51.592 230.237 51.352 230.253 51.192C230.269 50.776 230.301 50.376 230.349 50.056ZM247.245 50.104H244.925C244.973 50.296 245.037 50.84 245.085 51.496C245.101 51.624 245.101 51.784 245.117 51.992C242.941 52.024 240.029 52.088 238.205 52.088L238.253 54.024C240.221 53.912 242.717 53.816 245.133 53.784C245.149 54.136 245.149 54.504 245.149 54.856C244.941 54.824 244.733 54.808 244.509 54.808C242.765 54.808 241.309 55.992 241.309 57.8C241.309 59.752 242.829 60.744 244.061 60.744C244.317 60.744 244.557 60.712 244.781 60.664C243.901 61.624 242.493 62.152 240.877 62.488L242.589 64.184C246.493 63.096 247.709 60.44 247.709 58.36C247.709 57.528 247.517 56.776 247.133 56.168C247.133 55.464 247.117 54.584 247.117 53.768C249.293 53.768 250.781 53.8 251.741 53.848L251.757 51.96C250.925 51.944 248.733 51.976 247.117 51.976C247.133 51.784 247.133 51.608 247.133 51.48C247.149 51.224 247.213 50.36 247.245 50.104ZM243.229 57.768C243.229 56.92 243.837 56.488 244.461 56.488C244.893 56.488 245.277 56.68 245.501 57.048C245.725 58.456 245.133 58.968 244.461 58.968C243.821 58.968 243.229 58.504 243.229 57.768Z" fill="black"/>
</svg>
