<svg width="91" height="90" viewBox="0 0 91 90" fill="none" xmlns="http://www.w3.org/2000/svg">
<g clip-path="url(#clip0)">
<path d="M73.7872 1.56762L15.3165 9.83621C14.2583 9.98586 13.5217 10.9651 13.6714 12.0233L14.3041 16.4975C14.4537 17.5557 15.4329 18.2923 16.4912 18.1426L74.9619 9.87403C76.0201 9.72438 76.7567 8.74518 76.607 7.68693L75.9743 3.21279C75.8247 2.15454 74.8455 1.41797 73.7872 1.56762Z" fill="#6999FF"/>
<path d="M54.1609 8.21578L53.1932 1.66415C53.1213 1.156 52.8504 0.697245 52.4402 0.388732C52.0301 0.0802186 51.5143 -0.0527495 51.0061 0.0190361L36.1513 2.09965C35.8988 2.13411 35.6556 2.2181 35.4356 2.34678C35.2157 2.47546 35.0233 2.64629 34.8695 2.84949C34.7158 3.0527 34.6038 3.2843 34.5397 3.53094C34.4757 3.77758 34.4609 4.03442 34.4964 4.28675L35.4641 10.8384C35.4986 11.0909 35.5826 11.334 35.7112 11.554C35.8399 11.7739 36.0108 11.9663 36.214 12.12C36.4172 12.2738 36.6488 12.3859 36.8954 12.4499C37.142 12.514 37.3989 12.5287 37.6512 12.4932L52.5157 10.4029C53.0239 10.3309 53.4827 10.0601 53.7912 9.64997C54.0997 9.23983 54.2327 8.72396 54.1609 8.21578ZM48.8867 7.73191L40.4092 8.92221C40.1552 8.95811 39.8973 8.89165 39.6922 8.7374C39.4871 8.58314 39.3517 8.35373 39.3157 8.09966L39.0061 5.86418C38.9885 5.7362 38.9966 5.606 39.0302 5.48125C39.0637 5.3565 39.1219 5.23975 39.2012 5.13784C39.2806 5.03592 39.3796 4.95093 39.4923 4.88787C39.605 4.82481 39.7293 4.78492 39.8577 4.77062L48.3254 3.58032C48.5795 3.54443 48.8374 3.61088 49.0425 3.76514C49.2476 3.91939 49.383 4.1488 49.419 4.40288L49.7383 6.63836C49.7559 6.76633 49.7477 6.89654 49.7142 7.02128C49.6807 7.14603 49.6225 7.26278 49.5431 7.3647C49.4638 7.46661 49.3648 7.55166 49.2521 7.61472C49.1393 7.67779 49.0151 7.71761 48.8867 7.73191V7.73191Z" fill="#6999FF"/>
<path fill-rule="evenodd" clip-rule="evenodd" d="M25.8642 89.9317H67.2351C70.3609 89.9317 72.9255 87.8607 73.0513 85.2478L75.5189 26.8833C75.5056 26.6449 75.4444 26.4117 75.3391 26.1974C75.2338 25.9832 75.0866 25.7923 74.9061 25.6361C74.7255 25.4799 74.5153 25.3616 74.2881 25.2883C74.0609 25.2149 73.8213 25.188 73.5835 25.2091H19.5351C19.2973 25.188 19.0576 25.2149 18.8304 25.2883C18.6032 25.3616 18.3932 25.4799 18.2126 25.6361C18.032 25.7923 17.8847 25.9832 17.7794 26.1974C17.6741 26.4117 17.6129 26.6449 17.5996 26.8833L20.0577 85.2478C20.1738 87.8607 22.7384 89.9317 25.8642 89.9317ZM44.5223 38.5157H48.5675C49.0539 38.5157 49.4481 38.91 49.4481 39.3963V78.0867C49.4481 78.573 49.0539 78.9673 48.5675 78.9673H44.5223C44.036 78.9673 43.6417 78.573 43.6417 78.0867V39.3963C43.6417 38.91 44.036 38.5157 44.5223 38.5157ZM34.1383 38.5157H30.0932C29.6068 38.5157 29.2125 38.91 29.2125 39.3963V78.0867C29.2125 78.573 29.6068 78.9673 30.0932 78.9673H34.1383C34.6247 78.9673 35.019 78.573 35.019 78.0867V39.3963C35.019 38.91 34.6247 38.5157 34.1383 38.5157ZM59.1254 38.5157H63.1706C63.6569 38.5157 64.0512 38.91 64.0512 39.3963V78.0867C64.0512 78.573 63.6569 78.9673 63.1706 78.9673H59.1254C58.639 78.9673 58.2448 78.573 58.2448 78.0867V39.3963C58.2448 38.91 58.639 38.5157 59.1254 38.5157Z" fill="#6999FF"/>
<path fill-rule="evenodd" clip-rule="evenodd" d="M84.6592 12.4358C84.8139 12.8344 84.6161 13.2829 84.2175 13.4376L77.782 15.9344C77.3833 16.089 76.9348 15.8912 76.7802 15.4926C76.6255 15.094 76.8233 14.6455 77.2219 14.4908L83.6574 11.994C84.056 11.8394 84.5045 12.0372 84.6592 12.4358Z" fill="#6999FF"/>
<path fill-rule="evenodd" clip-rule="evenodd" d="M86.9349 17.7225C86.9757 18.1481 86.6637 18.5262 86.238 18.5669L78.3509 19.3217C77.9253 19.3625 77.5472 19.0504 77.5065 18.6248C77.4658 18.1992 77.7778 17.8211 78.2034 17.7804L86.0905 17.0255C86.5161 16.9848 86.8942 17.2968 86.9349 17.7225Z" fill="#6999FF"/>
<path fill-rule="evenodd" clip-rule="evenodd" d="M77.5811 21.7052C77.6991 21.2942 78.128 21.0568 78.5389 21.1748L84.7712 22.9651C85.1821 23.0832 85.4196 23.512 85.3015 23.923C85.1835 24.334 84.7546 24.5714 84.3437 24.4533L78.1114 22.663C77.7005 22.545 77.463 22.1161 77.5811 21.7052Z" fill="#6999FF"/>
</g>
<defs>
<clipPath id="clip0">
<rect width="90" height="90" fill="white" transform="translate(0.5)"/>
</clipPath>
</defs>
</svg>
