<svg width="76" height="100" viewBox="0 0 76 100" fill="none" xmlns="http://www.w3.org/2000/svg">
<g clip-path="url(#clip0)">
<path d="M75.8883 32.106H29.6373L50.3491 11.3942C51.4932 10.2501 51.4932 8.39504 50.3491 7.25074L45.1008 2.00247C42.4312 -0.667166 38.1028 -0.667166 35.433 2.00247L30.0367 7.39898L27.2743 4.63657C24.2283 1.59038 19.2716 1.59057 16.2254 4.63657L5.45273 15.4093C2.40654 18.4554 2.40654 23.4121 5.45273 26.4583L8.21494 29.2207L2.81864 34.617C0.148997 37.2867 0.148997 41.615 2.81864 44.2849L8.0669 49.5331C9.21081 50.6772 11.066 50.6774 12.2101 49.5331L19.6359 42.1074V87.3044C19.6359 94.316 25.32 100 32.3317 100H63.1924C70.2041 100 75.8883 94.316 75.8883 87.3044V32.106ZM12.3584 25.0771L9.59615 22.3149C8.83465 21.5534 8.83465 20.3142 9.59615 19.5525L20.3688 8.77979C21.1305 8.0181 22.3698 8.01829 23.1311 8.77979L25.8933 11.5422L12.3584 25.0771ZM37.6569 83.5932C37.6569 85.2113 36.3453 86.5229 34.7272 86.5229C33.109 86.5229 31.7974 85.2113 31.7974 83.5932V48.5131C31.7974 46.8949 33.109 45.5833 34.7272 45.5833C36.3453 45.5833 37.6569 46.8949 37.6569 48.5131V83.5932ZM50.6919 83.5932C50.6919 85.2113 49.3802 86.5229 47.7621 86.5229C46.144 86.5229 44.8323 85.2113 44.8323 83.5932V48.5131C44.8323 46.8949 46.144 45.5833 47.7621 45.5833C49.3802 45.5833 50.6919 46.8949 50.6919 48.5131V83.5932ZM63.7268 83.5932C63.7268 85.2113 62.4151 86.5229 60.797 86.5229C59.1789 86.5229 57.8672 85.2113 57.8672 83.5932V48.5131C57.8672 46.8949 59.1789 45.5833 60.797 45.5833C62.4151 45.5833 63.7268 46.8949 63.7268 48.5131V83.5932Z" fill="#6999FF"/>
<path d="M51.0255 22.1768C49.2382 22.7998 47.9844 24.3957 47.7773 26.2474H75.8881V21.378C75.8881 18.0345 72.5982 15.6815 69.4387 16.7527L51.0862 22.1573C51.0665 22.1629 51.045 22.1707 51.0255 22.1768V22.1768Z" fill="#6999FF"/>
</g>
<defs>
<clipPath id="clip0">
<rect width="76" height="100" fill="white"/>
</clipPath>
</defs>
</svg>
