<svg width="90" height="90" viewBox="0 0 90 90" fill="none" xmlns="http://www.w3.org/2000/svg">
<g clip-path="url(#clip0)">
<path d="M8.32096 16.8701C12.9165 16.8701 16.6419 13.1446 16.6419 8.54911C16.6419 3.95357 12.9165 0.228149 8.32096 0.228149C3.72542 0.228149 0 3.95357 0 8.54911C0 13.1446 3.72542 16.8701 8.32096 16.8701Z" fill="#6999FF"/>
<path d="M33.2357 33.1909C32.6614 31.3068 30.7635 30.3293 28.7846 30.8191C28.7692 30.8229 28.7488 30.8282 28.7237 30.8347C28.072 31.0029 24.2318 31.994 20.7008 30.0822C17.6136 28.4107 15.5821 25.2364 14.793 24.0035L14.7205 23.8904C13.2401 21.5842 11.1733 19.7416 8.32117 19.7416C4.4508 19.7416 1.31421 22.8785 1.31421 26.7482V48.7679C1.31421 51.2318 2.5856 53.3983 4.50829 54.6476V85.9588C4.50829 88.0652 6.21535 89.772 8.32117 89.772C10.427 89.772 12.1342 88.0652 12.1342 85.9588V54.6474C14.0567 53.3981 15.3283 51.2317 15.3283 48.7679V35.1117C15.948 35.5573 16.6065 35.9763 17.3048 36.3545C20.1593 37.8997 23.1365 38.3317 25.572 38.3317C28.5392 38.3317 30.7034 37.6909 30.864 37.6418C32.7474 37.0677 33.8095 35.075 33.2357 33.1909Z" fill="#6999FF"/>
<path d="M90.0001 8.54911C90.0001 13.1446 86.2747 16.8701 81.6791 16.8701C77.0836 16.8701 73.3582 13.1446 73.3582 8.54911C73.3582 3.95357 77.0836 0.228149 81.6791 0.228149C86.2747 0.228149 90.0001 3.95357 90.0001 8.54911Z" fill="#6999FF"/>
<path d="M56.7644 33.1909C57.3387 31.3068 59.3307 30.2448 61.2157 30.8191C61.2535 30.8297 65.6392 32.064 69.2995 30.0822C72.3858 28.4112 74.4169 25.2382 75.2066 24.0045L75.2797 23.8904C76.7602 21.5842 78.827 19.7416 81.6791 19.7416C85.5495 19.7416 88.6861 22.8785 88.6861 26.7482V48.7679C88.6861 51.2318 87.4145 53.3983 85.492 54.6476V85.9588C85.492 88.0652 83.7849 89.772 81.6789 89.772C79.5731 89.772 77.8659 88.0652 77.8659 85.9588V54.6474C75.9434 53.3981 74.6716 51.2317 74.6716 48.7679V35.1117C74.0519 35.5573 73.3934 35.9763 72.6953 36.3545C69.8408 37.8997 66.8636 38.3317 64.4279 38.3317C61.4607 38.3317 59.2967 37.6909 59.1361 37.6418C57.2526 37.0679 56.1907 35.075 56.7644 33.1909Z" fill="#6999FF"/>
<path d="M39.1311 20.7869H45.8723C47.3672 20.7869 48.5833 22.003 48.5833 23.4977V43.24C48.5833 44.7349 47.3672 45.951 45.8723 45.951H27.6155C26.1208 45.951 24.9047 44.7349 24.9047 43.24V41.3091C24.9047 41.2553 24.9262 41.2036 24.9647 41.1658C25.0031 41.128 25.0551 41.1072 25.1091 41.1083C25.2246 41.1107 25.441 41.1147 25.572 41.1147C28.9187 41.1147 31.4028 40.387 31.6751 40.304C35.0238 39.2841 36.9186 35.7289 35.8986 32.3789C35.0899 29.7263 32.9538 27.9573 30.5129 28.0113C30.2957 28.0163 29.4557 28.0905 29.2645 28.1136L29.2494 28.1154C28.3904 28.2195 27.3245 28.3485 26.3709 28.3485C25.8408 28.3485 25.4123 28.3092 25.0606 28.2288C24.9693 28.2078 24.9047 28.1268 24.9047 28.0332V23.4977C24.9047 22.003 26.1208 20.7869 27.6155 20.7869H34.3569C34.4678 20.7869 34.5576 20.8767 34.5576 20.9876V24.7397C34.5576 25.0306 34.7944 25.2674 35.0853 25.2674H38.4025C38.6936 25.2674 38.9303 25.0306 38.9303 24.7397V20.9876C38.9303 20.8767 39.0201 20.7869 39.1311 20.7869Z" fill="#6999FF"/>
</g>
<defs>
<clipPath id="clip0">
<rect width="90" height="90" fill="white"/>
</clipPath>
</defs>
</svg>
