<svg width="90" height="90" viewBox="0 0 90 90" fill="none" xmlns="http://www.w3.org/2000/svg">
<path d="M63 2C62.4477 2 62 2.44772 62 3V36C62 36.5523 62.4477 37 63 37H59.3172C59.6539 37 59.8943 36.6739 59.7948 36.3523L53.9777 17.5444C53.8324 17.0747 53.1676 17.0747 53.0223 17.5444L47.2052 36.3523C47.1057 36.6739 47.3461 37 47.6828 37H41.2361C41.7111 36.4692 42 35.7684 42 35V17C42 15.3431 40.6569 14 39 14H32.5V19C32.5 19.5523 32.0523 20 31.5 20H28.5C27.9477 20 27.5 19.5523 27.5 19V14H21C19.3431 14 18 15.3431 18 17V35C18 35.7684 18.2889 36.4692 18.7639 37H2C1.44772 37 1 37.4477 1 38V44C1 44.5523 1.44771 45 2 45H10V89C10 89.5523 10.4477 90 11 90H15C15.5523 90 16 89.5523 16 89V45H74.5V89C74.5 89.5523 74.9477 90 75.5 90H79.5C80.0523 90 80.5 89.5523 80.5 89V45H88C88.5523 45 89 44.5523 89 44V38C89 37.4477 88.5523 37 88 37H67C67.5523 37 68 36.5523 68 36V3C68 2.44772 67.5523 2 67 2H63Z" fill="#6999FF"/>
<path d="M14.2335 16.1318C14.3411 16.1242 14.362 15.9751 14.2607 15.9382L8.3229 13.7715C8.26313 13.7497 8.19845 13.7885 8.1896 13.8515L7.8224 16.4643C7.81354 16.5273 7.86501 16.5824 7.92848 16.5779L14.2335 16.1318Z" fill="#6999FF"/>
<path d="M14.922 12.675C14.9784 12.766 14.8718 12.8701 14.7823 12.8114L9.17265 9.13913C9.11915 9.10411 9.11182 9.02856 9.15758 8.9839L11.2322 6.95909C11.2779 6.91443 11.3533 6.9236 11.387 6.97793L14.922 12.675Z" fill="#6999FF"/>
<path d="M17.8787 11.5963C17.9101 11.692 18.0472 11.6865 18.0709 11.5887L19.3784 6.192C19.3941 6.12748 19.3436 6.06591 19.2773 6.06853L16.2402 6.18863C16.1739 6.19125 16.1285 6.25661 16.1492 6.3197L17.8787 11.5963Z" fill="#6999FF"/>
</svg>
