<svg width="100" height="40" viewBox="0 0 100 40" fill="none" xmlns="http://www.w3.org/2000/svg">
<g clip-path="url(#clip0)">
<path d="M-0.195094 30.616C1.49691 33.028 4.12491 34.324 7.68891 34.324C12.9089 34.324 16.1129 31.624 16.1129 24.46V9.16H11.0729V24.46C11.0729 28.78 9.77691 30.076 7.36491 30.076C5.99691 30.076 4.77291 29.392 3.98091 28.276L-0.195094 30.616ZM39.2868 23.344V19.816C39.2868 12.148 35.3628 8.836 29.7468 8.836C24.1668 8.836 20.2428 12.148 20.2428 19.816V23.344C20.2428 30.94 24.1668 34.324 29.7468 34.324C35.3628 34.324 39.2868 30.94 39.2868 23.344ZM25.2828 19.816C25.2828 15.064 26.8308 13.084 29.7468 13.084C32.6628 13.084 34.2468 15.064 34.2468 19.816V23.344C34.2468 28.096 32.6628 30.076 29.7468 30.076C26.8308 30.076 25.2828 28.096 25.2828 23.344V19.816ZM42.0605 25.612H51.3845V21.58H42.0605V25.612ZM51.6747 9.16V13.444H58.5147V34H63.5547V13.444H70.3947V9.16H51.6747ZM91.1774 23.344V19.816C91.1774 12.148 87.2534 8.836 81.6374 8.836C76.0574 8.836 72.1334 12.148 72.1334 19.816V23.344C72.1334 30.94 76.0574 34.324 81.6374 34.324C87.2534 34.324 91.1774 30.94 91.1774 23.344ZM77.1734 19.816C77.1734 15.064 78.7214 13.084 81.6374 13.084C84.5534 13.084 86.1374 15.064 86.1374 19.816V23.344C86.1374 28.096 84.5534 30.076 81.6374 30.076C78.7214 30.076 77.1734 28.096 77.1734 23.344V19.816ZM99.6391 9.16H95.1031V27.196H99.6391V9.16ZM99.8191 34H94.9231V29.104H99.8191V34Z" fill="#006CF9"/>
</g>
<defs>
<clipPath id="clip0">
<rect width="100" height="40" fill="white"/>
</clipPath>
</defs>
</svg>
