<svg width="100" height="40" viewBox="0 0 100 40" fill="none" xmlns="http://www.w3.org/2000/svg">
<path d="M3.72991 29.3618C4.17109 29.9719 4.75427 30.4654 5.42901 30.7995C6.10375 31.1336 6.84968 31.2983 7.60237 31.2793C10.7102 31.2793 12.2793 29.5933 12.2793 24.3388V8.34595H16.7224V24.3388C16.7224 32.1609 13.3457 35.1542 7.78478 35.1542C4.41037 35.1542 1.64862 33.9265 0 31.4711L3.72991 29.3618Z" fill="#006CF9"/>
<path d="M30.3326 35.1543C24.4279 35.1543 20.4385 31.5858 20.4385 23.2655V19.8888C20.4385 11.5685 24.4279 8 30.3326 8C36.277 8 40.2664 11.5685 40.2664 19.8888V23.2655C40.2664 31.5858 36.2723 35.1543 30.3326 35.1543ZM24.8886 23.2655C24.8886 28.9784 26.8062 31.2795 30.3326 31.2795C33.859 31.2795 35.8186 28.9784 35.8186 23.2655V19.8888C35.8186 14.1759 33.8613 11.8748 30.3326 11.8748C26.8038 11.8748 24.8886 14.1759 24.8886 19.8888V23.2655Z" fill="#006CF9"/>
<path d="M43.2993 20.0525H53.2331V23.6561H43.2993V20.0525Z" fill="#006CF9"/>
<path d="M70.8808 8.34595V12.2185H63.2878V34.8198H58.8447V12.2302H51.2119V8.34595H70.8808Z" fill="#006CF9"/>
<path d="M82.209 35.1543C76.3044 35.1543 72.3149 31.5858 72.3149 23.2655V19.8888C72.3149 11.5685 76.3044 8 82.209 8C88.1534 8 92.1428 11.5685 92.1428 19.8888V23.2655C92.1428 31.5858 88.1534 35.1543 82.209 35.1543ZM76.7627 23.2655C76.7627 28.9784 78.6803 31.2795 82.209 31.2795C85.7378 31.2795 87.6927 28.9784 87.6927 23.2655V19.8888C87.6927 14.1759 85.7378 11.8748 82.209 11.8748C78.6803 11.8748 76.7627 14.1759 76.7627 19.8888V23.2655Z" fill="#006CF9"/>
<path d="M99.9927 34.82H95.4351V30.2834H99.9998L99.9927 34.82ZM99.801 8.35791H95.6198V27.5708H99.801V8.35791Z" fill="#006CF9"/>
</svg>
