<svg width="136" height="90" viewBox="0 0 136 90" fill="none" xmlns="http://www.w3.org/2000/svg">
<path fill-rule="evenodd" clip-rule="evenodd" d="M28.9746 30.8252C20.6925 32.2472 14.2235 35.5902 9.54743 38.9357C6.46613 41.1402 4.16106 43.3467 2.62096 45.0093C1.85047 45.841 1.27003 46.5381 0.878276 47.033C0.682355 47.2805 0.533489 47.4775 0.431513 47.6158C0.38052 47.6849 0.341237 47.7393 0.313644 47.778L0.281013 47.824L0.271264 47.838L0.26803 47.8426L0.266823 47.8444C0.266342 47.8451 0.265905 47.8457 1.43519 48.6533L0.265889 47.8457C-0.204893 48.5274 -0.0339465 49.4616 0.64771 49.9324C1.32905 50.403 2.26272 50.2324 2.73372 49.5515L2.73439 49.5506L2.73655 49.5475L2.7558 49.5203C2.77434 49.4944 2.80426 49.4528 2.84559 49.3968C2.92826 49.2848 3.0565 49.1148 3.23042 48.8951C3.57835 48.4556 4.10852 47.818 4.82179 47.048C6.24919 45.5071 8.40417 43.4423 11.293 41.3755C15.5702 38.3154 21.4514 35.253 28.9746 33.8724V30.8252ZM106.916 59.8991V56.8896C115.028 56.214 124.086 53.552 133.583 47.437C134.279 46.9885 135.208 47.1896 135.656 47.8861C136.105 48.5827 135.903 49.5109 135.207 49.9593C125.159 56.429 115.538 59.2211 106.916 59.8991Z" fill="#6999FF"/>
<path fill-rule="evenodd" clip-rule="evenodd" d="M28.9746 45.2979C20.6925 46.7199 14.2235 50.0629 9.54743 53.4083C6.46613 55.6128 4.16106 57.8194 2.62096 59.4819C1.85047 60.3137 1.27003 61.0108 0.878276 61.5056C0.682355 61.7531 0.533489 61.9502 0.431513 62.0884C0.38052 62.1575 0.341237 62.2119 0.313644 62.2506L0.281013 62.2967L0.271264 62.3106L0.26803 62.3153L0.266823 62.317C0.266342 62.3177 0.265905 62.3184 1.43519 63.126L0.265889 62.3184C-0.204893 63 -0.0339465 63.9343 0.64771 64.4051C1.32905 64.8756 2.26272 64.7051 2.73372 64.0242L2.73439 64.0232L2.73655 64.0202L2.7558 63.993C2.77434 63.967 2.80426 63.9255 2.84559 63.8695C2.92826 63.7574 3.0565 63.5874 3.23042 63.3677C3.57835 62.9283 4.10852 62.2906 4.82179 61.5206C6.24919 59.9797 8.40417 57.915 11.293 55.8482C15.5702 52.7881 21.4514 49.7256 28.9746 48.345V45.2979ZM95.4932 74.093L100.014 71.4825C109.736 71.9567 121.291 69.8257 133.583 61.9097C134.279 61.4612 135.207 61.6622 135.656 62.3586C136.105 63.0551 135.904 63.9834 135.207 64.4319C120.442 73.9411 106.599 75.5074 95.4932 74.093Z" fill="#6999FF"/>
<path fill-rule="evenodd" clip-rule="evenodd" d="M106.916 45.4208C115.538 44.7428 125.159 41.9507 135.207 35.4811C135.903 35.0326 136.105 34.1044 135.656 33.4078C135.208 32.7113 134.279 32.5102 133.583 32.9587C124.086 39.0737 115.028 41.7357 106.916 42.4113V45.4208ZM40.687 15.7358L35.6047 18.6698C24.8324 19.078 16.755 22.9896 11.293 26.8973C8.40417 28.9641 6.24919 31.0288 4.82179 32.5697C4.10852 33.3397 3.57835 33.9773 3.23042 34.4168C3.0565 34.6365 2.92826 34.8065 2.84559 34.9185C2.80426 34.9746 2.77434 35.0161 2.7558 35.0421L2.73655 35.0692L2.73439 35.0723L2.73372 35.0733C2.26272 35.7541 1.32905 35.9247 0.64771 35.4541C-0.0339465 34.9833 -0.204893 34.0491 0.265889 33.3675L1.43519 34.175C0.265905 33.3674 0.266342 33.3668 0.266823 33.3661L0.26803 33.3644L0.271264 33.3597L0.281013 33.3458L0.313644 33.2997C0.341237 33.261 0.38052 33.2066 0.431513 33.1375C0.533489 32.9993 0.682355 32.8022 0.878276 32.5547C1.27003 32.0599 1.85047 31.3627 2.62096 30.531C4.16106 28.8684 6.46613 26.6619 9.54743 24.4574C15.7163 20.0439 25.0054 15.6348 37.4616 15.6348C38.5665 15.6348 39.6414 15.6695 40.687 15.7358Z" fill="#6999FF"/>
<path d="M64.1034 85.2217L31.7298 66.5217C31.5624 66.4251 31.4234 66.2861 31.3267 66.1188C31.2299 65.9514 31.1789 65.7616 31.1787 65.5683V28.2015C31.1789 28.0081 31.23 27.8181 31.3268 27.6507C31.4236 27.4833 31.5628 27.3444 31.7303 27.2477C31.8978 27.1511 32.0879 27.1003 32.2812 27.1003C32.4746 27.1004 32.6646 27.1513 32.8321 27.248L65.2056 45.9535C65.373 46.0501 65.5121 46.1891 65.6088 46.3564C65.7056 46.5238 65.7566 46.7136 65.7568 46.9069V84.2682C65.7566 84.4616 65.7055 84.6515 65.6087 84.819C65.5118 84.9864 65.3727 85.1254 65.2051 85.222C65.0376 85.3186 64.8476 85.3694 64.6542 85.3693C64.4608 85.3693 64.2709 85.3184 64.1034 85.2217V85.2217Z" fill="#6999FF"/>
<path fill-rule="evenodd" clip-rule="evenodd" d="M84.6497 37.9086V48.4447C84.6499 48.6381 84.7009 48.828 84.7977 48.9954C84.8946 49.1628 85.0337 49.3018 85.2013 49.3984C85.3688 49.495 85.5588 49.5458 85.7522 49.5458C85.9456 49.5457 86.1356 49.4948 86.3031 49.3981L91.5223 46.3889C91.6897 46.2923 91.8287 46.1533 91.9255 45.986C92.0222 45.8186 92.0732 45.6288 92.0734 45.4355V33.622L103.074 27.27C103.242 27.1733 103.432 27.1224 103.625 27.1223C103.818 27.1223 104.008 27.1731 104.176 27.2697C104.343 27.3663 104.483 27.5053 104.579 27.6727C104.676 27.8401 104.727 28.0301 104.728 28.2235V65.5903C104.722 65.7814 104.667 65.9678 104.567 66.1311C104.467 66.2944 104.327 66.429 104.16 66.5217L71.8194 85.2216C71.6519 85.3183 71.4619 85.3692 71.2685 85.3693C71.0752 85.3693 70.8852 85.3185 70.7177 85.2219C70.5501 85.1253 70.4109 84.9863 70.3141 84.8189C70.2173 84.6515 70.1662 84.4616 70.166 84.2682V46.9069C70.1662 46.7136 70.2172 46.5237 70.314 46.3564C70.4107 46.189 70.5498 46.0501 70.7171 45.9534L84.6497 37.9086Z" fill="#6999FF"/>
<path fill-rule="evenodd" clip-rule="evenodd" d="M32.849 23.4508L67.4105 43.4073C67.5781 43.5041 67.7682 43.555 67.9617 43.555C68.1552 43.555 68.3452 43.5041 68.5128 43.4073L83.5538 34.7224L46.7928 13.4925L32.849 21.5439C32.6819 21.6408 32.5433 21.7799 32.4469 21.9472C32.3506 22.1145 32.2998 22.3042 32.2998 22.4974C32.2998 22.6905 32.3506 22.8802 32.4469 23.0475C32.5433 23.2148 32.6819 23.3539 32.849 23.4508ZM90.9786 30.4352L103.074 23.4508C103.241 23.3539 103.38 23.2148 103.476 23.0475C103.573 22.8802 103.624 22.6905 103.624 22.4974C103.624 22.3042 103.573 22.1145 103.476 21.9472C103.38 21.7799 103.241 21.6408 103.074 21.5439L68.5128 1.58737C68.3452 1.49063 68.1552 1.4397 67.9617 1.4397C67.7682 1.4397 67.5781 1.49063 67.4105 1.58737L54.2175 9.20528L90.9786 30.4352Z" fill="#6999FF"/>
</svg>
